<?xml version="1.0" encoding="UTF-8" standalone="no"?>
<!-- Created with Inkscape (http://www.inkscape.org/) -->

<svg
   width="276.54276mm"
   height="101.55575mm"
   viewBox="0 0 276.54275 101.55575"
   version="1.1"
   id="svg1"
   xml:space="preserve"
   inkscape:version="1.4.2 (f4327f4, 2025-05-13)"
   sodipodi:docname="glowworm-logo-true-colour.svg"
   inkscape:export-filename="glowworm-logo-export.svg"
   inkscape:export-xdpi="96"
   inkscape:export-ydpi="96"
   xmlns:inkscape="http://www.inkscape.org/namespaces/inkscape"
   xmlns:sodipodi="http://sodipodi.sourceforge.net/DTD/sodipodi-0.dtd"
   xmlns:xlink="http://www.w3.org/1999/xlink"
   xmlns="http://www.w3.org/2000/svg"
   xmlns:svg="http://www.w3.org/2000/svg"><sodipodi:namedview
     id="namedview1"
     pagecolor="#ffffff"
     bordercolor="#000000"
     borderopacity="0.25"
     inkscape:showpageshadow="2"
     inkscape:pageopacity="0.0"
     inkscape:pagecheckerboard="0"
     inkscape:deskcolor="#d1d1d1"
     inkscape:document-units="mm"
     inkscape:zoom="1.214972"
     inkscape:cx="518.942"
     inkscape:cy="313.999"
     inkscape:window-width="1920"
     inkscape:window-height="1009"
     inkscape:window-x="-8"
     inkscape:window-y="-8"
     inkscape:window-maximized="1"
     inkscape:current-layer="svg1" /><defs
     id="defs1"><linearGradient
       id="linearGradient41211"
       inkscape:collect="always"><stop
         style="stop-color:#be36fc;stop-opacity:1;"
         offset="0.34735918"
         id="stop41211" /><stop
         style="stop-color:#e56613;stop-opacity:1;"
         offset="0.47371906"
         id="stop41213" /><stop
         style="stop-color:#d5ee04;stop-opacity:1;"
         offset="0.660698"
         id="stop41212" /></linearGradient><linearGradient
       inkscape:collect="always"
       xlink:href="#linearGradient41211"
       id="linearGradient41212"
       x1="145.24991"
       y1="18.872652"
       x2="61.036091"
       y2="170.7984"
       gradientUnits="userSpaceOnUse" /><filter
       inkscape:label="Eroded Metal"
       inkscape:menu="Materials"
       inkscape:menu-tooltip="Eroded metal texture with ridges, grooves, holes and bumps"
       style="color-interpolation-filters:sRGB"
       id="filter41300"
       x="-0.076175193"
       y="-1.0903137"
       width="1.1523504"
       height="3.1806273"><feGaussianBlur
         result="result0"
         in="SourceGraphic"
         stdDeviation="1.9039353"
         id="feGaussianBlur41297" /><feTurbulence
         type="turbulence"
         baseFrequency="0.057"
         seed="4"
         numOctaves="4"
         result="result1"
         id="feTurbulence41297" /><feDisplacementMap
         xChannelSelector="R"
         in2="result1"
         result="result91"
         id="feDisplacementMap41297"
         scale="0"
         yChannelSelector="A" /><feComposite
         result="result2"
         operator="out"
         in="result0"
         in2="result91"
         id="feComposite41297" /><feComposite
         k1="0.1"
         k3="1.2"
         in2="result2"
         in="SourceAlpha"
         operator="arithmetic"
         result="result5"
         id="feComposite41298"
         k2="0"
         k4="0" /><feBlend
         result="fbSourceGraphic"
         mode="multiply"
         in2="result5"
         id="feBlend41298" /><feGaussianBlur
         stdDeviation="3"
         in="fbSourceGraphic"
         result="result0"
         id="feGaussianBlur41298" /><feSpecularLighting
         in="result0"
         result="result1"
         lighting-color="#fee65d"
         surfaceScale="3"
         specularConstant="0.40000001"
         specularExponent="15"
         id="feSpecularLighting41298"><fePointLight
           x="-5000"
           y="-10000"
           z="20000"
           id="fePointLight41298" /></feSpecularLighting><feComposite
         in2="fbSourceGraphic"
         in="result1"
         result="result2"
         operator="in"
         id="feComposite41299" /><feComposite
         k1="-1"
         in="fbSourceGraphic"
         result="result4"
         operator="arithmetic"
         k2="2.5"
         k3="3.5"
         in2="result2"
         id="feComposite41300"
         k4="0" /><feBlend
         mode="multiply"
         in2="result4"
         id="feBlend41300" /></filter><clipPath
       clipPathUnits="userSpaceOnUse"
       id="clipPath41300"><rect
         style="font-variation-settings:'wght' 427;fill:#333333;fill-opacity:1;stroke:none;stroke-width:2.136;stroke-linecap:round;stroke-linejoin:round;stroke-dasharray:none;stroke-opacity:1;paint-order:markers fill stroke"
         id="rect41300"
         width="254.57205"
         height="52.04681"
         x="-72.147736"
         y="40.034885" /></clipPath><clipPath
       clipPathUnits="userSpaceOnUse"
       id="clipPath41301"><rect
         style="font-variation-settings:'wght' 427;fill:#333333;fill-opacity:1;stroke:none;stroke-width:2.136;stroke-linecap:round;stroke-linejoin:round;stroke-dasharray:none;stroke-opacity:1;paint-order:markers fill stroke"
         id="rect41301"
         width="254.57205"
         height="52.04681"
         x="10.305321"
         y="23.642765" /></clipPath></defs><rect
     style="font-variation-settings:'wght' 427;fill:#333333;fill-opacity:1;stroke:none;stroke-width:2.136;stroke-linecap:round;stroke-linejoin:round;stroke-dasharray:none;stroke-opacity:1;paint-order:markers fill stroke"
     id="rect41230"
     width="254.57205"
     height="52.04681"
     x="10.329315"
     y="23.594416"
     clip-path="url(#clipPath41301)"
     transform="matrix(1.0864069,0,0,1.950674,-11.221839,-45.995621)" /><g
     inkscape:label="Layer 1"
     inkscape:groupmode="layer"
     id="layer1"
     transform="translate(82.794422,-16.392119)"><path
       style="opacity:1;mix-blend-mode:normal;fill:url(#linearGradient41212);fill-opacity:1;stroke:#000000;stroke-width:0;stroke-dasharray:none;stroke-opacity:1;filter:url(#filter41300)"
       d="m 106.19154,98.610614 -2.77812,-1.7056 -0.0791,1.5882 -0.0791,1.588186 -1.24378,-0.0801 -1.24378,-0.0801 v -5.15938 -5.15937 l 3.03188,-0.0753 c 1.88514,-0.0468 3.31458,0.0418 3.77928,0.23425 1.24474,0.51559 1.78779,1.44876 1.78779,3.07211 0,1.23867 -0.10807,1.54796 -0.77339,2.21328 -0.48514,0.48514 -1.05218,0.77529 -1.52136,0.77846 -0.62799,0.004 -0.50314,0.11681 0.77848,0.70178 1.02837,0.46939 1.5743,0.88744 1.67314,1.28124 0.20608,0.82112 0.0272,2.32005 -0.28916,2.42239 -0.14552,0.0471 -1.51474,-0.68192 -3.04271,-1.62 z m 2.90728,0.18609 c -0.003,-0.93816 -0.0894,-1.03958 -1.5875,-1.86246 -0.8714,-0.47864 -1.58436,-0.96581 -1.58436,-1.08259 0,-0.11679 0.47194,-0.35373 1.04876,-0.52655 1.28642,-0.38542 1.86166,-1.15532 1.86166,-2.49164 0,-2.25889 -0.99087,-2.83416 -4.88166,-2.83416 h -2.79126 v 4.7625 4.7625 h 0.79375 0.79375 v -1.5875 c 0,-1.3363 0.0733,-1.58717 0.46302,-1.58542 0.25466,0.001 1.65365,0.76308 3.10886,1.69319 1.4552,0.93011 2.67559,1.70308 2.71197,1.71771 0.0364,0.0146 0.0647,-0.41988 0.063,-0.96558 z m -6.2426,-5.20317 c -0.079,-0.20599 -0.10508,-0.71201 -0.0578,-1.12448 0.0839,-0.73308 0.1266,-0.75173 1.89562,-0.82873 1.96216,-0.0854 2.55588,0.17397 2.55588,1.11659 0,0.95374 -0.5191,1.21114 -2.44247,1.21114 -1.31463,0 -1.84666,-0.10212 -1.95119,-0.37452 z m 3.7322,-0.8161 c 0,-0.46432 -0.20265,-0.53882 -1.65365,-0.60794 -1.62395,-0.0774 -1.65364,-0.0664 -1.65364,0.60794 0,0.67438 0.0297,0.68529 1.65364,0.60794 1.451,-0.0691 1.65365,-0.14362 1.65365,-0.60794 z m 59.92812,6.22479 -2.77812,-1.27561 -0.1323,1.09729 -0.13229,1.09728 -1.25677,0.0806 -1.25677,0.0806 V 97.8314 c 0,-1.23805 0.12921,-2.53459 0.28713,-2.88119 0.46647,-1.02379 1.58629,-1.51138 3.47109,-1.51138 1.79763,0 2.53647,-0.35508 2.02392,-0.97267 -0.20702,-0.24944 -1.08098,-0.35025 -3.03641,-0.35025 h -2.74573 v -1.32292 -1.32291 h 3.06887 c 2.2466,0 3.3045,0.11181 3.9483,0.41732 0.96618,0.45848 1.71466,1.73863 1.71309,2.92996 -0.001,1.05607 -0.93758,2.47431 -1.86419,2.82407 -0.42936,0.16206 -0.78065,0.36487 -0.78065,0.45068 0,0.0858 0.62508,0.44667 1.38906,0.80189 l 1.38906,0.64587 v 1.30087 c 0,0.71547 -0.11906,1.33148 -0.26458,1.36893 -0.14552,0.0374 -1.51474,-0.50592 -3.04271,-1.20751 z m -3.43958,-0.66854 c 0,-0.83217 0.10921,-1.19063 0.36275,-1.19063 0.19952,0 1.57117,0.53579 3.04812,1.19063 1.47695,0.65484 2.75,1.19062 2.82901,1.19062 0.079,0 0.10634,-0.37651 0.0607,-0.83668 -0.076,-0.76731 -0.24614,-0.90595 -2.05131,-1.67186 -2.19693,-0.93213 -2.66438,-1.45966 -1.2948,-1.4612 1.14333,-0.001 2.54098,-0.8631 2.89047,-1.78231 0.38411,-1.01029 0.091,-2.24943 -0.71021,-3.00303 -0.62037,-0.58346 -0.93467,-0.64518 -3.70011,-0.72654 l -3.02216,-0.0889 v 0.81652 0.81651 h 2.62693 c 2.03535,0 2.72057,0.0936 3.04271,0.41578 0.52976,0.52976 0.52457,0.87755 -0.0221,1.48162 -0.34387,0.37998 -0.83107,0.48385 -2.26931,0.48385 -1.67143,0 -1.89899,0.0676 -2.60482,0.7734 -0.71872,0.71871 -0.7734,0.91515 -0.7734,2.77813 v 2.00472 h 0.79375 c 0.76435,0 0.79375,-0.0441 0.79375,-1.19062 z m -134.941525,1.12448 c -1.745591,-0.88479 -2.244928,-1.93369 -2.244928,-4.71568 0,-2.02049 0.07792,-2.38602 0.713248,-3.34607 1.013164,-1.53099 2.301858,-1.96899 5.504763,-1.87093 l 2.513239,0.0769 v 1.19062 1.19063 l -2.571456,0.13229 c -3.216431,0.16547 -3.513961,0.39228 -3.513961,2.67866 0,2.08587 0.606008,2.67687 2.62417,2.55915 1.152681,-0.0672 1.356347,-0.16111 1.42703,-0.65774 0.07247,-0.50918 -0.05563,-0.58924 -1.058333,-0.66146 l -1.140784,-0.0821 -0.08064,-1.25677 -0.08064,-1.25677 h 1.581697 c 1.3117,0 1.719333,0.11581 2.388006,0.67846 1.81076,1.52366 1.529145,4.48935 -0.527278,5.55277 -1.186693,0.613656 -4.127474,0.501026 -5.534128,-0.21196 z m 5.252046,-0.30816 c 0.678628,-0.35093 1.110732,-0.96373 1.472238,-2.08788 0.212486,-0.66075 -0.452552,-2.14263 -1.194927,-2.66261 -0.338793,-0.2373 -1.125276,-0.43146 -1.74774,-0.43146 -1.076201,0 -1.131754,0.0382 -1.131754,0.77854 0,0.72678 0.07476,0.78395 1.124479,0.8599 1.01262,0.0733 1.132961,0.15533 1.209744,0.82496 0.13304,1.16027 -0.345438,1.50535 -2.087282,1.50535 -1.246849,0 -1.681799,-0.12167 -2.282707,-0.63855 -0.685082,-0.58928 -0.742359,-0.78498 -0.742359,-2.53645 0,-1.75147 0.05728,-1.94716 0.742359,-2.53645 0.665086,-0.57208 0.988685,-0.63855 3.108854,-0.63855 h 2.366496 v -0.79375 -0.79375 h -2.243604 c -4.199033,0 -5.565857,1.17155 -5.556352,4.7625 0.0066,2.49478 0.517352,3.54666 2.062815,4.24832 1.328872,0.60333 3.863599,0.67569 4.89974,0.13988 z m 5.665265,0.72135 c -0.970276,-0.19446 -2.366073,-1.71118 -2.693383,-2.92672 -0.167609,-0.62245 -0.26648,-2.48229 -0.224705,-4.22687 l 0.0746,-3.11533 1.235474,-0.0798 1.235474,-0.0798 0.08744,3.44452 c 0.108981,4.29296 0.137833,4.33365 3.204661,4.52024 l 2.174448,0.13229 v 1.19062 1.19063 l -2.248958,0.0348 c -1.236927,0.0192 -2.517201,-0.0189 -2.845052,-0.0846 z m 4.697135,-1.11278 v -0.76574 l -2.111022,-0.0959 c -3.124762,-0.1419 -3.288124,-0.36274 -3.40066,-4.59698 l -0.08773,-3.30069 h -0.772171 -0.772172 v 3.03736 c 0,3.4139 0.39139,4.84339 1.551448,5.66641 0.919303,0.65222 1.392507,0.75404 3.674073,0.79054 l 1.918229,0.0307 z m 4.101042,1.12024 c -2.031112,-0.55208 -3.189509,-2.73611 -2.982889,-5.62389 0.164702,-2.30194 0.774681,-3.40411 2.327484,-4.20554 1.570182,-0.81039 4.832894,-0.75598 5.979008,0.0997 1.583024,1.1819 1.820146,1.78283 1.820146,4.61271 0,2.22043 -0.0809,2.71538 -0.545514,3.33769 -1.073294,1.43756 -1.793967,1.77017 -4.00707,1.84937 -1.134099,0.0406 -2.300124,0.009 -2.591165,-0.07 z m 4.624934,-0.81794 c 1.516218,-0.76177 2.12201,-1.94386 2.121529,-4.13976 -7.18e-4,-3.28167 -1.174412,-4.68762 -4.067035,-4.8718 -3.373982,-0.21484 -5.173529,1.39523 -5.187159,4.64099 -0.01003,2.38884 1.082207,4.21696 2.772314,4.64013 1.248413,0.31258 3.475747,0.17488 4.360351,-0.26956 z m -4.676326,-1.76262 c -0.685082,-0.58928 -0.742358,-0.78498 -0.742358,-2.53645 0,-1.75147 0.05728,-1.94716 0.742358,-2.53645 0.606062,-0.52131 1.033321,-0.63855 2.327131,-0.63855 1.32982,0 1.68925,0.10448 2.234204,0.64944 0.567404,0.5674 0.649431,0.88639 0.649431,2.52556 0,1.63917 -0.08203,1.95817 -0.649431,2.52557 -0.544954,0.54496 -0.904384,0.64943 -2.234204,0.64943 -1.29381,0 -1.721069,-0.11723 -2.327131,-0.63855 z m 4.152433,-0.41978 c 0.411574,-0.41157 0.529167,-0.88194 0.529167,-2.11667 0,-2.08381 -0.508371,-2.64583 -2.393277,-2.64583 -1.081177,0 -1.464323,0.12938 -2.01555,0.68061 -0.608295,0.60829 -0.667567,0.83785 -0.557873,2.16062 0.155977,1.88088 0.763732,2.45044 2.614762,2.45044 0.940827,0 1.437913,-0.14431 1.822771,-0.52917 z m 5.688542,2.92487 c -0.291042,-0.11912 -0.767292,-0.48098 -1.058334,-0.80414 -0.484445,-0.53791 -0.529166,-0.95981 -0.529166,-4.99217 v -4.4046 h 1.322916 1.322917 l 0.132292,3.83646 0.132291,3.83646 0.891919,-2.64584 c 1.228328,-3.64377 1.578653,-4.32981 2.437911,-4.77415 1.350803,-0.69853 2.792545,-0.40176 3.741891,0.77022 0.371666,0.45883 0.458237,1.12088 0.463021,3.54091 0.0032,1.63711 0.09518,2.97509 0.20432,2.97329 0.109141,-0.002 0.79375,-1.69844 1.521355,-3.77031 l 1.322916,-3.76704 1.389063,-0.08 c 1.040998,-0.0599 1.389062,0.0112 1.389062,0.28383 0,0.2001 -0.714375,2.31102 -1.5875,4.69093 -0.873125,2.37992 -1.5875,4.3673 -1.5875,4.41641 0,0.2901 -1.841031,1.138016 -2.472718,1.138846 -0.974124,0.001 -2.167403,-0.710586 -2.531819,-1.510396 -0.157921,-0.34659 -0.287129,-1.87473 -0.287129,-3.39585 0,-1.52112 -0.09485,-2.76568 -0.210772,-2.76568 -0.115925,0 -0.680312,1.44224 -1.254194,3.20497 -0.797848,2.45067 -1.22005,3.3536 -1.793903,3.83646 -0.7684,0.646566 -1.941473,0.797756 -2.958839,0.38136 z m 2.606349,-0.87435 c 0.435129,-0.39761 0.977725,-1.60578 1.633861,-3.63802 1.096415,-3.39591 1.453753,-3.98405 2.09651,-3.4506 0.324807,0.26956 0.410154,0.94351 0.410154,3.23877 0,2.85068 0.01273,2.91109 0.773398,3.67177 0.827052,0.82705 1.461737,0.94918 2.492376,0.47959 0.835603,-0.38073 1.075749,-0.85754 2.693262,-5.34753 l 1.35143,-3.75137 -0.770253,-0.0848 c -0.423639,-0.0466 -0.82393,-0.0311 -0.889536,0.0345 -0.06561,0.0656 -0.686049,1.74173 -1.378762,3.72473 -1.383325,3.95998 -1.642627,4.40145 -2.276326,3.87553 -0.323628,-0.26859 -0.408089,-0.95685 -0.408089,-3.32548 v -2.98679 l -0.81405,-0.68498 c -0.893387,-0.75173 -1.465229,-0.84064 -2.468041,-0.38373 -0.769999,0.35083 -1.11595,1.0379 -2.246315,4.46125 -0.984301,2.98099 -1.163854,3.30334 -1.720932,3.08957 -0.361492,-0.13872 -0.423578,-0.72609 -0.423578,-4.0073 v -3.84477 h -0.926042 -0.926041 v 3.98911 3.9891 l 0.773397,0.7734 c 0.953268,0.95326 2.101257,1.02088 3.023577,0.17808 z m 13.959231,0.75525 c -1.181581,-0.6549 -1.332645,-1.32036 -1.342664,-5.91462 l -0.0094,-4.29948 h 1.322916 1.322917 v 3.83646 c 0,2.11005 0.09317,3.83645 0.207038,3.83645 0.113871,0 0.666112,-1.39483 1.227204,-3.09964 1.221169,-3.71036 1.900242,-4.57327 3.598947,-4.57327 0.904053,0 1.268832,0.16368 2.004727,0.89958 l 0.899584,0.89958 v 2.9898 c 0,1.67134 0.0996,2.87894 0.225856,2.73843 0.124221,-0.13824 0.794653,-1.88846 1.489848,-3.88937 l 1.263991,-3.63802 h 1.272662 c 0.699965,0 1.336398,0.10312 1.414296,0.22916 0.0779,0.12605 -0.564107,2.17987 -1.426679,4.56407 -1.717839,4.7482 -2.436309,5.790096 -3.992704,5.790096 -1.034589,0 -2.259866,-0.637976 -2.673049,-1.391796 -0.178639,-0.32592 -0.39058,-1.90226 -0.470979,-3.50299 l -0.146181,-2.91042 -1.153473,3.39503 c -1.002442,2.9505 -1.262252,3.46136 -1.984259,3.90162 -0.961305,0.586166 -2.146746,0.640306 -3.050623,0.13933 z m 2.593558,-0.54484 c 0.622533,-0.32192 0.901639,-0.85224 1.705814,-3.24114 1.151231,-3.41988 1.520348,-4.17916 2.031651,-4.17916 0.30814,0 0.417195,0.61832 0.536647,3.0427 0.170422,3.45886 0.285206,3.83812 1.324214,4.37541 2.022124,1.045686 2.804733,0.23744 4.620902,-4.77228 0.791333,-2.18281 1.440318,-4.06559 1.442189,-4.18395 0.0019,-0.11836 -0.371176,-0.17789 -0.828994,-0.13229 -0.818975,0.0816 -0.854207,0.14476 -2.1852,3.91936 -1.128834,3.2013 -1.440017,3.83646 -1.879583,3.83646 -0.490378,0 -0.535921,-0.22562 -0.659071,-3.26503 -0.128739,-3.17734 -0.152228,-3.28215 -0.87465,-3.9026 -0.951581,-0.81727 -2.133852,-0.82813 -2.935017,-0.027 -0.358611,0.35861 -1.021861,1.86004 -1.607081,3.63802 -1.114911,3.38726 -1.470705,3.96636 -2.110598,3.4353 -0.334427,-0.27755 -0.410154,-1.01832 -0.410154,-4.01217 v -3.67177 h -0.79375 -0.79375 v 3.98911 3.9891 l 0.773398,0.7734 c 0.861026,0.86102 1.53709,0.9604 2.643033,0.38849 z m 15.104402,0.33482 c -1.778169,-0.91307 -2.451623,-2.37023 -2.313759,-5.00627 0.130849,-2.50189 0.697549,-3.58129 2.319812,-4.41857 1.570183,-0.81039 4.832895,-0.75598 5.979008,0.0997 1.583024,1.1819 1.820145,1.78283 1.820145,4.61271 0,2.82989 -0.237121,3.43082 -1.820145,4.61271 -1.145966,0.855586 -4.407223,0.909916 -5.985061,0.0997 z m 5.746229,-0.63662 c 2.293467,-1.67655 2.296767,-6.47281 0.0056,-8.14741 -1.092202,-0.79828 -3.736792,-0.90477 -5.299732,-0.21341 -1.460889,0.64622 -2.041036,1.63075 -2.23747,3.79706 -0.230099,2.53757 0.850051,4.55724 2.711407,5.06981 0.291041,0.0802 1.329032,0.12014 2.306646,0.0889 1.304338,-0.0417 1.973409,-0.20008 2.513541,-0.59492 z m -5.136162,-1.53935 c -0.685082,-0.58928 -0.742359,-0.78498 -0.742359,-2.53645 0,-1.75147 0.05728,-1.94716 0.742359,-2.53645 0.606061,-0.52131 1.033321,-0.63855 2.32713,-0.63855 1.32982,0 1.689251,0.10448 2.234204,0.64944 0.567405,0.5674 0.649432,0.88639 0.649432,2.52556 0,1.63917 -0.08203,1.95817 -0.649432,2.52557 -0.544953,0.54496 -0.904384,0.64943 -2.234204,0.64943 -1.293809,0 -1.721069,-0.11723 -2.32713,-0.63855 z m 4.152433,-0.41978 c 0.411574,-0.41157 0.529166,-0.88194 0.529166,-2.11667 0,-2.06944 -0.512365,-2.64583 -2.351938,-2.64583 -1.976583,0 -2.542853,0.5892 -2.542853,2.64583 0,1.39829 0.09019,1.70729 0.624624,2.14005 0.8767,0.70991 3.021115,0.69651 3.741001,-0.0234 z m 13.417754,3.01081 c -0.10373,-0.10372 -0.18859,-1.89897 -0.18859,-3.98945 0,-4.30088 0.27155,-5.35231 1.55352,-6.01524 2.19175,-1.1334 3.60355,-0.14209 4.78955,3.36303 1.49925,4.4309 1.54834,4.46288 1.57294,1.0247 l 0.0215,-3.00302 0.89958,-0.89958 c 1.45799,-1.45799 3.57314,-1.15794 4.49632,0.63783 0.53979,1.05 3.07077,8.19344 3.07077,8.66695 0,0.32387 -0.27982,0.390346 -1.37493,0.326646 l -1.37492,-0.08 -1.30896,-3.77636 c -0.71993,-2.077 -1.35222,-3.7331 -1.40509,-3.68023 -0.0529,0.0529 -0.12903,1.3786 -0.16924,2.94607 -0.0729,2.84108 -0.0758,2.85232 -0.92832,3.61409 -0.66509,0.59425 -1.11107,0.76414 -2.00599,0.76414 -1.86264,0 -2.33779,-0.57751 -3.64851,-4.43444 l -1.1455,-3.37077 -0.13229,3.96875 -0.1323,3.96875 -1.20047,0.0783 c -0.66026,0.0431 -1.28534,-0.007 -1.38906,-0.11024 z m 2.25173,-4.26758 c 0.0691,-3.68222 0.10267,-3.9026 0.59468,-3.9026 0.43036,0 0.72034,0.57776 1.65989,3.30729 0.6739,1.95777 1.36377,3.49622 1.69067,3.77031 0.84498,0.70848 2.38652,0.60301 3.15586,-0.21592 0.58065,-0.61807 0.64636,-0.94422 0.73301,-3.63802 0.15178,-4.71888 0.71954,-4.52398 2.57935,0.88544 l 1.27075,3.6961 h 0.90354 c 0.75521,0 0.87291,-0.076 0.71696,-0.46302 -0.10262,-0.25466 -0.70856,-1.92337 -1.34653,-3.70824 -0.63798,-1.78488 -1.3419,-3.59705 -1.56426,-4.02706 -0.75152,-1.45328 -2.25725,-1.75035 -3.49292,-0.68912 -0.71844,0.61701 -0.74663,0.73851 -0.87465,3.77031 -0.12165,2.88076 -0.17486,3.13856 -0.66146,3.20491 -0.45472,0.062 -0.69668,-0.4001 -1.71979,-3.28452 -1.37114,-3.86559 -1.92578,-4.52223 -3.56072,-4.21551 -0.6934,0.13008 -1.10656,0.41691 -1.478,1.02609 -0.44719,0.73342 -0.51569,1.34548 -0.51654,4.61585 l -9.9e-4,3.77031 h 0.91897 0.91896 z m 18.35192,4.20351 c -0.13157,-0.21288 1.98387,-6.41016 2.90959,-8.52373 0.7233,-1.65143 2.47353,-2.26491 4.08471,-1.43173 1.14559,0.59241 1.31763,1.14046 1.31763,4.19759 0,1.52894 0.0956,2.839 0.21249,2.91123 0.11687,0.0722 0.66212,-1.2348 1.21166,-2.9045 0.54954,-1.66971 1.25759,-3.33314 1.57344,-3.69652 0.70477,-0.81081 2.24107,-1.10316 3.36051,-0.63947 1.38172,0.57232 1.5794,1.33191 1.5794,6.06892 v 4.246466 h -1.32292 -1.32292 v -3.836456 c 0,-2.11005 -0.0932,-3.83646 -0.20704,-3.83646 -0.11387,0 -0.65365,1.35699 -1.19951,3.01553 -1.19652,3.63546 -1.80713,4.39281 -3.54171,4.39281 -2.41394,0 -2.98924,-0.92424 -2.98924,-4.80228 0,-1.51784 -0.0994,-2.60122 -0.22585,-2.46054 -0.12423,0.13825 -0.79466,1.88847 -1.48985,3.88938 l -1.26399,3.638016 h -1.27267 c -0.69996,0 -1.33614,-0.102706 -1.41373,-0.228256 z m 3.6566,-4.26966 c 1.12884,-3.20129 1.44002,-3.83645 1.87959,-3.83645 0.49038,0 0.53592,0.22561 0.65907,3.26545 0.12284,3.0322 0.17691,3.30151 0.75691,3.77031 0.85048,0.68741 2.35352,0.65776 3.11917,-0.0615 0.36299,-0.34101 0.98773,-1.73601 1.57001,-3.50573 1.08587,-3.30023 1.44396,-3.87614 2.08125,-3.34723 0.33443,0.27755 0.41016,1.01831 0.41016,4.01216 v 3.67177 h 0.79375 0.79375 v -4.07752 -4.07752 l -0.84526,-0.71124 c -0.68324,-0.5749 -1.02206,-0.68255 -1.76761,-0.56156 -0.5073,0.0823 -1.09859,0.32591 -1.31399,0.54131 -0.2154,0.2154 -0.89172,1.8565 -1.50295,3.6469 -0.91919,2.6925 -1.20914,3.26988 -1.67721,3.33981 -0.54362,0.0812 -0.56596,-0.0125 -0.56737,-2.38125 -0.002,-3.16058 -0.32037,-4.32938 -1.32062,-4.84663 -2.03484,-1.05225 -2.80879,-0.26115 -4.64049,4.74335 -0.79516,2.17251 -1.44575,4.05529 -1.44575,4.18395 0,0.12866 0.37458,0.19662 0.83239,0.15102 0.81898,-0.0816 0.85421,-0.14476 2.1852,-3.91937 z m 13.50437,4.15868 c -0.0716,-0.18658 -0.0976,-2.53807 -0.0578,-5.22552 l 0.0723,-4.88628 1.25677,-0.0806 1.25677,-0.0807 v 5.30617 5.306156 h -1.19893 c -0.73111,0 -1.24972,-0.132366 -1.32911,-0.339236 z m 1.99887,-4.95243 v -4.7625 h -0.79375 -0.79375 v 4.7625 4.7625 h 0.79375 0.79375 z m 3.70417,4.7033 c -1.6485,-0.83386 -2.24896,-2.08961 -2.24896,-4.7033 0,-2.58283 0.61363,-3.85745 2.26429,-4.70329 1.03003,-0.52782 1.5023,-0.59322 3.82113,-0.52917 l 2.64583,0.0731 v 1.19062 1.19063 l -2.57146,0.13229 c -3.19706,0.16448 -3.49145,0.38589 -3.50468,2.63596 -0.0133,2.25963 0.29124,2.49039 3.50468,2.65571 l 2.57146,0.13229 v 1.19062 1.19063 l -2.64583,0.0731 c -2.31538,0.064 -2.79454,-0.002 -3.83646,-0.52916 z m 6.08541,-0.73455 v -0.79375 h -2.36649 c -2.12098,0 -2.44352,-0.0663 -3.10886,-0.63915 -0.68546,-0.59016 -0.74223,-0.78465 -0.74069,-2.53788 0.002,-1.75038 0.0595,-1.94851 0.74236,-2.53585 0.66313,-0.5704 0.98849,-0.63712 3.10719,-0.63712 h 2.36649 v -0.79375 -0.79375 l -2.3151,0.006 c -4.15825,0.0104 -5.49358,1.20032 -5.4866,4.88899 0.007,3.44763 1.39048,4.61411 5.4866,4.62439 l 2.3151,0.006 z m 12.70525,0.72761 c -1.63965,-0.83771 -2.2542,-2.11805 -2.2542,-4.69636 0,-3.62871 1.6082,-5.29166 5.11745,-5.29166 3.55211,0 5.18476,1.66476 5.18958,5.29166 0.005,3.66822 -1.57439,5.291666 -5.14766,5.291666 -1.28276,0 -2.04613,-0.156416 -2.90517,-0.595306 z m 5.09648,-0.29663 c 1.24582,-0.53084 1.9722,-1.45231 2.30085,-2.91882 0.80525,-3.5932 -1.06532,-6.24199 -4.40879,-6.24299 -1.65285,-5e-4 -2.62484,0.33668 -3.57025,1.23849 -1.33816,1.27645 -1.60748,4.64384 -0.52275,6.53627 0.8696,1.51713 4.16545,2.254356 6.20094,1.38705 z m -4.24135,-1.63117 c -0.78741,-0.55153 -1.23494,-2.17122 -1.01154,-3.66095 0.25186,-1.67955 1.06241,-2.28261 3.06795,-2.28261 1.8707,0 2.56805,0.48993 2.91866,2.05052 0.32277,1.43664 -0.0599,3.21735 -0.82439,3.83646 -0.74064,0.59978 -3.32486,0.63501 -4.15068,0.0566 z m 3.64595,-0.39181 c 0.73781,-0.39486 1.13616,-2.13225 0.78655,-3.43058 -0.33531,-1.24526 -0.87285,-1.592 -2.46805,-1.592 -1.85018,0 -2.41913,0.62227 -2.41913,2.64583 0,1.4025 0.0903,1.7145 0.62021,2.14362 0.68633,0.55575 2.63384,0.68621 3.48042,0.23313 z"
       id="path41208"
       transform="matrix(1.5491084,0,0,2.9457573,-104.32811,-212.40139)" /><path
       style="opacity:0.409091;mix-blend-mode:normal;fill:#000000;fill-opacity:1;stroke:#000000;stroke-width:0;stroke-dasharray:none;stroke-opacity:1"
       d="M 60.363548,78.011052 56.059939,72.986769 55.937405,77.66522 55.81487,82.343631 53.88812,82.107676 51.96137,81.871721 V 66.673439 51.475187 l 4.696711,-0.221815 c 2.920286,-0.137862 5.134644,0.123133 5.854514,0.690044 1.928238,1.518803 2.769481,4.267695 2.769481,9.04969 0,3.648821 -0.167412,4.559914 -1.198065,6.519786 -0.751535,1.429104 -1.629941,2.283816 -2.356752,2.293154 -0.972824,0.01178 -0.779418,0.344094 1.20595,2.067273 1.593057,1.382709 2.438762,2.614183 2.591875,3.774223 0.319241,2.41882 0.04214,6.834304 -0.44794,7.135773 -0.225426,0.138745 -2.346496,-2.008771 -4.713487,-4.772127 z m 4.503692,0.548176 c -0.0046,-2.763591 -0.13849,-3.06235 -2.459209,-5.486355 -1.349894,-1.409957 -2.454346,-2.845042 -2.454346,-3.189047 0,-0.344035 0.731086,-1.042003 1.624643,-1.551089 1.992804,-1.135354 2.883913,-3.403292 2.883913,-7.339767 0,-6.654141 -1.534965,-8.348747 -7.56222,-8.348747 h -4.323965 v 14.029169 14.029169 h 1.229605 1.229605 v -4.676389 c 0,-3.936416 0.11355,-4.675418 0.717268,-4.670263 0.394496,0.0029 2.561683,2.247848 4.815961,4.987727 2.254263,2.739878 4.144779,5.01686 4.201136,5.059957 0.05639,0.04301 0.100227,-1.236865 0.09759,-2.844365 z M 55.196776,63.231952 c -0.12238,-0.606796 -0.16278,-2.097408 -0.08954,-3.312445 0.12997,-2.159476 0.196117,-2.214414 2.93652,-2.441237 3.039599,-0.251568 3.959336,0.512473 3.959336,3.289203 0,2.809486 -0.804143,3.567724 -3.783651,3.567724 -2.036505,0 -2.860677,-0.300821 -3.022605,-1.103245 z m 5.781582,-2.404032 c 0,-1.367774 -0.313926,-1.587233 -2.561683,-1.790844 -2.515674,-0.228002 -2.561667,-0.195598 -2.561667,1.790844 0,1.986559 0.04601,2.018698 2.561667,1.790843 2.247757,-0.203551 2.561683,-0.423069 2.561683,-1.790843 z m 92.835162,18.33672 -4.30361,-3.757637 -0.20495,3.23235 -0.20493,3.23232 -1.94688,0.237428 -1.94687,0.237428 v -6.630852 c 0,-3.646995 0.20016,-7.466287 0.4448,-8.487287 0.72261,-3.015836 2.45733,-4.452158 5.37709,-4.452158 2.78473,0 3.92927,-1.04598 3.13527,-2.86525 -0.32069,-0.73479 -1.67455,-1.031751 -4.70372,-1.031751 h -4.25344 v -3.897002 -3.896972 h 4.75401 c 3.48023,0 5.11903,0.329366 6.11635,1.229324 1.49672,1.350571 2.65619,5.121582 2.65376,8.630951 -0.002,3.110926 -1.45241,7.288717 -2.88783,8.319025 -0.66513,0.477389 -1.20931,1.074818 -1.20931,1.327594 0,0.252746 0.96831,1.315781 2.1518,2.362173 l 2.15181,1.902576 v 3.832048 c 0,2.107601 -0.18444,3.922217 -0.40987,4.032535 -0.22542,0.110171 -2.34649,-1.490317 -4.71348,-3.557031 z m -5.32829,-1.969356 c 0,-2.451371 0.16918,-3.507307 0.56194,-3.507307 0.30908,0 2.43391,1.578307 4.72187,3.507307 2.28796,1.928999 4.26005,3.507277 4.38244,3.507277 0.12238,0 0.16474,-1.109107 0.094,-2.464656 -0.11773,-2.260309 -0.38129,-2.668709 -3.1777,-4.924894 -3.40328,-2.745829 -4.12741,-4.299804 -2.00578,-4.30434 1.77114,-0.0029 3.93625,-2.542483 4.47765,-5.250253 0.59503,-2.976069 0.14097,-6.626275 -1.10019,-8.846198 -0.96102,-1.718731 -1.44791,-1.900543 -5.73187,-2.14021 l -4.68166,-0.261878 v 2.40527 2.40524 h 4.0694 c 3.15298,0 4.21446,0.275723 4.71349,1.224787 0.82065,1.560544 0.81261,2.585049 -0.0342,4.364493 -0.53269,1.119329 -1.28741,1.425305 -3.5154,1.425305 -2.58923,0 -2.94175,0.199133 -4.03515,2.278248 -1.11338,2.117146 -1.19808,2.69581 -1.19808,8.183697 v 5.905419 h 1.2296 c 1.18406,0 1.22961,-0.129908 1.22961,-3.507278 z m -209.03905,3.312445 c -2.704109,-2.606377 -3.477637,-5.696182 -3.477637,-13.891249 0,-5.951873 0.120707,-7.028636 1.104899,-9.85671 1.569501,-4.509925 3.565828,-5.800167 8.527475,-5.511306 l 3.893279,0.226529 v 3.507278 3.507307 l -3.983464,0.389694 c -4.9826,0.487434 -5.443506,1.155561 -5.443506,7.890682 0,6.144467 0.938772,7.885409 4.065123,7.538635 1.785628,-0.197955 2.101129,-0.474591 2.210625,-1.937543 0.112263,-1.49992 -0.08618,-1.735758 -1.639473,-1.9485 l -1.767198,-0.241847 -0.12492,-3.702139 -0.12492,-3.70214 h 2.45022 c 2.031965,0 2.663433,0.341148 3.69928,1.998579 2.805064,4.488332 2.368811,13.224535 -0.816811,16.357113 -1.838316,1.807681 -6.393904,1.475901 -8.572964,-0.624383 z m 8.135989,-0.907765 c 1.051268,-1.033754 1.720644,-2.838914 2.280656,-6.150387 0.329164,-1.94641 -0.701052,-6.311668 -1.851071,-7.843403 -0.524827,-0.699029 -1.743175,-1.270977 -2.707439,-1.270977 -1.667152,0 -1.75321,0.112528 -1.75321,2.29339 0,2.140918 0.115812,2.309327 1.74194,2.533057 1.568658,0.215924 1.75508,0.457564 1.874025,2.430132 0.206093,3.417874 -0.535121,4.434396 -3.233426,4.434396 -1.931505,0 -2.605289,-0.358411 -3.536161,-1.881014 -1.061266,-1.735876 -1.149994,-2.31236 -1.149994,-7.471766 0,-5.159405 0.08873,-5.735861 1.149994,-7.471766 1.03029,-1.685209 1.53158,-1.881013 4.815952,-1.881013 h 3.665959 v -2.338195 -2.338195 h -3.475586 c -6.504757,0 -8.622116,3.451102 -8.607392,14.029169 0.01022,7.349016 0.801435,10.4476 3.195524,12.51452 2.058567,1.777263 5.985134,1.990418 7.590229,0.412052 z m 8.776109,2.124922 c -1.503062,-0.572832 -3.665303,-5.040721 -4.172342,-8.621407 -0.259644,-1.833586 -0.412806,-7.312223 -0.348092,-12.451333 l 0.115563,-9.177006 1.913883,-0.235071 1.913884,-0.235072 0.135454,10.14672 c 0.168823,12.646019 0.213518,12.765881 4.964367,13.31553 l 3.368456,0.389695 v 3.507277 3.507307 l -3.48388,0.102512 c -1.916134,0.05656 -3.899417,-0.05567 -4.407294,-0.249211 z m 7.276372,-3.27798 v -2.255684 l -3.270202,-0.282498 c -4.840595,-0.418003 -5.093661,-1.068544 -5.267991,-13.541587 l -0.135903,-9.723032 h -1.196177 -1.196178 v 8.947326 c 0,10.05652 0.606305,14.267451 2.403361,16.691868 1.4241,1.921282 2.157144,2.221219 5.691537,2.328739 l 2.971545,0.09043 z m 6.352958,3.299956 c -3.146412,-1.626294 -4.940895,-8.059916 -4.620818,-16.566615 0.255141,-6.780957 1.200065,-10.027682 3.605525,-12.388501 2.432382,-2.387212 7.486677,-2.226933 9.262132,0.293692 2.452275,3.481591 2.819603,5.251785 2.819603,13.587925 0,6.540848 -0.125323,7.99885 -0.84506,9.832024 -1.662649,4.234703 -2.77905,5.214492 -6.207386,5.447795 -1.756842,0.119598 -3.563142,0.02651 -4.013996,-0.206203 z m 7.164524,-2.409453 c 2.348787,-2.24399 3.287224,-5.72614 3.286479,-12.194728 -0.0011,-9.667004 -1.819292,-13.808591 -6.300278,-14.351141 -5.226664,-0.632866 -8.014357,4.110009 -8.035472,13.67123 -0.01554,7.036943 1.676456,12.422141 4.294615,13.668697 1.933927,0.920785 5.384309,0.515154 6.754656,-0.794058 z m -7.244135,-5.192251 c -1.061267,-1.735876 -1.149993,-2.31236 -1.149993,-7.471766 0,-5.159405 0.08873,-5.735861 1.149993,-7.471766 0.938855,-1.535653 1.600726,-1.881013 3.604978,-1.881013 2.060035,0 2.616831,0.307772 3.461024,1.913092 0.87897,1.671423 1.006039,2.61109 1.006039,7.439687 0,4.828597 -0.127073,5.768294 -1.006039,7.439716 -0.844193,1.60532 -1.400989,1.913064 -3.461024,1.913064 -2.004252,0 -2.666123,-0.345332 -3.604978,-1.881014 z m 6.432568,-1.23657 c 0.637573,-1.212385 0.819737,-2.597981 0.819737,-6.235196 0,-6.138398 -0.787521,-7.793973 -3.707445,-7.793973 -1.67486,0 -2.268395,0.381122 -3.122305,2.004912 -0.942315,1.791875 -1.034134,2.468103 -0.864206,6.364662 0.241625,5.540616 1.183103,7.218402 4.05055,7.218402 1.457443,0 2.227483,-0.425103 2.823669,-1.558807 z m 8.812169,8.615957 c -0.450856,-0.350898 -1.188619,-1.41685 -1.639474,-2.368801 -0.750458,-1.584552 -0.819736,-2.827367 -0.819736,-14.705721 V 51.47514 h 2.04934 2.049342 l 0.204935,11.30128 0.204933,11.30128 1.381679,-7.794002 c 1.9028133,-10.733662 2.445505,-12.75457 3.7765887,-14.063487 2.0925403,-2.0577 4.325955,-1.183488 5.7965948,2.268881 0.5757509,1.351602 0.7098588,3.30184 0.7172697,10.430661 0.00496,4.822529 0.14744421,8.763893 0.31651391,8.758591 0.1690712,-0.0059 1.22960479,-5.003192 2.35674379,-11.106418 L 3.5968042,51.47514 5.7486133,51.23948 c 1.6126188,-0.176451 2.1518076,0.03299 2.1518076,0.836094 0,0.589446 -1.1066443,6.807704 -2.4592095,13.818341 -1.3525653,7.010667 -2.4592096,12.865006 -2.4592096,13.009672 0,0.854564 -2.85195658,3.352319 -3.83050829,3.354764 -1.50902361,0.0029 -3.35754211,-2.093214 -3.92206201,-4.44926 -0.2446368,-1.02097 -0.444794,-5.522499 -0.444794,-10.00335 0,-4.48085 -0.1469329,-8.147022 -0.3265087,-8.147022 -0.1795803,0 -1.053877,4.248489 -1.9428824,9.441064 -1.2359531,7.219079 -1.8899901,9.878892 -2.7789504,11.30128 -1.190335,1.904626 -3.007552,2.349996 -4.583562,1.123394 z m 4.037517,-2.575623 c 0.674062,-1.171262 1.5146023,-4.730238 2.5310278,-10.716724 1.6984656,-10.003526 2.2520209,-11.736044 3.2477212,-10.16463 0.5031613,0.794059 0.635373,2.779352 0.635373,9.540631 0,8.397411 0.01972,8.575364 1.1980774,10.816143 1.2811932,2.436289 2.26438901,2.796054 3.86096059,1.412756 C 1.9578506,78.71556 2.3298628,77.310993 4.8355657,64.084572 L 6.9290773,53.033947 5.7358719,52.784146 C 5.0796092,52.646874 4.459515,52.692536 4.3578842,52.885775 4.2562472,53.079017 3.29512,58.016489 2.2220324,63.857926 0.07911208,75.523066 -0.32257479,76.823529 -1.3042433,75.274296 -1.8055782,74.483095 -1.9364174,72.455649 -1.9364174,65.478239 v -8.798358 l -1.2610517,-2.017785 c -1.3839533,-2.214414 -2.2697985,-2.476321 -3.823263,-1.130375 -1.192812,1.03346 -1.7287276,3.057401 -3.4797859,13.141759 -1.524789,8.781274 -1.802936,9.730838 -2.66591,9.101124 -0.55999,-0.408636 -0.656168,-2.138885 -0.656168,-11.804533 v -11.32576 h -1.43454 -1.434538 v 11.75095 11.750921 l 1.198076,2.278248 c 1.476716,2.808073 3.255075,3.007265 4.683849,0.524581 z m 21.624362,2.224784 C 8.9842159,79.244529 8.7502014,77.284246 8.7346809,63.750671 L 8.7201193,51.085446 h 2.0493397 2.049342 v 11.30128 c 0,6.215695 0.144331,11.301251 0.320724,11.301251 0.176399,0 1.03188,-4.108831 1.901073,-9.130787 1.891723,-10.929821 2.94368,-13.471744 5.575159,-13.471744 1.400476,0 1.965558,0.482162 3.105539,2.649944 l 1.393553,2.649945 v 8.807225 c 0,4.923362 0.154291,8.480658 0.349876,8.06675 0.192431,-0.407221 1.231003,-5.562945 2.307936,-11.45714 L 29.73072,51.085446 h 1.971491 c 1.084322,0 2.070225,0.303767 2.190898,0.67505 0.120675,0.371312 -0.873863,6.421368 -2.210081,13.444642 -2.661118,13.987045 -3.774106,17.056218 -6.185131,17.056218 -1.60269,0 -3.500777,-1.879323 -4.140843,-4.099893 -0.276731,-0.960082 -0.60505,-5.603597 -0.729597,-10.318959 l -0.22645,-8.573391 -1.786855,10.000935 c -1.552891,8.691457 -1.955365,10.196326 -3.073832,11.493225 -1.489166,1.726703 -3.325543,1.886186 -4.725746,0.410433 z m 4.017702,-1.604967 c 0.964371,-0.948298 1.396737,-2.510492 2.642491,-9.547612 1.783382,-10.074136 2.355184,-12.310791 3.147248,-12.310791 0.477342,0 0.64628,1.821421 0.831324,8.963056 0.264002,10.188962 0.441815,11.30617 2.051351,12.888896 3.132489,3.080337 4.344836,0.699441 7.158278,-14.057979 1.225861,-6.430028 2.231209,-11.976241 2.234107,-12.324901 0.0029,-0.34866 -0.574992,-0.524021 -1.284201,-0.389694 -1.268681,0.240374 -1.32326,0.426428 -3.385112,11.545483 -1.748686,9.430253 -2.230742,11.30128 -2.911678,11.30128 -0.759648,0 -0.8302,-0.664621 -1.020972,-9.617986 -0.199431,-9.359672 -0.235818,-9.668417 -1.354928,-11.496112 -1.474102,-2.407479 -3.305568,-2.43947 -4.546659,-0.07954 -0.555528,1.056378 -1.582974,5.479227 -2.489543,10.716724 -1.727118,9.978046 -2.278282,11.683934 -3.269545,10.11956 -0.518064,-0.81759 -0.635373,-2.999719 -0.635373,-11.818875 V 52.644105 H 10.769498 9.5398935 v 11.75095 11.75092 l 1.1980775,2.278249 c 1.333822,2.536356 2.381119,2.829105 4.094344,1.144397 z m 23.398356,0.986299 c -2.754576,-2.689683 -3.79783,-6.982123 -3.584263,-14.747257 0.202699,-7.36996 1.080579,-10.549611 3.59364,-13.016035 2.432384,-2.387212 7.486678,-2.226933 9.262132,0.293692 2.452275,3.481591 2.819601,5.251785 2.819601,13.587925 0,8.336169 -0.367326,10.106363 -2.819601,13.587924 -1.775226,2.520348 -6.827267,2.680391 -9.271509,0.293692 z m 8.901532,-1.875328 c 3.552829,-4.93871 3.557941,-19.067328 0.0087,-24.000293 -1.691939,-2.351539 -5.788696,-2.665233 -8.209859,-0.628654 -2.263076,1.903607 -3.161786,4.803794 -3.466084,11.185217 -0.356448,7.475066 1.316821,13.424523 4.200263,14.93443 0.450854,0.23625 2.058815,0.353903 3.573245,0.261878 2.020561,-0.122838 3.057024,-0.589387 3.893747,-1.75249 z m -7.956472,-4.534552 c -1.061266,-1.735876 -1.149994,-2.31236 -1.149994,-7.471766 0,-5.159405 0.08873,-5.735861 1.149994,-7.471766 0.938854,-1.535653 1.600726,-1.881013 3.604977,-1.881013 2.060035,0 2.616833,0.307772 3.461024,1.913092 0.878972,1.671423 1.006041,2.61109 1.006041,7.439687 0,4.828597 -0.127074,5.768294 -1.006041,7.439716 -0.844191,1.60532 -1.400989,1.913064 -3.461024,1.913064 -2.004251,0 -2.666123,-0.345332 -3.604977,-1.881014 z m 6.432569,-1.23657 c 0.637573,-1.212385 0.819736,-2.597981 0.819736,-6.235196 0,-6.096068 -0.793709,-7.793973 -3.643407,-7.793973 -3.061942,0 -3.939155,1.73564 -3.939155,7.793973 0,4.119023 0.139714,5.029262 0.96761,6.304068 1.358103,2.091223 4.680035,2.051749 5.795216,-0.06893 z m 20.785555,8.869116 c -0.160689,-0.305534 -0.292146,-5.593905 -0.292146,-11.751952 0,-12.669348 0.42066,-15.766606 2.406571,-17.719437 3.395258,-3.338721 5.58229,-0.418563 7.419532,9.90667 2.322501,13.052356 2.398547,13.146562 2.436655,3.018518 l 0.03331,-8.846168 1.393546,-2.649945 c 2.258585,-4.294884 5.535182,-3.41101 6.965288,1.878893 0.836193,3.093045 4.756955,24.135885 4.756955,25.530731 0,0.954042 -0.433471,1.149865 -2.129915,0.96222 L 87.25375,81.871573 85.226029,70.747333 C 84.11078,64.628995 83.131294,59.750527 83.049393,59.906269 c -0.08195,0.15583 -0.199882,4.061021 -0.262171,8.678407 -0.11293,8.369132 -0.117423,8.402242 -1.438069,10.646232 -1.030296,1.750516 -1.721168,2.250971 -3.107496,2.250971 -2.885431,0 -3.62149,-1.701204 -5.651937,-13.062784 l -1.774504,-9.92947 -0.204931,11.690974 -0.204947,11.690974 -1.859659,0.230653 c -1.022814,0.126962 -1.991131,-0.02062 -2.151804,-0.32474 z m 3.488174,-12.571255 c 0.107044,-10.846927 0.159047,-11.496113 0.921224,-11.496113 0.666674,0 1.115885,1.701941 2.57135,9.742474 1.043944,5.767115 2.112627,10.299016 2.619031,11.106418 1.308965,2.08701 3.696978,1.776321 4.888769,-0.636048 0.89949,-1.820684 1.001282,-2.781443 1.135512,-10.716724 0.235124,-13.900675 1.114645,-13.326547 3.995693,2.608292 l 1.968529,10.887813 h 1.399682 c 1.169902,0 1.352232,-0.223877 1.110648,-1.363944 -0.158969,-0.750167 -1.097636,-5.665782 -2.085921,-10.923575 -0.9883,-5.257824 -2.078748,-10.596037 -2.423208,-11.862742 -1.164186,-4.28101 -3.496725,-5.156106 -5.410912,-2.02998 -1.112941,1.817562 -1.15661,2.175471 -1.354927,11.106418 -0.188449,8.48602 -0.270877,9.245436 -1.024674,9.440887 -0.70441,0.182637 -1.079232,-1.178597 -2.664141,-9.675399 -2.124044,-11.38709 -2.983242,-13.321392 -5.515941,-12.417869 -1.074152,0.383184 -1.714181,1.228116 -2.289582,3.022612 -0.692746,2.160478 -0.79886,3.963458 -0.800177,13.597174 l -0.0015,11.106418 h 1.423584 1.423569 z m 28.429114,12.38252 c -0.203816,-0.627093 3.073237,-18.882776 4.507277,-25.10884 1.12047,-4.864712 3.83176,-6.671875 6.32765,-4.217529 1.77465,1.745096 2.04116,3.359518 2.04116,12.365081 0,4.503887 0.14809,8.363005 0.32917,8.575778 0.18104,0.212683 1.02569,-3.637422 1.87699,-8.555953 0.8513,-4.91856 1.94814,-9.818621 2.43743,-10.88905 1.09176,-2.38845 3.47166,-3.249642 5.20579,-1.883724 2.14044,1.685916 2.44666,3.923484 2.44666,17.877566 v 12.509058 h -2.04934 -2.04935 V 70.960088 c 0,-6.215696 -0.14438,-11.30128 -0.32073,-11.30128 -0.17639,0 -1.01257,3.997363 -1.85817,8.883019 -1.85354,10.709183 -2.79944,12.940152 -5.48649,12.940152 -3.73945,0 -4.63066,-2.722587 -4.63066,-14.146351 0,-4.471188 -0.15398,-7.662563 -0.34986,-7.248154 -0.19245,0.407251 -1.23102,5.562974 -2.30794,11.45717 l -1.95806,10.716712 h -1.97151 c -1.08431,0 -2.069822,-0.302547 -2.190017,-0.672387 z m 5.664477,-12.577382 c 1.74869,-9.430223 2.23074,-11.301251 2.91168,-11.301251 0.75966,0 0.8302,0.664593 1.02098,9.619224 0.19029,8.932125 0.27405,9.725447 1.17253,11.106418 1.31749,2.024943 3.64586,1.937601 4.83193,-0.181164 0.56231,-1.004533 1.5301,-5.113864 2.43212,-10.32703 1.68213,-9.721677 2.23685,-11.418168 3.22408,-9.860127 0.51807,0.817595 0.63538,2.999694 0.63538,11.818849 V 80.70265 h 1.22961 1.2296 V 68.691265 56.679881 l -1.3094,-2.09514 c -1.05841,-1.693516 -1.58328,-2.010627 -2.73822,-1.65422 -0.78586,0.242436 -1.70183,0.960052 -2.03551,1.594568 -0.33368,0.634516 -1.38137,5.468798 -2.32823,10.742882 -1.42393,7.931452 -1.87309,9.632273 -2.59818,9.83827 -0.84213,0.239195 -0.87674,-0.03682 -0.87892,-7.014585 -0.003,-9.310301 -0.49629,-12.753302 -2.04578,-14.276995 -3.15219,-3.099673 -4.35112,-0.769285 -7.18863,13.972758 -1.23179,6.399687 -2.239622,11.9459 -2.239622,12.324901 0,0.379001 0.580266,0.579195 1.289462,0.444868 1.26869,-0.240374 1.32327,-0.426428 3.38512,-11.545513 z m 20.91973,12.250462 c -0.11092,-0.549619 -0.15119,-7.476538 -0.0895,-15.393114 l 0.112,-14.393795 1.94687,-0.237428 1.94688,-0.237722 v 15.630689 15.630647 h -1.85728 c -1.13256,0 -1.93595,-0.389918 -2.05893,-0.999307 z m 3.09646,-14.588657 V 52.644223 h -1.2296 -1.2296 v 14.029169 14.029169 h 1.2296 1.2296 z m 5.73817,13.85478 c -2.55371,-2.456349 -3.48389,-6.155484 -3.48389,-13.85478 0,-7.60839 0.95058,-11.363111 3.50763,-13.854751 1.59563,-1.554829 2.32723,-1.747482 5.91935,-1.558806 l 4.09868,0.215335 v 3.507277 3.507307 l -3.98347,0.389695 c -4.9526,0.484518 -5.40864,1.136738 -5.42913,7.764898 -0.0206,6.656321 0.45116,7.336084 5.42913,7.823077 l 3.98347,0.389694 v 3.507278 3.507307 l -4.09868,0.215335 c -3.58678,0.188528 -4.32905,-0.0059 -5.94309,-1.558777 z m 9.42696,-2.163806 v -2.338194 h -3.66595 c -3.28563,0 -3.78528,-0.195304 -4.81597,-1.882781 -1.06185,-1.738468 -1.14979,-2.311389 -1.1474,-7.475979 0.003,-5.156194 0.0922,-5.739837 1.14999,-7.469998 1.02726,-1.68026 1.53128,-1.876801 4.81338,-1.876801 h 3.66595 v -2.338195 -2.338195 l -3.58635,0.01767 c -6.44158,0.03064 -8.51015,3.535852 -8.49933,14.401778 0.0108,10.155882 2.154,13.592049 8.49933,13.622331 l 3.58635,0.01767 z m 19.6818,2.143363 c -2.53999,-2.467691 -3.492,-6.239261 -3.492,-13.834337 0,-10.689299 2.49128,-15.587946 7.92749,-15.587946 5.5026,0 8.03175,4.903979 8.03922,15.587946 0.008,10.805686 -2.4389,15.587964 -7.97428,15.587964 -1.98714,0 -3.16968,-0.460764 -4.50043,-1.753627 z m 7.895,-0.8738 c 1.92992,-1.563726 3.05516,-4.278153 3.56427,-8.598135 1.24742,-10.584696 -1.6503,-18.387388 -6.82969,-18.390334 -2.56045,-0.0015 -4.06616,0.991778 -5.53071,3.648291 -2.07295,3.760112 -2.49016,13.679626 -0.80979,19.254265 1.3471,4.469097 6.45273,6.640786 9.60592,4.085913 z m -6.57031,-4.805031 c -1.21978,-1.624674 -1.91305,-6.395887 -1.56698,-10.78427 0.39016,-4.947547 1.64579,-6.724015 4.75259,-6.724015 2.89791,0 3.97818,1.443215 4.52132,6.040334 0.5,4.231993 -0.0928,9.477532 -1.27707,11.30128 -1.14733,1.766806 -5.15057,1.870585 -6.42986,0.16673 z m 5.64798,-1.154177 c 1.14294,-1.163162 1.76003,-6.281091 1.21845,-10.105656 -0.51943,-3.668234 -1.35214,-4.689646 -3.82328,-4.689646 -2.86613,0 -3.74749,1.833056 -3.74749,7.793973 0,4.131425 0.13988,5.050501 0.96077,6.314584 1.0632,1.637105 4.0801,2.021408 5.39155,0.686745 z"
       id="path41208-6"
       clip-path="url(#clipPath41300)" /></g><g
     inkscape:groupmode="layer"
     id="layer2"
     inkscape:label="Layer 2"
     transform="translate(3.702073,6.3906576)" /></svg>
