<?xml version="1.0" encoding="UTF-8" standalone="no"?>
<!-- Created with Inkscape (http://www.inkscape.org/) -->

<svg
   width="269.08783mm"
   height="88.356659mm"
   viewBox="0 0 269.08783 88.356658"
   version="1.1"
   id="svg1"
   xml:space="preserve"
   inkscape:version="1.4.2 (f4327f4, 2025-05-13)"
   sodipodi:docname="glowworm-logo-colour-simple.svg"
   inkscape:export-filename="glowworm-logo-export.svg"
   inkscape:export-xdpi="96"
   inkscape:export-ydpi="96"
   xmlns:inkscape="http://www.inkscape.org/namespaces/inkscape"
   xmlns:sodipodi="http://sodipodi.sourceforge.net/DTD/sodipodi-0.dtd"
   xmlns:xlink="http://www.w3.org/1999/xlink"
   xmlns="http://www.w3.org/2000/svg"
   xmlns:svg="http://www.w3.org/2000/svg"><sodipodi:namedview
     id="namedview1"
     pagecolor="#ffffff"
     bordercolor="#000000"
     borderopacity="0.25"
     inkscape:showpageshadow="2"
     inkscape:pageopacity="0.0"
     inkscape:pagecheckerboard="0"
     inkscape:deskcolor="#d1d1d1"
     inkscape:document-units="mm"
     inkscape:zoom="1.214972"
     inkscape:cx="512.35748"
     inkscape:cy="224.285"
     inkscape:window-width="1920"
     inkscape:window-height="1009"
     inkscape:window-x="-8"
     inkscape:window-y="-8"
     inkscape:window-maximized="1"
     inkscape:current-layer="layer1" /><defs
     id="defs1"><linearGradient
       id="linearGradient41211"
       inkscape:collect="always"><stop
         style="stop-color:#be36fc;stop-opacity:1;"
         offset="0.3775216"
         id="stop41211" /><stop
         style="stop-color:#13d0e5;stop-opacity:1;"
         offset="0.48532"
         id="stop41213" /><stop
         style="stop-color:#04ee31;stop-opacity:1;"
         offset="0.57253093"
         id="stop41212" /></linearGradient><filter
       inkscape:label="Eroded Metal"
       inkscape:menu="Materials"
       inkscape:menu-tooltip="Eroded metal texture with ridges, grooves, holes and bumps"
       style="color-interpolation-filters:sRGB"
       id="filter41211"
       x="-0.06213393"
       y="-0.88933771"
       width="1.1242679"
       height="2.7786754"><feGaussianBlur
         result="result0"
         in="SourceGraphic"
         stdDeviation="1"
         id="feGaussianBlur41208" /><feTurbulence
         type="turbulence"
         baseFrequency="0.057"
         seed="4"
         numOctaves="4"
         result="result1"
         id="feTurbulence41208" /><feDisplacementMap
         xChannelSelector="R"
         in2="result1"
         result="result91"
         id="feDisplacementMap41208"
         scale="0"
         yChannelSelector="A" /><feComposite
         result="result2"
         operator="out"
         in="result0"
         in2="result91"
         id="feComposite41208" /><feComposite
         k1="0.1"
         k3="1.2"
         in2="result2"
         in="SourceAlpha"
         operator="arithmetic"
         result="result5"
         id="feComposite41209"
         k2="0"
         k4="0" /><feBlend
         result="fbSourceGraphic"
         mode="multiply"
         in2="result5"
         id="feBlend41209" /><feGaussianBlur
         stdDeviation="3"
         in="fbSourceGraphic"
         result="result0"
         id="feGaussianBlur41209" /><feSpecularLighting
         in="result0"
         result="result1"
         lighting-color="#fee65d"
         surfaceScale="3"
         specularConstant="0.40000001"
         specularExponent="15"
         id="feSpecularLighting41209"><fePointLight
           x="-5000"
           y="-10000"
           z="20000"
           id="fePointLight41209" /></feSpecularLighting><feComposite
         in2="fbSourceGraphic"
         in="result1"
         result="result2"
         operator="in"
         id="feComposite41210" /><feComposite
         k1="-1"
         in="fbSourceGraphic"
         result="result4"
         operator="arithmetic"
         k2="2.5"
         k3="3.5"
         in2="result2"
         id="feComposite41211"
         k4="0" /><feBlend
         mode="multiply"
         in2="result4"
         id="feBlend41211" /></filter><linearGradient
       inkscape:collect="always"
       xlink:href="#linearGradient41211"
       id="linearGradient41212"
       x1="145.24991"
       y1="18.872652"
       x2="61.036091"
       y2="170.7984"
       gradientUnits="userSpaceOnUse" /><filter
       inkscape:label="Flex Metal"
       inkscape:menu="Materials"
       inkscape:menu-tooltip="Bright, polished uneven metal casting, colorizable"
       height="3.2233443"
       y="-1.1116721"
       width="1.1553348"
       x="-0.077667412"
       style="color-interpolation-filters:sRGB;"
       id="filter41220"><feGaussianBlur
         stdDeviation="5"
         result="result8"
         id="feGaussianBlur41217" /><feTurbulence
         seed="25"
         result="result7"
         type="turbulence"
         numOctaves="2"
         baseFrequency="0.03"
         id="feTurbulence41217" /><feComposite
         in2="result8"
         result="result6"
         operator="in"
         in="result8"
         id="feComposite41217" /><feDisplacementMap
         in="result7"
         in2="result6"
         xChannelSelector="A"
         yChannelSelector="A"
         scale="120"
         result="result4"
         id="feDisplacementMap41217" /><feComposite
         in2="result4"
         result="result2"
         operator="arithmetic"
         in="SourceGraphic"
         k1="2"
         k3="2.5"
         k2="0.25"
         id="feComposite41218" /><feComposite
         result="fbSourceGraphic"
         in="result2"
         operator="in"
         in2="SourceGraphic"
         id="feComposite41219" /><feBlend
         mode="screen"
         in2="fbSourceGraphic"
         result="result91"
         id="feBlend41219" /><feBlend
         mode="multiply"
         in2="result91"
         id="feBlend41220" /></filter></defs><g
     inkscape:label="Layer 1"
     inkscape:groupmode="layer"
     id="layer1"
     transform="translate(79.092349,-22.782777)"><path
       style="fill:url(#linearGradient41212);fill-opacity:1;stroke-width:0.99991219;stroke-dasharray:none;stroke:none;stroke-opacity:1;filter:url(#filter41220)"
       d="m 106.19154,98.610614 -2.77812,-1.7056 -0.0791,1.5882 -0.0791,1.588186 -1.24378,-0.0801 -1.24378,-0.0801 v -5.15938 -5.15937 l 3.03188,-0.0753 c 1.88514,-0.0468 3.31458,0.0418 3.77928,0.23425 1.24474,0.51559 1.78779,1.44876 1.78779,3.07211 0,1.23867 -0.10807,1.54796 -0.77339,2.21328 -0.48514,0.48514 -1.05218,0.77529 -1.52136,0.77846 -0.62799,0.004 -0.50314,0.11681 0.77848,0.70178 1.02837,0.46939 1.5743,0.88744 1.67314,1.28124 0.20608,0.82112 0.0272,2.32005 -0.28916,2.42239 -0.14552,0.0471 -1.51474,-0.68192 -3.04271,-1.62 z m 2.90728,0.18609 c -0.003,-0.93816 -0.0894,-1.03958 -1.5875,-1.86246 -0.8714,-0.47864 -1.58436,-0.96581 -1.58436,-1.08259 0,-0.11679 0.47194,-0.35373 1.04876,-0.52655 1.28642,-0.38542 1.86166,-1.15532 1.86166,-2.49164 0,-2.25889 -0.99087,-2.83416 -4.88166,-2.83416 h -2.79126 v 4.7625 4.7625 h 0.79375 0.79375 v -1.5875 c 0,-1.3363 0.0733,-1.58717 0.46302,-1.58542 0.25466,0.001 1.65365,0.76308 3.10886,1.69319 1.4552,0.93011 2.67559,1.70308 2.71197,1.71771 0.0364,0.0146 0.0647,-0.41988 0.063,-0.96558 z m -6.2426,-5.20317 c -0.079,-0.20599 -0.10508,-0.71201 -0.0578,-1.12448 0.0839,-0.73308 0.1266,-0.75173 1.89562,-0.82873 1.96216,-0.0854 2.55588,0.17397 2.55588,1.11659 0,0.95374 -0.5191,1.21114 -2.44247,1.21114 -1.31463,0 -1.84666,-0.10212 -1.95119,-0.37452 z m 3.7322,-0.8161 c 0,-0.46432 -0.20265,-0.53882 -1.65365,-0.60794 -1.62395,-0.0774 -1.65364,-0.0664 -1.65364,0.60794 0,0.67438 0.0297,0.68529 1.65364,0.60794 1.451,-0.0691 1.65365,-0.14362 1.65365,-0.60794 z m 59.92812,6.22479 -2.77812,-1.27561 -0.1323,1.09729 -0.13229,1.09728 -1.25677,0.0806 -1.25677,0.0806 V 97.8314 c 0,-1.23805 0.12921,-2.53459 0.28713,-2.88119 0.46647,-1.02379 1.58629,-1.51138 3.47109,-1.51138 1.79763,0 2.53647,-0.35508 2.02392,-0.97267 -0.20702,-0.24944 -1.08098,-0.35025 -3.03641,-0.35025 h -2.74573 v -1.32292 -1.32291 h 3.06887 c 2.2466,0 3.3045,0.11181 3.9483,0.41732 0.96618,0.45848 1.71466,1.73863 1.71309,2.92996 -0.001,1.05607 -0.93758,2.47431 -1.86419,2.82407 -0.42936,0.16206 -0.78065,0.36487 -0.78065,0.45068 0,0.0858 0.62508,0.44667 1.38906,0.80189 l 1.38906,0.64587 v 1.30087 c 0,0.71547 -0.11906,1.33148 -0.26458,1.36893 -0.14552,0.0374 -1.51474,-0.50592 -3.04271,-1.20751 z m -3.43958,-0.66854 c 0,-0.83217 0.10921,-1.19063 0.36275,-1.19063 0.19952,0 1.57117,0.53579 3.04812,1.19063 1.47695,0.65484 2.75,1.19062 2.82901,1.19062 0.079,0 0.10634,-0.37651 0.0607,-0.83668 -0.076,-0.76731 -0.24614,-0.90595 -2.05131,-1.67186 -2.19693,-0.93213 -2.66438,-1.45966 -1.2948,-1.4612 1.14333,-0.001 2.54098,-0.8631 2.89047,-1.78231 0.38411,-1.01029 0.091,-2.24943 -0.71021,-3.00303 -0.62037,-0.58346 -0.93467,-0.64518 -3.70011,-0.72654 l -3.02216,-0.0889 v 0.81652 0.81651 h 2.62693 c 2.03535,0 2.72057,0.0936 3.04271,0.41578 0.52976,0.52976 0.52457,0.87755 -0.0221,1.48162 -0.34387,0.37998 -0.83107,0.48385 -2.26931,0.48385 -1.67143,0 -1.89899,0.0676 -2.60482,0.7734 -0.71872,0.71871 -0.7734,0.91515 -0.7734,2.77813 v 2.00472 h 0.79375 c 0.76435,0 0.79375,-0.0441 0.79375,-1.19062 z m -134.941525,1.12448 c -1.745591,-0.88479 -2.244928,-1.93369 -2.244928,-4.71568 0,-2.02049 0.07792,-2.38602 0.713248,-3.34607 1.013164,-1.53099 2.301858,-1.96899 5.504763,-1.87093 l 2.513239,0.0769 v 1.19062 1.19063 l -2.571456,0.13229 c -3.216431,0.16547 -3.513961,0.39228 -3.513961,2.67866 0,2.08587 0.606008,2.67687 2.62417,2.55915 1.152681,-0.0672 1.356347,-0.16111 1.42703,-0.65774 0.07247,-0.50918 -0.05563,-0.58924 -1.058333,-0.66146 l -1.140784,-0.0821 -0.08064,-1.25677 -0.08064,-1.25677 h 1.581697 c 1.3117,0 1.719333,0.11581 2.388006,0.67846 1.81076,1.52366 1.529145,4.48935 -0.527278,5.55277 -1.186693,0.613656 -4.127474,0.501026 -5.534128,-0.21196 z m 5.252046,-0.30816 c 0.678628,-0.35093 1.110732,-0.96373 1.472238,-2.08788 0.212486,-0.66075 -0.452552,-2.14263 -1.194927,-2.66261 -0.338793,-0.2373 -1.125276,-0.43146 -1.74774,-0.43146 -1.076201,0 -1.131754,0.0382 -1.131754,0.77854 0,0.72678 0.07476,0.78395 1.124479,0.8599 1.01262,0.0733 1.132961,0.15533 1.209744,0.82496 0.13304,1.16027 -0.345438,1.50535 -2.087282,1.50535 -1.246849,0 -1.681799,-0.12167 -2.282707,-0.63855 -0.685082,-0.58928 -0.742359,-0.78498 -0.742359,-2.53645 0,-1.75147 0.05728,-1.94716 0.742359,-2.53645 0.665086,-0.57208 0.988685,-0.63855 3.108854,-0.63855 h 2.366496 v -0.79375 -0.79375 h -2.243604 c -4.199033,0 -5.565857,1.17155 -5.556352,4.7625 0.0066,2.49478 0.517352,3.54666 2.062815,4.24832 1.328872,0.60333 3.863599,0.67569 4.89974,0.13988 z m 5.665265,0.72135 c -0.970276,-0.19446 -2.366073,-1.71118 -2.693383,-2.92672 -0.167609,-0.62245 -0.26648,-2.48229 -0.224705,-4.22687 l 0.0746,-3.11533 1.235474,-0.0798 1.235474,-0.0798 0.08744,3.44452 c 0.108981,4.29296 0.137833,4.33365 3.204661,4.52024 l 2.174448,0.13229 v 1.19062 1.19063 l -2.248958,0.0348 c -1.236927,0.0192 -2.517201,-0.0189 -2.845052,-0.0846 z m 4.697135,-1.11278 v -0.76574 l -2.111022,-0.0959 c -3.124762,-0.1419 -3.288124,-0.36274 -3.40066,-4.59698 l -0.08773,-3.30069 h -0.772171 -0.772172 v 3.03736 c 0,3.4139 0.39139,4.84339 1.551448,5.66641 0.919303,0.65222 1.392507,0.75404 3.674073,0.79054 l 1.918229,0.0307 z m 4.101042,1.12024 c -2.031112,-0.55208 -3.189509,-2.73611 -2.982889,-5.62389 0.164702,-2.30194 0.774681,-3.40411 2.327484,-4.20554 1.570182,-0.81039 4.832894,-0.75598 5.979008,0.0997 1.583024,1.1819 1.820146,1.78283 1.820146,4.61271 0,2.22043 -0.0809,2.71538 -0.545514,3.33769 -1.073294,1.43756 -1.793967,1.77017 -4.00707,1.84937 -1.134099,0.0406 -2.300124,0.009 -2.591165,-0.07 z m 4.624934,-0.81794 c 1.516218,-0.76177 2.12201,-1.94386 2.121529,-4.13976 -7.18e-4,-3.28167 -1.174412,-4.68762 -4.067035,-4.8718 -3.373982,-0.21484 -5.173529,1.39523 -5.187159,4.64099 -0.01003,2.38884 1.082207,4.21696 2.772314,4.64013 1.248413,0.31258 3.475747,0.17488 4.360351,-0.26956 z m -4.676326,-1.76262 c -0.685082,-0.58928 -0.742358,-0.78498 -0.742358,-2.53645 0,-1.75147 0.05728,-1.94716 0.742358,-2.53645 0.606062,-0.52131 1.033321,-0.63855 2.327131,-0.63855 1.32982,0 1.68925,0.10448 2.234204,0.64944 0.567404,0.5674 0.649431,0.88639 0.649431,2.52556 0,1.63917 -0.08203,1.95817 -0.649431,2.52557 -0.544954,0.54496 -0.904384,0.64943 -2.234204,0.64943 -1.29381,0 -1.721069,-0.11723 -2.327131,-0.63855 z m 4.152433,-0.41978 c 0.411574,-0.41157 0.529167,-0.88194 0.529167,-2.11667 0,-2.08381 -0.508371,-2.64583 -2.393277,-2.64583 -1.081177,0 -1.464323,0.12938 -2.01555,0.68061 -0.608295,0.60829 -0.667567,0.83785 -0.557873,2.16062 0.155977,1.88088 0.763732,2.45044 2.614762,2.45044 0.940827,0 1.437913,-0.14431 1.822771,-0.52917 z m 5.688542,2.92487 c -0.291042,-0.11912 -0.767292,-0.48098 -1.058334,-0.80414 -0.484445,-0.53791 -0.529166,-0.95981 -0.529166,-4.99217 v -4.4046 h 1.322916 1.322917 l 0.132292,3.83646 0.132291,3.83646 0.891919,-2.64584 c 1.228328,-3.64377 1.578653,-4.32981 2.437911,-4.77415 1.350803,-0.69853 2.792545,-0.40176 3.741891,0.77022 0.371666,0.45883 0.458237,1.12088 0.463021,3.54091 0.0032,1.63711 0.09518,2.97509 0.20432,2.97329 0.109141,-0.002 0.79375,-1.69844 1.521355,-3.77031 l 1.322916,-3.76704 1.389063,-0.08 c 1.040998,-0.0599 1.389062,0.0112 1.389062,0.28383 0,0.2001 -0.714375,2.31102 -1.5875,4.69093 -0.873125,2.37992 -1.5875,4.3673 -1.5875,4.41641 0,0.2901 -1.841031,1.138016 -2.472718,1.138846 -0.974124,0.001 -2.167403,-0.710586 -2.531819,-1.510396 -0.157921,-0.34659 -0.287129,-1.87473 -0.287129,-3.39585 0,-1.52112 -0.09485,-2.76568 -0.210772,-2.76568 -0.115925,0 -0.680312,1.44224 -1.254194,3.20497 -0.797848,2.45067 -1.22005,3.3536 -1.793903,3.83646 -0.7684,0.646566 -1.941473,0.797756 -2.958839,0.38136 z m 2.606349,-0.87435 c 0.435129,-0.39761 0.977725,-1.60578 1.633861,-3.63802 1.096415,-3.39591 1.453753,-3.98405 2.09651,-3.4506 0.324807,0.26956 0.410154,0.94351 0.410154,3.23877 0,2.85068 0.01273,2.91109 0.773398,3.67177 0.827052,0.82705 1.461737,0.94918 2.492376,0.47959 0.835603,-0.38073 1.075749,-0.85754 2.693262,-5.34753 l 1.35143,-3.75137 -0.770253,-0.0848 c -0.423639,-0.0466 -0.82393,-0.0311 -0.889536,0.0345 -0.06561,0.0656 -0.686049,1.74173 -1.378762,3.72473 -1.383325,3.95998 -1.642627,4.40145 -2.276326,3.87553 -0.323628,-0.26859 -0.408089,-0.95685 -0.408089,-3.32548 v -2.98679 l -0.81405,-0.68498 c -0.893387,-0.75173 -1.465229,-0.84064 -2.468041,-0.38373 -0.769999,0.35083 -1.11595,1.0379 -2.246315,4.46125 -0.984301,2.98099 -1.163854,3.30334 -1.720932,3.08957 -0.361492,-0.13872 -0.423578,-0.72609 -0.423578,-4.0073 v -3.84477 h -0.926042 -0.926041 v 3.98911 3.9891 l 0.773397,0.7734 c 0.953268,0.95326 2.101257,1.02088 3.023577,0.17808 z m 13.959231,0.75525 c -1.181581,-0.6549 -1.332645,-1.32036 -1.342664,-5.91462 l -0.0094,-4.29948 h 1.322916 1.322917 v 3.83646 c 0,2.11005 0.09317,3.83645 0.207038,3.83645 0.113871,0 0.666112,-1.39483 1.227204,-3.09964 1.221169,-3.71036 1.900242,-4.57327 3.598947,-4.57327 0.904053,0 1.268832,0.16368 2.004727,0.89958 l 0.899584,0.89958 v 2.9898 c 0,1.67134 0.0996,2.87894 0.225856,2.73843 0.124221,-0.13824 0.794653,-1.88846 1.489848,-3.88937 l 1.263991,-3.63802 h 1.272662 c 0.699965,0 1.336398,0.10312 1.414296,0.22916 0.0779,0.12605 -0.564107,2.17987 -1.426679,4.56407 -1.717839,4.7482 -2.436309,5.790096 -3.992704,5.790096 -1.034589,0 -2.259866,-0.637976 -2.673049,-1.391796 -0.178639,-0.32592 -0.39058,-1.90226 -0.470979,-3.50299 l -0.146181,-2.91042 -1.153473,3.39503 c -1.002442,2.9505 -1.262252,3.46136 -1.984259,3.90162 -0.961305,0.586166 -2.146746,0.640306 -3.050623,0.13933 z m 2.593558,-0.54484 c 0.622533,-0.32192 0.901639,-0.85224 1.705814,-3.24114 1.151231,-3.41988 1.520348,-4.17916 2.031651,-4.17916 0.30814,0 0.417195,0.61832 0.536647,3.0427 0.170422,3.45886 0.285206,3.83812 1.324214,4.37541 2.022124,1.045686 2.804733,0.23744 4.620902,-4.77228 0.791333,-2.18281 1.440318,-4.06559 1.442189,-4.18395 0.0019,-0.11836 -0.371176,-0.17789 -0.828994,-0.13229 -0.818975,0.0816 -0.854207,0.14476 -2.1852,3.91936 -1.128834,3.2013 -1.440017,3.83646 -1.879583,3.83646 -0.490378,0 -0.535921,-0.22562 -0.659071,-3.26503 -0.128739,-3.17734 -0.152228,-3.28215 -0.87465,-3.9026 -0.951581,-0.81727 -2.133852,-0.82813 -2.935017,-0.027 -0.358611,0.35861 -1.021861,1.86004 -1.607081,3.63802 -1.114911,3.38726 -1.470705,3.96636 -2.110598,3.4353 -0.334427,-0.27755 -0.410154,-1.01832 -0.410154,-4.01217 v -3.67177 h -0.79375 -0.79375 v 3.98911 3.9891 l 0.773398,0.7734 c 0.861026,0.86102 1.53709,0.9604 2.643033,0.38849 z m 15.104402,0.33482 c -1.778169,-0.91307 -2.451623,-2.37023 -2.313759,-5.00627 0.130849,-2.50189 0.697549,-3.58129 2.319812,-4.41857 1.570183,-0.81039 4.832895,-0.75598 5.979008,0.0997 1.583024,1.1819 1.820145,1.78283 1.820145,4.61271 0,2.82989 -0.237121,3.43082 -1.820145,4.61271 -1.145966,0.855586 -4.407223,0.909916 -5.985061,0.0997 z m 5.746229,-0.63662 c 2.293467,-1.67655 2.296767,-6.47281 0.0056,-8.14741 -1.092202,-0.79828 -3.736792,-0.90477 -5.299732,-0.21341 -1.460889,0.64622 -2.041036,1.63075 -2.23747,3.79706 -0.230099,2.53757 0.850051,4.55724 2.711407,5.06981 0.291041,0.0802 1.329032,0.12014 2.306646,0.0889 1.304338,-0.0417 1.973409,-0.20008 2.513541,-0.59492 z m -5.136162,-1.53935 c -0.685082,-0.58928 -0.742359,-0.78498 -0.742359,-2.53645 0,-1.75147 0.05728,-1.94716 0.742359,-2.53645 0.606061,-0.52131 1.033321,-0.63855 2.32713,-0.63855 1.32982,0 1.689251,0.10448 2.234204,0.64944 0.567405,0.5674 0.649432,0.88639 0.649432,2.52556 0,1.63917 -0.08203,1.95817 -0.649432,2.52557 -0.544953,0.54496 -0.904384,0.64943 -2.234204,0.64943 -1.293809,0 -1.721069,-0.11723 -2.32713,-0.63855 z m 4.152433,-0.41978 c 0.411574,-0.41157 0.529166,-0.88194 0.529166,-2.11667 0,-2.06944 -0.512365,-2.64583 -2.351938,-2.64583 -1.976583,0 -2.542853,0.5892 -2.542853,2.64583 0,1.39829 0.09019,1.70729 0.624624,2.14005 0.8767,0.70991 3.021115,0.69651 3.741001,-0.0234 z m 13.417754,3.01081 c -0.10373,-0.10372 -0.18859,-1.89897 -0.18859,-3.98945 0,-4.30088 0.27155,-5.35231 1.55352,-6.01524 2.19175,-1.1334 3.60355,-0.14209 4.78955,3.36303 1.49925,4.4309 1.54834,4.46288 1.57294,1.0247 l 0.0215,-3.00302 0.89958,-0.89958 c 1.45799,-1.45799 3.57314,-1.15794 4.49632,0.63783 0.53979,1.05 3.07077,8.19344 3.07077,8.66695 0,0.32387 -0.27982,0.390346 -1.37493,0.326646 l -1.37492,-0.08 -1.30896,-3.77636 c -0.71993,-2.077 -1.35222,-3.7331 -1.40509,-3.68023 -0.0529,0.0529 -0.12903,1.3786 -0.16924,2.94607 -0.0729,2.84108 -0.0758,2.85232 -0.92832,3.61409 -0.66509,0.59425 -1.11107,0.76414 -2.00599,0.76414 -1.86264,0 -2.33779,-0.57751 -3.64851,-4.43444 l -1.1455,-3.37077 -0.13229,3.96875 -0.1323,3.96875 -1.20047,0.0783 c -0.66026,0.0431 -1.28534,-0.007 -1.38906,-0.11024 z m 2.25173,-4.26758 c 0.0691,-3.68222 0.10267,-3.9026 0.59468,-3.9026 0.43036,0 0.72034,0.57776 1.65989,3.30729 0.6739,1.95777 1.36377,3.49622 1.69067,3.77031 0.84498,0.70848 2.38652,0.60301 3.15586,-0.21592 0.58065,-0.61807 0.64636,-0.94422 0.73301,-3.63802 0.15178,-4.71888 0.71954,-4.52398 2.57935,0.88544 l 1.27075,3.6961 h 0.90354 c 0.75521,0 0.87291,-0.076 0.71696,-0.46302 -0.10262,-0.25466 -0.70856,-1.92337 -1.34653,-3.70824 -0.63798,-1.78488 -1.3419,-3.59705 -1.56426,-4.02706 -0.75152,-1.45328 -2.25725,-1.75035 -3.49292,-0.68912 -0.71844,0.61701 -0.74663,0.73851 -0.87465,3.77031 -0.12165,2.88076 -0.17486,3.13856 -0.66146,3.20491 -0.45472,0.062 -0.69668,-0.4001 -1.71979,-3.28452 -1.37114,-3.86559 -1.92578,-4.52223 -3.56072,-4.21551 -0.6934,0.13008 -1.10656,0.41691 -1.478,1.02609 -0.44719,0.73342 -0.51569,1.34548 -0.51654,4.61585 l -9.9e-4,3.77031 h 0.91897 0.91896 z m 18.35192,4.20351 c -0.13157,-0.21288 1.98387,-6.41016 2.90959,-8.52373 0.7233,-1.65143 2.47353,-2.26491 4.08471,-1.43173 1.14559,0.59241 1.31763,1.14046 1.31763,4.19759 0,1.52894 0.0956,2.839 0.21249,2.91123 0.11687,0.0722 0.66212,-1.2348 1.21166,-2.9045 0.54954,-1.66971 1.25759,-3.33314 1.57344,-3.69652 0.70477,-0.81081 2.24107,-1.10316 3.36051,-0.63947 1.38172,0.57232 1.5794,1.33191 1.5794,6.06892 v 4.246466 h -1.32292 -1.32292 v -3.836456 c 0,-2.11005 -0.0932,-3.83646 -0.20704,-3.83646 -0.11387,0 -0.65365,1.35699 -1.19951,3.01553 -1.19652,3.63546 -1.80713,4.39281 -3.54171,4.39281 -2.41394,0 -2.98924,-0.92424 -2.98924,-4.80228 0,-1.51784 -0.0994,-2.60122 -0.22585,-2.46054 -0.12423,0.13825 -0.79466,1.88847 -1.48985,3.88938 l -1.26399,3.638016 h -1.27267 c -0.69996,0 -1.33614,-0.102706 -1.41373,-0.228256 z m 3.6566,-4.26966 c 1.12884,-3.20129 1.44002,-3.83645 1.87959,-3.83645 0.49038,0 0.53592,0.22561 0.65907,3.26545 0.12284,3.0322 0.17691,3.30151 0.75691,3.77031 0.85048,0.68741 2.35352,0.65776 3.11917,-0.0615 0.36299,-0.34101 0.98773,-1.73601 1.57001,-3.50573 1.08587,-3.30023 1.44396,-3.87614 2.08125,-3.34723 0.33443,0.27755 0.41016,1.01831 0.41016,4.01216 v 3.67177 h 0.79375 0.79375 v -4.07752 -4.07752 l -0.84526,-0.71124 c -0.68324,-0.5749 -1.02206,-0.68255 -1.76761,-0.56156 -0.5073,0.0823 -1.09859,0.32591 -1.31399,0.54131 -0.2154,0.2154 -0.89172,1.8565 -1.50295,3.6469 -0.91919,2.6925 -1.20914,3.26988 -1.67721,3.33981 -0.54362,0.0812 -0.56596,-0.0125 -0.56737,-2.38125 -0.002,-3.16058 -0.32037,-4.32938 -1.32062,-4.84663 -2.03484,-1.05225 -2.80879,-0.26115 -4.64049,4.74335 -0.79516,2.17251 -1.44575,4.05529 -1.44575,4.18395 0,0.12866 0.37458,0.19662 0.83239,0.15102 0.81898,-0.0816 0.85421,-0.14476 2.1852,-3.91937 z m 13.50437,4.15868 c -0.0716,-0.18658 -0.0976,-2.53807 -0.0578,-5.22552 l 0.0723,-4.88628 1.25677,-0.0806 1.25677,-0.0807 v 5.30617 5.306156 h -1.19893 c -0.73111,0 -1.24972,-0.132366 -1.32911,-0.339236 z m 1.99887,-4.95243 v -4.7625 h -0.79375 -0.79375 v 4.7625 4.7625 h 0.79375 0.79375 z m 3.70417,4.7033 c -1.6485,-0.83386 -2.24896,-2.08961 -2.24896,-4.7033 0,-2.58283 0.61363,-3.85745 2.26429,-4.70329 1.03003,-0.52782 1.5023,-0.59322 3.82113,-0.52917 l 2.64583,0.0731 v 1.19062 1.19063 l -2.57146,0.13229 c -3.19706,0.16448 -3.49145,0.38589 -3.50468,2.63596 -0.0133,2.25963 0.29124,2.49039 3.50468,2.65571 l 2.57146,0.13229 v 1.19062 1.19063 l -2.64583,0.0731 c -2.31538,0.064 -2.79454,-0.002 -3.83646,-0.52916 z m 6.08541,-0.73455 v -0.79375 h -2.36649 c -2.12098,0 -2.44352,-0.0663 -3.10886,-0.63915 -0.68546,-0.59016 -0.74223,-0.78465 -0.74069,-2.53788 0.002,-1.75038 0.0595,-1.94851 0.74236,-2.53585 0.66313,-0.5704 0.98849,-0.63712 3.10719,-0.63712 h 2.36649 v -0.79375 -0.79375 l -2.3151,0.006 c -4.15825,0.0104 -5.49358,1.20032 -5.4866,4.88899 0.007,3.44763 1.39048,4.61411 5.4866,4.62439 l 2.3151,0.006 z m 12.70525,0.72761 c -1.63965,-0.83771 -2.2542,-2.11805 -2.2542,-4.69636 0,-3.62871 1.6082,-5.29166 5.11745,-5.29166 3.55211,0 5.18476,1.66476 5.18958,5.29166 0.005,3.66822 -1.57439,5.291666 -5.14766,5.291666 -1.28276,0 -2.04613,-0.156416 -2.90517,-0.595306 z m 5.09648,-0.29663 c 1.24582,-0.53084 1.9722,-1.45231 2.30085,-2.91882 0.80525,-3.5932 -1.06532,-6.24199 -4.40879,-6.24299 -1.65285,-5e-4 -2.62484,0.33668 -3.57025,1.23849 -1.33816,1.27645 -1.60748,4.64384 -0.52275,6.53627 0.8696,1.51713 4.16545,2.254356 6.20094,1.38705 z m -4.24135,-1.63117 c -0.78741,-0.55153 -1.23494,-2.17122 -1.01154,-3.66095 0.25186,-1.67955 1.06241,-2.28261 3.06795,-2.28261 1.8707,0 2.56805,0.48993 2.91866,2.05052 0.32277,1.43664 -0.0599,3.21735 -0.82439,3.83646 -0.74064,0.59978 -3.32486,0.63501 -4.15068,0.0566 z m 3.64595,-0.39181 c 0.73781,-0.39486 1.13616,-2.13225 0.78655,-3.43058 -0.33531,-1.24526 -0.87285,-1.592 -2.46805,-1.592 -1.85018,0 -2.41913,0.62227 -2.41913,2.64583 0,1.4025 0.0903,1.7145 0.62021,2.14362 0.68633,0.55575 2.63384,0.68621 3.48042,0.23313 z"
       id="path41208"
       transform="matrix(1.5491084,0,0,2.9457573,-104.32811,-212.40139)" /></g><g
     inkscape:groupmode="layer"
     id="layer2"
     inkscape:label="Layer 2" /></svg>
