  0
SECTION
  2
HEADER
  9
$ACADVER
  1
AC1014
  9
$HANDSEED
  5
FFFF
  9
$INSUNITS
 70
     4
  9
$MEASUREMENT
 70
     1
  0
ENDSEC
  0
SECTION
  2
TABLES
  0
TABLE
  2
VPORT
  5
8
330
0
100
AcDbSymbolTable
 70
     4
  0
VPORT
  5
2E
330
8
100
AcDbSymbolTableRecord
100
AcDbViewportTableRecord
  2
*ACTIVE
 70
     0
 10
0.0
 20
0.0
 11
1.0
 21
1.0
 12
210.0
 22
148.5
 13
0.0
 23
0.0
 14
10.0
 24
10.0
 15
10.0
 25
10.0
 16
0.0
 26
0.0
 36
1.0
 17
0.0
 27
0.0
 37
0.0
 40
341.0
 41
1.24
 42
50.0
 43
0.0
 44
0.0
 50
0.0
 51
0.0
 71
     0
 72
   100
 73
     1
 74
     3
 75
     0
 76
     0
 77
     0
 78
     0
  0
ENDTAB
  0
TABLE
  2
LTYPE
  5
5
330
0
100
AcDbSymbolTable
 70
     1
  0
LTYPE
  5
14
330
5
100
AcDbSymbolTableRecord
100
AcDbLinetypeTableRecord
  2
BYBLOCK
 70
     0
  3

 72
    65
 73
     0
 40
0.0
  0
LTYPE
  5
15
330
5
100
AcDbSymbolTableRecord
100
AcDbLinetypeTableRecord
  2
BYLAYER
 70
     0
  3

 72
    65
 73
     0
 40
0.0
  0
LTYPE
  5
16
330
5
100
AcDbSymbolTableRecord
100
AcDbLinetypeTableRecord
  2
CONTINUOUS
 70
     0
  3
Solid line
 72
    65
 73
     0
 40
0.0
  0
ENDTAB
  0
TABLE
  2
LAYER
  5
2
100
AcDbSymbolTable
 70
2
  0
LAYER
  5
50
100
AcDbSymbolTableRecord
100
AcDbLayerTableRecord
  2
0
 70
0
  6
CONTINUOUS
  0
LAYER
  5
51
100
AcDbSymbolTableRecord
100
AcDbLayerTableRecord
  2
Layer_1
 70
0
  6
CONTINUOUS
  0
ENDTAB
  0
TABLE
  2
STYLE
  5
3
330
0
100
AcDbSymbolTable
 70
     1
  0
STYLE
  5
11
330
3
100
AcDbSymbolTableRecord
100
AcDbTextStyleTableRecord
  2
STANDARD
 70
     0
 40
0.0
 41
1.0
 50
0.0
 71
     0
 42
2.5
  3
txt
  4

  0
ENDTAB
  0
TABLE
  2
VIEW
  5
6
330
0
100
AcDbSymbolTable
 70
     0
  0
ENDTAB
  0
TABLE
  2
UCS
  5
7
330
0
100
AcDbSymbolTable
 70
     0
  0
ENDTAB
  0
TABLE
  2
APPID
  5
9
330
0
100
AcDbSymbolTable
 70
     2
  0
APPID
  5
12
330
9
100
AcDbSymbolTableRecord
100
AcDbRegAppTableRecord
  2
ACAD
 70
     0
  0
ENDTAB
  0
TABLE
  2
DIMSTYLE
  5
A
330
0
100
AcDbSymbolTable
 70
     1
  0
DIMSTYLE
105
27
330
A
100
AcDbSymbolTableRecord
100
AcDbDimStyleTableRecord
  2
ISO-25
 70
     0
  3

  4

  5

  6

  7

 40
1.0
 41
2.5
 42
0.625
 43
3.75
 44
1.25
 45
0.0
 46
0.0
 47
0.0
 48
0.0
140
2.5
141
2.5
142
0.0
143
0.03937007874016
144
1.0
145
0.0
146
1.0
147
0.625
 71
     0
 72
     0
 73
     0
 74
     0
 75
     0
 76
     0
 77
     1
 78
     8
170
     0
171
     3
172
     1
173
     0
174
     0
175
     0
176
     0
177
     0
178
     0
270
     2
271
     2
272
     2
273
     2
274
     3
340
11
275
     0
280
     0
281
     0
282
     0
283
     0
284
     8
285
     0
286
     0
287
     3
288
     0
  0
ENDTAB
  0
TABLE
  2
BLOCK_RECORD
  5
1
330
0
100
AcDbSymbolTable
 70
     1
  0
BLOCK_RECORD
  5
1F
330
1
100
AcDbSymbolTableRecord
100
AcDbBlockTableRecord
  2
*MODEL_SPACE
  0
BLOCK_RECORD
  5
1B
330
1
100
AcDbSymbolTableRecord
100
AcDbBlockTableRecord
  2
*PAPER_SPACE
  0
ENDTAB
  0
ENDSEC
  0
SECTION
  2
BLOCKS
  0
BLOCK
  5
20
330
1F
100
AcDbEntity
  8
0
100
AcDbBlockBegin
  2
*MODEL_SPACE
 70
     0
 10
0.0
 20
0.0
 30
0.0
  3
*MODEL_SPACE
  1

  0
ENDBLK
  5
21
330
1F
100
AcDbEntity
  8
0
100
AcDbBlockEnd
  0
BLOCK
  5
1C
330
1B
100
AcDbEntity
 67
     1
  8
0
100
AcDbBlockBegin
  2
*PAPER_SPACE
  1

  0
ENDBLK
  5
1D
330
1B
100
AcDbEntity
 67
     1
  8
0
100
AcDbBlockEnd
  0
ENDSEC
  0
SECTION
  2
ENTITIES
  0
SPLINE
  5
100
100
AcDbEntity
  8
Layer_1
 62
7
100
AcDbSpline
 70
8
 71
3
 72
8
 73
4
 74
0
 40
0
 40
0
 40
0
 40
0
 40
1
 40
1
 40
1
 40
1
 10
77.909040
 20
10.705695
 30
0.0
 10
79.794180
 20
10.752495
 30
0.0
 10
81.223620
 20
10.663895
 30
0.0
 10
81.688320
 20
10.471445
 30
0.0
  0
SPLINE
  5
101
100
AcDbEntity
  8
Layer_1
 62
7
100
AcDbSpline
 70
8
 71
3
 72
8
 73
4
 74
0
 40
0
 40
0
 40
0
 40
0
 40
1
 40
1
 40
1
 40
1
 10
81.688320
 20
10.471445
 30
0.0
 10
82.933060
 20
9.955855
 30
0.0
 10
83.476110
 20
9.022685
 30
0.0
 10
83.476110
 20
7.399335
 30
0.0
  0
SPLINE
  5
102
100
AcDbEntity
  8
Layer_1
 62
7
100
AcDbSpline
 70
8
 71
3
 72
8
 73
4
 74
0
 40
0
 40
0
 40
0
 40
0
 40
1
 40
1
 40
1
 40
1
 10
83.476110
 20
7.399335
 30
0.0
 10
83.476110
 20
6.160665
 30
0.0
 10
83.368040
 20
5.851375
 30
0.0
 10
82.702720
 20
5.186055
 30
0.0
  0
SPLINE
  5
103
100
AcDbEntity
  8
Layer_1
 62
7
100
AcDbSpline
 70
8
 71
3
 72
8
 73
4
 74
0
 40
0
 40
0
 40
0
 40
0
 40
1
 40
1
 40
1
 40
1
 10
82.702720
 20
5.186055
 30
0.0
 10
82.217580
 20
4.700915
 30
0.0
 10
81.650540
 20
4.410765
 30
0.0
 10
81.181360
 20
4.407595
 30
0.0
  0
SPLINE
  5
104
100
AcDbEntity
  8
Layer_1
 62
7
100
AcDbSpline
 70
8
 71
3
 72
8
 73
4
 74
0
 40
0
 40
0
 40
0
 40
0
 40
1
 40
1
 40
1
 40
1
 10
81.181360
 20
4.407595
 30
0.0
 10
80.553370
 20
4.403595
 30
0.0
 10
80.678220
 20
4.290785
 30
0.0
 10
81.959840
 20
3.705815
 30
0.0
  0
SPLINE
  5
105
100
AcDbEntity
  8
Layer_1
 62
7
100
AcDbSpline
 70
8
 71
3
 72
8
 73
4
 74
0
 40
0
 40
0
 40
0
 40
0
 40
1
 40
1
 40
1
 40
1
 10
81.959840
 20
3.705815
 30
0.0
 10
82.988210
 20
3.236425
 30
0.0
 10
83.534140
 20
2.818375
 30
0.0
 10
83.632980
 20
2.424575
 30
0.0
  0
SPLINE
  5
106
100
AcDbEntity
  8
Layer_1
 62
7
100
AcDbSpline
 70
8
 71
3
 72
8
 73
4
 74
0
 40
0
 40
0
 40
0
 40
0
 40
1
 40
1
 40
1
 40
1
 10
83.632980
 20
2.424575
 30
0.0
 10
83.839060
 20
1.603455
 30
0.0
 10
83.660180
 20
0.104525
 30
0.0
 10
83.343820
 20
0.002185
 30
0.0
  0
SPLINE
  5
107
100
AcDbEntity
  8
Layer_1
 62
7
100
AcDbSpline
 70
8
 71
3
 72
8
 73
4
 74
0
 40
0
 40
0
 40
0
 40
0
 40
1
 40
1
 40
1
 40
1
 10
83.343820
 20
0.002185
 30
0.0
 10
83.198300
 20
-0.044915
 30
0.0
 10
81.829080
 20
0.684105
 30
0.0
 10
80.301110
 20
1.622185
 30
0.0
  0
LWPOLYLINE
  5
108
100
AcDbEntity
  8
Layer_1
 62
7
100
AcDbPolyline
 90
9
 70
0
 10
80.301040
 20
1.622231
 30
0.0
 10
77.522920
 20
3.327831
 30
0.0
 10
77.443820
 20
1.739631
 30
0.0
 10
77.364720
 20
0.151445
 30
0.0
 10
76.120940
 20
0.231545
 30
0.0
 10
74.877160
 20
0.311645
 30
0.0
 10
74.877160
 20
5.471025
 30
0.0
 10
74.877160
 20
10.630395
 30
0.0
 10
77.909040
 20
10.705695
 30
0.0
  0
SPLINE
  5
109
100
AcDbEntity
  8
Layer_1
 62
7
100
AcDbSpline
 70
8
 71
3
 72
8
 73
4
 74
0
 40
0
 40
0
 40
0
 40
0
 40
1
 40
1
 40
1
 40
1
 10
83.208320
 20
1.436141
 30
0.0
 10
83.205320
 20
2.374301
 30
0.0
 10
83.118920
 20
2.475721
 30
0.0
 10
81.620820
 20
3.298601
 30
0.0
  0
SPLINE
  5
10a
100
AcDbEntity
  8
Layer_1
 62
7
100
AcDbSpline
 70
8
 71
3
 72
8
 73
4
 74
0
 40
0
 40
0
 40
0
 40
0
 40
1
 40
1
 40
1
 40
1
 10
81.620820
 20
3.298601
 30
0.0
 10
80.749420
 20
3.777241
 30
0.0
 10
80.036460
 20
4.264411
 30
0.0
 10
80.036460
 20
4.381191
 30
0.0
  0
SPLINE
  5
10b
100
AcDbEntity
  8
Layer_1
 62
7
100
AcDbSpline
 70
8
 71
3
 72
8
 73
4
 74
0
 40
0
 40
0
 40
0
 40
0
 40
1
 40
1
 40
1
 40
1
 10
80.036460
 20
4.381191
 30
0.0
 10
80.036460
 20
4.497981
 30
0.0
 10
80.508400
 20
4.734921
 30
0.0
 10
81.085220
 20
4.907741
 30
0.0
  0
SPLINE
  5
10c
100
AcDbEntity
  8
Layer_1
 62
7
100
AcDbSpline
 70
8
 71
3
 72
8
 73
4
 74
0
 40
0
 40
0
 40
0
 40
0
 40
1
 40
1
 40
1
 40
1
 10
81.085220
 20
4.907741
 30
0.0
 10
82.371640
 20
5.293161
 30
0.0
 10
82.946880
 20
6.063061
 30
0.0
 10
82.946880
 20
7.399381
 30
0.0
  0
SPLINE
  5
10d
100
AcDbEntity
  8
Layer_1
 62
7
100
AcDbSpline
 70
8
 71
3
 72
8
 73
4
 74
0
 40
0
 40
0
 40
0
 40
0
 40
1
 40
1
 40
1
 40
1
 10
82.946880
 20
7.399381
 30
0.0
 10
82.946880
 20
9.658271
 30
0.0
 10
81.956010
 20
10.233541
 30
0.0
 10
78.065220
 20
10.233541
 30
0.0
  0
LWPOLYLINE
  5
10e
100
AcDbEntity
  8
Layer_1
 62
7
100
AcDbPolyline
 90
1
 70
1
 10
80.301110
 20
1.622185
 30
0.0
  0
SPLINE
  5
10f
100
AcDbEntity
  8
Layer_1
 62
7
100
AcDbSpline
 70
8
 71
3
 72
8
 73
4
 74
0
 40
0
 40
0
 40
0
 40
0
 40
1
 40
1
 40
1
 40
1
 10
76.861460
 20
2.296041
 30
0.0
 10
76.861460
 20
3.632341
 30
0.0
 10
76.934760
 20
3.883211
 30
0.0
 10
77.324480
 20
3.881461
 30
0.0
  0
SPLINE
  5
110
100
AcDbEntity
  8
Layer_1
 62
7
100
AcDbSpline
 70
8
 71
3
 72
8
 73
4
 74
0
 40
0
 40
0
 40
0
 40
0
 40
1
 40
1
 40
1
 40
1
 10
77.324480
 20
3.881461
 30
0.0
 10
77.579140
 20
3.880461
 30
0.0
 10
78.978130
 20
3.118381
 30
0.0
 10
80.433340
 20
2.188271
 30
0.0
  0
SPLINE
  5
111
100
AcDbEntity
  8
Layer_1
 62
7
100
AcDbSpline
 70
8
 71
3
 72
8
 73
4
 74
0
 40
0
 40
0
 40
0
 40
0
 40
1
 40
1
 40
1
 40
1
 10
80.433340
 20
2.188271
 30
0.0
 10
81.888540
 20
1.258161
 30
0.0
 10
83.108930
 20
0.485191
 30
0.0
 10
83.145310
 20
0.470561
 30
0.0
  0
SPLINE
  5
112
100
AcDbEntity
  8
Layer_1
 62
7
100
AcDbSpline
 70
8
 71
3
 72
8
 73
4
 74
0
 40
0
 40
0
 40
0
 40
0
 40
1
 40
1
 40
1
 40
1
 10
83.145310
 20
0.470561
 30
0.0
 10
83.181710
 20
0.455961
 30
0.0
 10
83.210010
 20
0.890441
 30
0.0
 10
83.208310
 20
1.436141
 30
0.0
  0
LWPOLYLINE
  5
113
100
AcDbEntity
  8
Layer_1
 62
7
100
AcDbPolyline
 90
7
 70
0
 10
78.065220
 20
10.233541
 30
0.0
 10
75.273960
 20
10.233541
 30
0.0
 10
75.273960
 20
5.471041
 30
0.0
 10
75.273960
 20
0.708541
 30
0.0
 10
76.067710
 20
0.708541
 30
0.0
 10
76.861460
 20
0.708541
 30
0.0
 10
76.861460
 20
2.296041
 30
0.0
  0
SPLINE
  5
114
100
AcDbEntity
  8
Layer_1
 62
7
100
AcDbSpline
 70
8
 71
3
 72
8
 73
4
 74
0
 40
0
 40
0
 40
0
 40
0
 40
1
 40
1
 40
1
 40
1
 10
76.965720
 20
6.639311
 30
0.0
 10
76.886720
 20
6.845301
 30
0.0
 10
76.860640
 20
7.351321
 30
0.0
 10
76.907920
 20
7.763791
 30
0.0
  0
SPLINE
  5
115
100
AcDbEntity
  8
Layer_1
 62
7
100
AcDbSpline
 70
8
 71
3
 72
8
 73
4
 74
0
 40
0
 40
0
 40
0
 40
0
 40
1
 40
1
 40
1
 40
1
 10
76.907920
 20
7.763791
 30
0.0
 10
76.991820
 20
8.496871
 30
0.0
 10
77.034520
 20
8.515521
 30
0.0
 10
78.803540
 20
8.592521
 30
0.0
  0
SPLINE
  5
116
100
AcDbEntity
  8
Layer_1
 62
7
100
AcDbSpline
 70
8
 71
3
 72
8
 73
4
 74
0
 40
0
 40
0
 40
0
 40
0
 40
1
 40
1
 40
1
 40
1
 10
78.803540
 20
8.592521
 30
0.0
 10
80.765700
 20
8.677921
 30
0.0
 10
81.359420
 20
8.418551
 30
0.0
 10
81.359420
 20
7.475931
 30
0.0
  0
SPLINE
  5
117
100
AcDbEntity
  8
Layer_1
 62
7
100
AcDbSpline
 70
8
 71
3
 72
8
 73
4
 74
0
 40
0
 40
0
 40
0
 40
0
 40
1
 40
1
 40
1
 40
1
 10
81.359420
 20
7.475931
 30
0.0
 10
81.359420
 20
6.522191
 30
0.0
 10
80.840320
 20
6.264791
 30
0.0
 10
78.916950
 20
6.264791
 30
0.0
  0
SPLINE
  5
118
100
AcDbEntity
  8
Layer_1
 62
7
100
AcDbSpline
 70
8
 71
3
 72
8
 73
4
 74
0
 40
0
 40
0
 40
0
 40
0
 40
1
 40
1
 40
1
 40
1
 10
78.916950
 20
6.264791
 30
0.0
 10
77.602320
 20
6.264791
 30
0.0
 10
77.070290
 20
6.366911
 30
0.0
 10
76.965760
 20
6.639311
 30
0.0
  0
LWPOLYLINE
  5
119
100
AcDbEntity
  8
Layer_1
 62
7
100
AcDbPolyline
 90
1
 70
1
 10
83.208310
 20
1.436141
 30
0.0
  0
SPLINE
  5
11a
100
AcDbEntity
  8
Layer_1
 62
7
100
AcDbSpline
 70
8
 71
3
 72
8
 73
4
 74
0
 40
0
 40
0
 40
0
 40
0
 40
1
 40
1
 40
1
 40
1
 10
80.697920
 20
7.455411
 30
0.0
 10
80.697920
 20
7.919731
 30
0.0
 10
80.495270
 20
7.994231
 30
0.0
 10
79.044270
 20
8.063351
 30
0.0
  0
SPLINE
  5
11b
100
AcDbEntity
  8
Layer_1
 62
7
100
AcDbSpline
 70
8
 71
3
 72
8
 73
4
 74
0
 40
0
 40
0
 40
0
 40
0
 40
1
 40
1
 40
1
 40
1
 10
79.044270
 20
8.063351
 30
0.0
 10
77.420320
 20
8.140751
 30
0.0
 10
77.390630
 20
8.129751
 30
0.0
 10
77.390630
 20
7.455411
 30
0.0
  0
SPLINE
  5
11c
100
AcDbEntity
  8
Layer_1
 62
7
100
AcDbSpline
 70
8
 71
3
 72
8
 73
4
 74
0
 40
0
 40
0
 40
0
 40
0
 40
1
 40
1
 40
1
 40
1
 10
77.390630
 20
7.455411
 30
0.0
 10
77.390630
 20
6.781031
 30
0.0
 10
77.420330
 20
6.770121
 30
0.0
 10
79.044270
 20
6.847471
 30
0.0
  0
SPLINE
  5
11d
100
AcDbEntity
  8
Layer_1
 62
7
100
AcDbSpline
 70
8
 71
3
 72
8
 73
4
 74
0
 40
0
 40
0
 40
0
 40
0
 40
1
 40
1
 40
1
 40
1
 10
79.044270
 20
6.847471
 30
0.0
 10
80.495270
 20
6.916571
 30
0.0
 10
80.697920
 20
6.991091
 30
0.0
 10
80.697920
 20
7.455411
 30
0.0
  0
LWPOLYLINE
  5
11e
100
AcDbEntity
  8
Layer_1
 62
7
100
AcDbPolyline
 90
1
 70
1
 10
76.965760
 20
6.639311
 30
0.0
  0
LWPOLYLINE
  5
11f
100
AcDbEntity
  8
Layer_1
 62
7
100
AcDbPolyline
 90
1
 70
1
 10
80.697920
 20
7.455411
 30
0.0
  0
SPLINE
  5
120
100
AcDbEntity
  8
Layer_1
 62
7
100
AcDbSpline
 70
8
 71
3
 72
8
 73
4
 74
0
 40
0
 40
0
 40
0
 40
0
 40
1
 40
1
 40
1
 40
1
 10
135.069790
 20
2.401449
 30
0.0
 10
135.069790
 20
3.639499
 30
0.0
 10
135.199000
 20
4.936039
 30
0.0
 10
135.356920
 20
5.282639
 30
0.0
  0
SPLINE
  5
121
100
AcDbEntity
  8
Layer_1
 62
7
100
AcDbSpline
 70
8
 71
3
 72
8
 73
4
 74
0
 40
0
 40
0
 40
0
 40
0
 40
1
 40
1
 40
1
 40
1
 10
135.356920
 20
5.282639
 30
0.0
 10
135.823390
 20
6.306429
 30
0.0
 10
136.943210
 20
6.794019
 30
0.0
 10
138.828010
 20
6.794019
 30
0.0
  0
SPLINE
  5
122
100
AcDbEntity
  8
Layer_1
 62
7
100
AcDbSpline
 70
8
 71
3
 72
8
 73
4
 74
0
 40
0
 40
0
 40
0
 40
0
 40
1
 40
1
 40
1
 40
1
 10
138.828010
 20
6.794019
 30
0.0
 10
140.625640
 20
6.794019
 30
0.0
 10
141.364480
 20
7.149099
 30
0.0
 10
140.851930
 20
7.766689
 30
0.0
  0
SPLINE
  5
123
100
AcDbEntity
  8
Layer_1
 62
7
100
AcDbSpline
 70
8
 71
3
 72
8
 73
4
 74
0
 40
0
 40
0
 40
0
 40
0
 40
1
 40
1
 40
1
 40
1
 10
140.851930
 20
7.766689
 30
0.0
 10
140.644910
 20
8.016129
 30
0.0
 10
139.770950
 20
8.116939
 30
0.0
 10
137.815520
 20
8.116939
 30
0.0
  0
LWPOLYLINE
  5
124
100
AcDbEntity
  8
Layer_1
 62
7
100
AcDbPolyline
 90
7
 70
0
 10
140.626040
 20
1.230621
 30
0.0
 10
137.847920
 20
2.506231
 30
0.0
 10
137.715620
 20
1.408941
 30
0.0
 10
137.583330
 20
0.311661
 30
0.0
 10
136.326560
 20
0.231061
 30
0.0
 10
135.069790
 20
0.150461
 30
0.0
 10
135.069790
 20
2.401449
 30
0.0
  0
SPLINE
  5
125
100
AcDbEntity
  8
Layer_1
 62
7
100
AcDbSpline
 70
8
 71
3
 72
8
 73
4
 74
0
 40
0
 40
0
 40
0
 40
0
 40
1
 40
1
 40
1
 40
1
 10
138.138660
 20
10.762769
 30
0.0
 10
140.385260
 20
10.762769
 30
0.0
 10
141.443160
 20
10.650959
 30
0.0
 10
142.086960
 20
10.345449
 30
0.0
  0
SPLINE
  5
126
100
AcDbEntity
  8
Layer_1
 62
7
100
AcDbSpline
 70
8
 71
3
 72
8
 73
4
 74
0
 40
0
 40
0
 40
0
 40
0
 40
1
 40
1
 40
1
 40
1
 10
142.086960
 20
10.345449
 30
0.0
 10
143.053140
 20
9.886969
 30
0.0
 10
143.801620
 20
8.606819
 30
0.0
 10
143.800050
 20
7.415489
 30
0.0
  0
SPLINE
  5
127
100
AcDbEntity
  8
Layer_1
 62
7
100
AcDbSpline
 70
8
 71
3
 72
8
 73
4
 74
0
 40
0
 40
0
 40
0
 40
0
 40
1
 40
1
 40
1
 40
1
 10
143.800050
 20
7.415489
 30
0.0
 10
143.799050
 20
6.359419
 30
0.0
 10
142.862470
 20
4.941179
 30
0.0
 10
141.935860
 20
4.591419
 30
0.0
  0
SPLINE
  5
128
100
AcDbEntity
  8
Layer_1
 62
7
100
AcDbSpline
 70
8
 71
3
 72
8
 73
4
 74
0
 40
0
 40
0
 40
0
 40
0
 40
1
 40
1
 40
1
 40
1
 10
141.935860
 20
4.591419
 30
0.0
 10
141.506500
 20
4.429359
 30
0.0
 10
141.155210
 20
4.226549
 30
0.0
 10
141.155210
 20
4.140739
 30
0.0
  0
SPLINE
  5
129
100
AcDbEntity
  8
Layer_1
 62
7
100
AcDbSpline
 70
8
 71
3
 72
8
 73
4
 74
0
 40
0
 40
0
 40
0
 40
0
 40
1
 40
1
 40
1
 40
1
 10
141.155210
 20
4.140739
 30
0.0
 10
141.155210
 20
4.054939
 30
0.0
 10
141.780290
 20
3.694069
 30
0.0
 10
142.544270
 20
3.338849
 30
0.0
  0
LWPOLYLINE
  5
12a
100
AcDbEntity
  8
Layer_1
 62
7
100
AcDbPolyline
 90
5
 70
0
 10
137.815520
 20
8.116939
 30
0.0
 10
135.069790
 20
8.116939
 30
0.0
 10
135.069790
 20
9.439859
 30
0.0
 10
135.069790
 20
10.762769
 30
0.0
 10
138.138660
 20
10.762769
 30
0.0
  0
SPLINE
  5
12b
100
AcDbEntity
  8
Layer_1
 62
7
100
AcDbSpline
 70
8
 71
3
 72
8
 73
4
 74
0
 40
0
 40
0
 40
0
 40
0
 40
1
 40
1
 40
1
 40
1
 10
143.933330
 20
1.392109
 30
0.0
 10
143.933330
 20
0.676639
 30
0.0
 10
143.814270
 20
0.060621
 30
0.0
 10
143.668750
 20
0.023171
 30
0.0
  0
SPLINE
  5
12c
100
AcDbEntity
  8
Layer_1
 62
7
100
AcDbSpline
 70
8
 71
3
 72
8
 73
4
 74
0
 40
0
 40
0
 40
0
 40
0
 40
1
 40
1
 40
1
 40
1
 10
143.668750
 20
0.023171
 30
0.0
 10
143.523230
 20
-0.014229
 30
0.0
 10
142.154010
 20
0.529099
 30
0.0
 10
140.626040
 20
1.230689
 30
0.0
  0
LWPOLYLINE
  5
12d
100
AcDbEntity
  8
Layer_1
 62
7
100
AcDbPolyline
 90
3
 70
0
 10
142.544270
 20
3.338849
 30
0.0
 10
143.933330
 20
2.692979
 30
0.0
 10
143.933330
 20
1.392109
 30
0.0
  0
SPLINE
  5
12e
100
AcDbEntity
  8
Layer_1
 62
7
100
AcDbSpline
 70
8
 71
3
 72
8
 73
4
 74
0
 40
0
 40
0
 40
0
 40
0
 40
1
 40
1
 40
1
 40
1
 10
137.186460
 20
1.899161
 30
0.0
 10
137.186460
 20
2.731331
 30
0.0
 10
137.295670
 20
3.089791
 30
0.0
 10
137.549210
 20
3.089791
 30
0.0
  0
SPLINE
  5
12f
100
AcDbEntity
  8
Layer_1
 62
7
100
AcDbSpline
 70
8
 71
3
 72
8
 73
4
 74
0
 40
0
 40
0
 40
0
 40
0
 40
1
 40
1
 40
1
 40
1
 10
137.549210
 20
3.089791
 30
0.0
 10
137.748730
 20
3.089791
 30
0.0
 10
139.120380
 20
2.554001
 30
0.0
 10
140.597330
 20
1.899161
 30
0.0
  0
SPLINE
  5
130
100
AcDbEntity
  8
Layer_1
 62
7
100
AcDbSpline
 70
8
 71
3
 72
8
 73
4
 74
0
 40
0
 40
0
 40
0
 40
0
 40
1
 40
1
 40
1
 40
1
 10
140.597330
 20
1.899161
 30
0.0
 10
142.074280
 20
1.244321
 30
0.0
 10
143.347330
 20
0.708541
 30
0.0
 10
143.426340
 20
0.708541
 30
0.0
  0
SPLINE
  5
131
100
AcDbEntity
  8
Layer_1
 62
7
100
AcDbSpline
 70
8
 71
3
 72
8
 73
4
 74
0
 40
0
 40
0
 40
0
 40
0
 40
1
 40
1
 40
1
 40
1
 10
143.426340
 20
0.708541
 30
0.0
 10
143.505340
 20
0.708541
 30
0.0
 10
143.532680
 20
1.085051
 30
0.0
 10
143.487040
 20
1.545221
 30
0.0
  0
SPLINE
  5
132
100
AcDbEntity
  8
Layer_1
 62
7
100
AcDbSpline
 70
8
 71
3
 72
8
 73
4
 74
0
 40
0
 40
0
 40
0
 40
0
 40
1
 40
1
 40
1
 40
1
 10
143.487040
 20
1.545221
 30
0.0
 10
143.411040
 20
2.312531
 30
0.0
 10
143.240900
 20
2.451171
 30
0.0
 10
141.435730
 20
3.217081
 30
0.0
  0
SPLINE
  5
133
100
AcDbEntity
  8
Layer_1
 62
7
100
AcDbSpline
 70
8
 71
3
 72
8
 73
4
 74
0
 40
0
 40
0
 40
0
 40
0
 40
1
 40
1
 40
1
 40
1
 10
141.435730
 20
3.217081
 30
0.0
 10
139.238800
 20
4.149211
 30
0.0
 10
138.771350
 20
4.676741
 30
0.0
 10
140.140930
 20
4.678281
 30
0.0
  0
SPLINE
  5
134
100
AcDbEntity
  8
Layer_1
 62
7
100
AcDbSpline
 70
8
 71
3
 72
8
 73
4
 74
0
 40
0
 40
0
 40
0
 40
0
 40
1
 40
1
 40
1
 40
1
 10
140.140930
 20
4.678281
 30
0.0
 10
141.284260
 20
4.679281
 30
0.0
 10
142.681910
 20
5.541381
 30
0.0
 10
143.031400
 20
6.460591
 30
0.0
  0
SPLINE
  5
135
100
AcDbEntity
  8
Layer_1
 62
7
100
AcDbSpline
 70
8
 71
3
 72
8
 73
4
 74
0
 40
0
 40
0
 40
0
 40
0
 40
1
 40
1
 40
1
 40
1
 10
143.031400
 20
6.460591
 30
0.0
 10
143.415510
 20
7.470881
 30
0.0
 10
143.122400
 20
8.710021
 30
0.0
 10
142.321190
 20
9.463621
 30
0.0
  0
SPLINE
  5
136
100
AcDbEntity
  8
Layer_1
 62
7
100
AcDbSpline
 70
8
 71
3
 72
8
 73
4
 74
0
 40
0
 40
0
 40
0
 40
0
 40
1
 40
1
 40
1
 40
1
 10
142.321190
 20
9.463621
 30
0.0
 10
141.700820
 20
10.047081
 30
0.0
 10
141.386520
 20
10.108801
 30
0.0
 10
138.621080
 20
10.190161
 30
0.0
  0
LWPOLYLINE
  5
137
100
AcDbEntity
  8
Layer_1
 62
7
100
AcDbPolyline
 90
1
 70
1
 10
140.626040
 20
1.230689
 30
0.0
  0
SPLINE
  5
138
100
AcDbEntity
  8
Layer_1
 62
7
100
AcDbSpline
 70
8
 71
3
 72
8
 73
4
 74
0
 40
0
 40
0
 40
0
 40
0
 40
1
 40
1
 40
1
 40
1
 10
138.225850
 20
8.646031
 30
0.0
 10
140.261200
 20
8.646031
 30
0.0
 10
140.946420
 20
8.552431
 30
0.0
 10
141.268560
 20
8.230251
 30
0.0
  0
SPLINE
  5
139
100
AcDbEntity
  8
Layer_1
 62
7
100
AcDbSpline
 70
8
 71
3
 72
8
 73
4
 74
0
 40
0
 40
0
 40
0
 40
0
 40
1
 40
1
 40
1
 40
1
 10
141.268560
 20
8.230251
 30
0.0
 10
141.798320
 20
7.700491
 30
0.0
 10
141.793130
 20
7.352701
 30
0.0
 10
141.246460
 20
6.748631
 30
0.0
  0
SPLINE
  5
13a
100
AcDbEntity
  8
Layer_1
 62
7
100
AcDbSpline
 70
8
 71
3
 72
8
 73
4
 74
0
 40
0
 40
0
 40
0
 40
0
 40
1
 40
1
 40
1
 40
1
 10
141.246460
 20
6.748631
 30
0.0
 10
140.902590
 20
6.368651
 30
0.0
 10
140.415390
 20
6.264781
 30
0.0
 10
138.977150
 20
6.264781
 30
0.0
  0
SPLINE
  5
13b
100
AcDbEntity
  8
Layer_1
 62
7
100
AcDbSpline
 70
8
 71
3
 72
8
 73
4
 74
0
 40
0
 40
0
 40
0
 40
0
 40
1
 40
1
 40
1
 40
1
 10
138.977150
 20
6.264781
 30
0.0
 10
137.305720
 20
6.264781
 30
0.0
 10
137.078160
 20
6.197181
 30
0.0
 10
136.372330
 20
5.491381
 30
0.0
  0
SPLINE
  5
13c
100
AcDbEntity
  8
Layer_1
 62
7
100
AcDbSpline
 70
8
 71
3
 72
8
 73
4
 74
0
 40
0
 40
0
 40
0
 40
0
 40
1
 40
1
 40
1
 40
1
 10
136.372330
 20
5.491381
 30
0.0
 10
135.653610
 20
4.772671
 30
0.0
 10
135.598930
 20
4.576231
 30
0.0
 10
135.598930
 20
2.713251
 30
0.0
  0
LWPOLYLINE
  5
13d
100
AcDbEntity
  8
Layer_1
 62
7
100
AcDbPolyline
 90
5
 70
0
 10
138.621080
 20
10.190161
 30
0.0
 10
135.598920
 20
10.279061
 30
0.0
 10
135.598920
 20
9.462541
 30
0.0
 10
135.598920
 20
8.646031
 30
0.0
 10
138.225850
 20
8.646031
 30
0.0
  0
SPLINE
  5
13e
100
AcDbEntity
  8
Layer_1
 62
7
100
AcDbSpline
 70
8
 71
3
 72
8
 73
4
 74
0
 40
0
 40
0
 40
0
 40
0
 40
1
 40
1
 40
1
 40
1
 10
136.392680
 20
0.708531
 30
0.0
 10
137.157030
 20
0.708531
 30
0.0
 10
137.186430
 20
0.752631
 30
0.0
 10
137.186430
 20
1.899151
 30
0.0
  0
LWPOLYLINE
  5
13f
100
AcDbEntity
  8
Layer_1
 62
7
100
AcDbPolyline
 90
3
 70
0
 10
135.598930
 20
2.713251
 30
0.0
 10
135.598930
 20
0.708531
 30
0.0
 10
136.392680
 20
0.708531
 30
0.0
  0
SPLINE
  5
140
100
AcDbEntity
  8
Layer_1
 62
7
100
AcDbSpline
 70
8
 71
3
 72
8
 73
4
 74
0
 40
0
 40
0
 40
0
 40
0
 40
1
 40
1
 40
1
 40
1
 10
2.244935
 20
0.774681
 30
0.0
 10
0.499344
 20
1.659471
 30
0.0
 10
0.000007
 20
2.708371
 30
0.0
 10
0.000007
 20
5.490361
 30
0.0
  0
SPLINE
  5
141
100
AcDbEntity
  8
Layer_1
 62
7
100
AcDbSpline
 70
8
 71
3
 72
8
 73
4
 74
0
 40
0
 40
0
 40
0
 40
0
 40
1
 40
1
 40
1
 40
1
 10
0.000007
 20
5.490361
 30
0.0
 10
0.000007
 20
7.510851
 30
0.0
 10
0.077927
 20
7.876381
 30
0.0
 10
0.713255
 20
8.836431
 30
0.0
  0
SPLINE
  5
142
100
AcDbEntity
  8
Layer_1
 62
7
100
AcDbSpline
 70
8
 71
3
 72
8
 73
4
 74
0
 40
0
 40
0
 40
0
 40
0
 40
1
 40
1
 40
1
 40
1
 10
0.713255
 20
8.836431
 30
0.0
 10
1.726419
 20
10.367421
 30
0.0
 10
3.015113
 20
10.805421
 30
0.0
 10
6.218018
 20
10.707361
 30
0.0
  0
LWPOLYLINE
  5
143
100
AcDbEntity
  8
Layer_1
 62
7
100
AcDbPolyline
 90
1
 70
1
 10
137.186430
 20
1.899151
 30
0.0
  0
SPLINE
  5
144
100
AcDbEntity
  8
Layer_1
 62
7
100
AcDbSpline
 70
8
 71
3
 72
8
 73
4
 74
0
 40
0
 40
0
 40
0
 40
0
 40
1
 40
1
 40
1
 40
1
 10
6.159801
 20
8.116921
 30
0.0
 10
2.943370
 20
7.951451
 30
0.0
 10
2.645840
 20
7.724641
 30
0.0
 10
2.645840
 20
5.438261
 30
0.0
  0
SPLINE
  5
145
100
AcDbEntity
  8
Layer_1
 62
7
100
AcDbSpline
 70
8
 71
3
 72
8
 73
4
 74
0
 40
0
 40
0
 40
0
 40
0
 40
1
 40
1
 40
1
 40
1
 10
2.645840
 20
5.438261
 30
0.0
 10
2.645840
 20
3.352391
 30
0.0
 10
3.251848
 20
2.761391
 30
0.0
 10
5.270010
 20
2.879111
 30
0.0
  0
SPLINE
  5
146
100
AcDbEntity
  8
Layer_1
 62
7
100
AcDbSpline
 70
8
 71
3
 72
8
 73
4
 74
0
 40
0
 40
0
 40
0
 40
0
 40
1
 40
1
 40
1
 40
1
 10
5.270010
 20
2.879111
 30
0.0
 10
6.422691
 20
2.946311
 30
0.0
 10
6.626357
 20
3.040221
 30
0.0
 10
6.697040
 20
3.536851
 30
0.0
  0
SPLINE
  5
147
100
AcDbEntity
  8
Layer_1
 62
7
100
AcDbSpline
 70
8
 71
3
 72
8
 73
4
 74
0
 40
0
 40
0
 40
0
 40
0
 40
1
 40
1
 40
1
 40
1
 10
6.697040
 20
3.536851
 30
0.0
 10
6.769510
 20
4.046031
 30
0.0
 10
6.641410
 20
4.126091
 30
0.0
 10
5.638707
 20
4.198311
 30
0.0
  0
LWPOLYLINE
  5
148
100
AcDbEntity
  8
Layer_1
 62
7
100
AcDbPolyline
 90
5
 70
0
 10
6.218018
 20
10.707361
 30
0.0
 10
8.731257
 20
10.630461
 30
0.0
 10
8.731257
 20
9.439841
 30
0.0
 10
8.731257
 20
8.249211
 30
0.0
 10
6.159801
 20
8.116921
 30
0.0
  0
SPLINE
  5
149
100
AcDbEntity
  8
Layer_1
 62
7
100
AcDbSpline
 70
8
 71
3
 72
8
 73
4
 74
0
 40
0
 40
0
 40
0
 40
0
 40
1
 40
1
 40
1
 40
1
 10
5.918340
 20
6.793951
 30
0.0
 10
7.230040
 20
6.793951
 30
0.0
 10
7.637673
 20
6.678141
 30
0.0
 10
8.306346
 20
6.115491
 30
0.0
  0
SPLINE
  5
14a
100
AcDbEntity
  8
Layer_1
 62
7
100
AcDbSpline
 70
8
 71
3
 72
8
 73
4
 74
0
 40
0
 40
0
 40
0
 40
0
 40
1
 40
1
 40
1
 40
1
 10
8.306346
 20
6.115491
 30
0.0
 10
10.117106
 20
4.591831
 30
0.0
 10
9.835491
 20
1.626141
 30
0.0
 10
7.779068
 20
0.562721
 30
0.0
  0
SPLINE
  5
14b
100
AcDbEntity
  8
Layer_1
 62
7
100
AcDbSpline
 70
8
 71
3
 72
8
 73
4
 74
0
 40
0
 40
0
 40
0
 40
0
 40
1
 40
1
 40
1
 40
1
 10
7.779068
 20
0.562721
 30
0.0
 10
6.592375
 20
-0.050935
 30
0.0
 10
3.651594
 20
0.061695
 30
0.0
 10
2.244940
 20
0.774681
 30
0.0
  0
LWPOLYLINE
  5
14c
100
AcDbEntity
  8
Layer_1
 62
7
100
AcDbPolyline
 90
5
 70
0
 10
5.638707
 20
4.198311
 30
0.0
 10
4.497923
 20
4.280411
 30
0.0
 10
4.417283
 20
5.537181
 30
0.0
 10
4.336643
 20
6.793951
 30
0.0
 10
5.918340
 20
6.793951
 30
0.0
  0
SPLINE
  5
14d
100
AcDbEntity
  8
Layer_1
 62
7
100
AcDbSpline
 70
8
 71
3
 72
8
 73
4
 74
0
 40
0
 40
0
 40
0
 40
0
 40
1
 40
1
 40
1
 40
1
 10
7.496981
 20
1.082841
 30
0.0
 10
8.175609
 20
1.433771
 30
0.0
 10
8.607713
 20
2.046571
 30
0.0
 10
8.969219
 20
3.170721
 30
0.0
  0
SPLINE
  5
14e
100
AcDbEntity
  8
Layer_1
 62
7
100
AcDbSpline
 70
8
 71
3
 72
8
 73
4
 74
0
 40
0
 40
0
 40
0
 40
0
 40
1
 40
1
 40
1
 40
1
 10
8.969219
 20
3.170721
 30
0.0
 10
9.181705
 20
3.831471
 30
0.0
 10
8.516667
 20
5.313351
 30
0.0
 10
7.774292
 20
5.833331
 30
0.0
  0
SPLINE
  5
14f
100
AcDbEntity
  8
Layer_1
 62
7
100
AcDbSpline
 70
8
 71
3
 72
8
 73
4
 74
0
 40
0
 40
0
 40
0
 40
0
 40
1
 40
1
 40
1
 40
1
 10
7.774292
 20
5.833331
 30
0.0
 10
7.435499
 20
6.070631
 30
0.0
 10
6.649016
 20
6.264791
 30
0.0
 10
6.026552
 20
6.264791
 30
0.0
  0
SPLINE
  5
150
100
AcDbEntity
  8
Layer_1
 62
7
100
AcDbSpline
 70
8
 71
3
 72
8
 73
4
 74
0
 40
0
 40
0
 40
0
 40
0
 40
1
 40
1
 40
1
 40
1
 10
6.026552
 20
6.264791
 30
0.0
 10
4.950351
 20
6.264791
 30
0.0
 10
4.894798
 20
6.226591
 30
0.0
 10
4.894798
 20
5.486251
 30
0.0
  0
SPLINE
  5
151
100
AcDbEntity
  8
Layer_1
 62
7
100
AcDbSpline
 70
8
 71
3
 72
8
 73
4
 74
0
 40
0
 40
0
 40
0
 40
0
 40
1
 40
1
 40
1
 40
1
 10
4.894798
 20
5.486251
 30
0.0
 10
4.894798
 20
4.759471
 30
0.0
 10
4.969558
 20
4.702301
 30
0.0
 10
6.019277
 20
4.626351
 30
0.0
  0
SPLINE
  5
152
100
AcDbEntity
  8
Layer_1
 62
7
100
AcDbSpline
 70
8
 71
3
 72
8
 73
4
 74
0
 40
0
 40
0
 40
0
 40
0
 40
1
 40
1
 40
1
 40
1
 10
6.019277
 20
4.626351
 30
0.0
 10
7.031897
 20
4.553051
 30
0.0
 10
7.152238
 20
4.471021
 30
0.0
 10
7.229021
 20
3.801391
 30
0.0
  0
SPLINE
  5
153
100
AcDbEntity
  8
Layer_1
 62
7
100
AcDbSpline
 70
8
 71
3
 72
8
 73
4
 74
0
 40
0
 40
0
 40
0
 40
0
 40
1
 40
1
 40
1
 40
1
 10
7.229021
 20
3.801391
 30
0.0
 10
7.362061
 20
2.641121
 30
0.0
 10
6.883583
 20
2.296041
 30
0.0
 10
5.141739
 20
2.296041
 30
0.0
  0
SPLINE
  5
154
100
AcDbEntity
  8
Layer_1
 62
7
100
AcDbSpline
 70
8
 71
3
 72
8
 73
4
 74
0
 40
0
 40
0
 40
0
 40
0
 40
1
 40
1
 40
1
 40
1
 10
5.141739
 20
2.296041
 30
0.0
 10
3.894890
 20
2.296041
 30
0.0
 10
3.459940
 20
2.417711
 30
0.0
 10
2.859032
 20
2.934591
 30
0.0
  0
SPLINE
  5
155
100
AcDbEntity
  8
Layer_1
 62
7
100
AcDbSpline
 70
8
 71
3
 72
8
 73
4
 74
0
 40
0
 40
0
 40
0
 40
0
 40
1
 40
1
 40
1
 40
1
 10
2.859032
 20
2.934591
 30
0.0
 10
2.173950
 20
3.523871
 30
0.0
 10
2.116673
 20
3.719571
 30
0.0
 10
2.116673
 20
5.471041
 30
0.0
  0
SPLINE
  5
156
100
AcDbEntity
  8
Layer_1
 62
7
100
AcDbSpline
 70
8
 71
3
 72
8
 73
4
 74
0
 40
0
 40
0
 40
0
 40
0
 40
1
 40
1
 40
1
 40
1
 10
2.116673
 20
5.471041
 30
0.0
 10
2.116673
 20
7.222511
 30
0.0
 10
2.173953
 20
7.418201
 30
0.0
 10
2.859032
 20
8.007491
 30
0.0
  0
SPLINE
  5
157
100
AcDbEntity
  8
Layer_1
 62
7
100
AcDbSpline
 70
8
 71
3
 72
8
 73
4
 74
0
 40
0
 40
0
 40
0
 40
0
 40
1
 40
1
 40
1
 40
1
 10
2.859032
 20
8.007491
 30
0.0
 10
3.524118
 20
8.579571
 30
0.0
 10
3.847717
 20
8.646041
 30
0.0
 10
5.967886
 20
8.646041
 30
0.0
  0
LWPOLYLINE
  5
158
100
AcDbEntity
  8
Layer_1
 62
7
100
AcDbPolyline
 90
1
 70
1
 10
2.244940
 20
0.774681
 30
0.0
  0
SPLINE
  5
159
100
AcDbEntity
  8
Layer_1
 62
7
100
AcDbSpline
 70
8
 71
3
 72
8
 73
4
 74
0
 40
0
 40
0
 40
0
 40
0
 40
1
 40
1
 40
1
 40
1
 10
6.090778
 20
10.233541
 30
0.0
 10
1.891745
 20
10.233541
 30
0.0
 10
0.524921
 20
9.061991
 30
0.0
 10
0.534426
 20
5.471041
 30
0.0
  0
SPLINE
  5
15a
100
AcDbEntity
  8
Layer_1
 62
7
100
AcDbSpline
 70
8
 71
3
 72
8
 73
4
 74
0
 40
0
 40
0
 40
0
 40
0
 40
1
 40
1
 40
1
 40
1
 10
0.534426
 20
5.471041
 30
0.0
 10
0.541026
 20
2.976261
 30
0.0
 10
1.051778
 20
1.924381
 30
0.0
 10
2.597241
 20
1.222721
 30
0.0
  0
SPLINE
  5
15b
100
AcDbEntity
  8
Layer_1
 62
7
100
AcDbSpline
 70
8
 71
3
 72
8
 73
4
 74
0
 40
0
 40
0
 40
0
 40
0
 40
1
 40
1
 40
1
 40
1
 10
2.597241
 20
1.222721
 30
0.0
 10
3.926113
 20
0.619391
 30
0.0
 10
6.460840
 20
0.547031
 30
0.0
 10
7.496981
 20
1.082841
 30
0.0
  0
LWPOLYLINE
  5
15c
100
AcDbEntity
  8
Layer_1
 62
7
100
AcDbPolyline
 90
5
 70
0
 10
5.967886
 20
8.646041
 30
0.0
 10
8.334382
 20
8.646041
 30
0.0
 10
8.334382
 20
9.439791
 30
0.0
 10
8.334382
 20
10.233541
 30
0.0
 10
6.090778
 20
10.233541
 30
0.0
  0
SPLINE
  5
15d
100
AcDbEntity
  8
Layer_1
 62
7
100
AcDbSpline
 70
8
 71
3
 72
8
 73
4
 74
0
 40
0
 40
0
 40
0
 40
0
 40
1
 40
1
 40
1
 40
1
 10
13.162246
 20
0.361491
 30
0.0
 10
12.191970
 20
0.555951
 30
0.0
 10
10.796173
 20
2.072671
 30
0.0
 10
10.468863
 20
3.288211
 30
0.0
  0
SPLINE
  5
15e
100
AcDbEntity
  8
Layer_1
 62
7
100
AcDbSpline
 70
8
 71
3
 72
8
 73
4
 74
0
 40
0
 40
0
 40
0
 40
0
 40
1
 40
1
 40
1
 40
1
 10
10.468863
 20
3.288211
 30
0.0
 10
10.301254
 20
3.910661
 30
0.0
 10
10.202383
 20
5.770501
 30
0.0
 10
10.244158
 20
7.515081
 30
0.0
  0
LWPOLYLINE
  5
15f
100
AcDbEntity
  8
Layer_1
 62
7
100
AcDbPolyline
 90
1
 70
1
 10
7.496981
 20
1.082841
 30
0.0
  0
SPLINE
  5
160
100
AcDbEntity
  8
Layer_1
 62
7
100
AcDbSpline
 70
8
 71
3
 72
8
 73
4
 74
0
 40
0
 40
0
 40
0
 40
0
 40
1
 40
1
 40
1
 40
1
 10
12.877146
 20
7.345491
 30
0.0
 10
12.986127
 20
3.052531
 30
0.0
 10
13.014979
 20
3.011841
 30
0.0
 10
16.081807
 20
2.825251
 30
0.0
  0
LWPOLYLINE
  5
161
100
AcDbEntity
  8
Layer_1
 62
7
100
AcDbPolyline
 90
5
 70
0
 10
10.244158
 20
7.515081
 30
0.0
 10
10.318758
 20
10.630411
 30
0.0
 10
11.554232
 20
10.710211
 30
0.0
 10
12.789706
 20
10.790011
 30
0.0
 10
12.877146
 20
7.345491
 30
0.0
  0
SPLINE
  5
162
100
AcDbEntity
  8
Layer_1
 62
7
100
AcDbSpline
 70
8
 71
3
 72
8
 73
4
 74
0
 40
0
 40
0
 40
0
 40
0
 40
1
 40
1
 40
1
 40
1
 10
16.007297
 20
0.276911
 30
0.0
 10
14.770370
 20
0.257711
 30
0.0
 10
13.490096
 20
0.295811
 30
0.0
 10
13.162245
 20
0.361511
 30
0.0
  0
LWPOLYLINE
  5
163
100
AcDbEntity
  8
Layer_1
 62
7
100
AcDbPolyline
 90
5
 70
0
 10
16.081807
 20
2.825251
 30
0.0
 10
18.256255
 20
2.692961
 30
0.0
 10
18.256255
 20
1.502341
 30
0.0
 10
18.256255
 20
0.311711
 30
0.0
 10
16.007297
 20
0.276911
 30
0.0
  0
LWPOLYLINE
  5
164
100
AcDbEntity
  8
Layer_1
 62
7
100
AcDbPolyline
 90
1
 70
1
 10
13.162245
 20
0.361511
 30
0.0
  0
SPLINE
  5
165
100
AcDbEntity
  8
Layer_1
 62
7
100
AcDbSpline
 70
8
 71
3
 72
8
 73
4
 74
0
 40
0
 40
0
 40
0
 40
0
 40
1
 40
1
 40
1
 40
1
 10
15.748359
 20
2.335911
 30
0.0
 10
12.623597
 20
2.477811
 30
0.0
 10
12.460235
 20
2.698651
 30
0.0
 10
12.347699
 20
6.932891
 30
0.0
  0
LWPOLYLINE
  5
166
100
AcDbEntity
  8
Layer_1
 62
7
100
AcDbPolyline
 90
3
 70
0
 10
17.859381
 20
1.474271
 30
0.0
 10
17.859381
 20
2.240011
 30
0.0
 10
15.748359
 20
2.335911
 30
0.0
  0
SPLINE
  5
167
100
AcDbEntity
  8
Layer_1
 62
7
100
AcDbSpline
 70
8
 71
3
 72
8
 73
4
 74
0
 40
0
 40
0
 40
0
 40
0
 40
1
 40
1
 40
1
 40
1
 10
10.715626
 20
7.196221
 30
0.0
 10
10.715626
 20
3.782321
 30
0.0
 10
11.107016
 20
2.352831
 30
0.0
 10
12.267074
 20
1.529811
 30
0.0
  0
SPLINE
  5
168
100
AcDbEntity
  8
Layer_1
 62
7
100
AcDbSpline
 70
8
 71
3
 72
8
 73
4
 74
0
 40
0
 40
0
 40
0
 40
0
 40
1
 40
1
 40
1
 40
1
 10
12.267074
 20
1.529811
 30
0.0
 10
13.186377
 20
0.877591
 30
0.0
 10
13.659581
 20
0.775771
 30
0.0
 10
15.941147
 20
0.739271
 30
0.0
  0
LWPOLYLINE
  5
169
100
AcDbEntity
  8
Layer_1
 62
7
100
AcDbPolyline
 90
5
 70
0
 10
12.347699
 20
6.932891
 30
0.0
 10
12.259969
 20
10.233581
 30
0.0
 10
11.487798
 20
10.233581
 30
0.0
 10
10.715626
 20
10.233581
 30
0.0
 10
10.715626
 20
7.196221
 30
0.0
  0
SPLINE
  5
16a
100
AcDbEntity
  8
Layer_1
 62
7
100
AcDbSpline
 70
8
 71
3
 72
8
 73
4
 74
0
 40
0
 40
0
 40
0
 40
0
 40
1
 40
1
 40
1
 40
1
 10
21.960423
 20
0.354031
 30
0.0
 10
19.929311
 20
0.906111
 30
0.0
 10
18.770914
 20
3.090141
 30
0.0
 10
18.977534
 20
5.977921
 30
0.0
  0
SPLINE
  5
16b
100
AcDbEntity
  8
Layer_1
 62
7
100
AcDbSpline
 70
8
 71
3
 72
8
 73
4
 74
0
 40
0
 40
0
 40
0
 40
0
 40
1
 40
1
 40
1
 40
1
 10
18.977534
 20
5.977921
 30
0.0
 10
19.142236
 20
8.279861
 30
0.0
 10
19.752215
 20
9.382031
 30
0.0
 10
21.305018
 20
10.183461
 30
0.0
  0
SPLINE
  5
16c
100
AcDbEntity
  8
Layer_1
 62
7
100
AcDbSpline
 70
8
 71
3
 72
8
 73
4
 74
0
 40
0
 40
0
 40
0
 40
0
 40
1
 40
1
 40
1
 40
1
 10
21.305018
 20
10.183461
 30
0.0
 10
22.875200
 20
10.993851
 30
0.0
 10
26.137912
 20
10.939441
 30
0.0
 10
27.284026
 20
10.083761
 30
0.0
  0
SPLINE
  5
16d
100
AcDbEntity
  8
Layer_1
 62
7
100
AcDbSpline
 70
8
 71
3
 72
8
 73
4
 74
0
 40
0
 40
0
 40
0
 40
0
 40
1
 40
1
 40
1
 40
1
 10
27.284026
 20
10.083761
 30
0.0
 10
28.867050
 20
8.901861
 30
0.0
 10
29.104172
 20
8.300931
 30
0.0
 10
29.104172
 20
5.471051
 30
0.0
  0
SPLINE
  5
16e
100
AcDbEntity
  8
Layer_1
 62
7
100
AcDbSpline
 70
8
 71
3
 72
8
 73
4
 74
0
 40
0
 40
0
 40
0
 40
0
 40
1
 40
1
 40
1
 40
1
 10
29.104172
 20
5.471051
 30
0.0
 10
29.104172
 20
3.250621
 30
0.0
 10
29.023272
 20
2.755671
 30
0.0
 10
28.558658
 20
2.133361
 30
0.0
  0
SPLINE
  5
16f
100
AcDbEntity
  8
Layer_1
 62
7
100
AcDbSpline
 70
8
 71
3
 72
8
 73
4
 74
0
 40
0
 40
0
 40
0
 40
0
 40
1
 40
1
 40
1
 40
1
 10
28.558658
 20
2.133361
 30
0.0
 10
27.485364
 20
0.695801
 30
0.0
 10
26.764691
 20
0.363191
 30
0.0
 10
24.551588
 20
0.283991
 30
0.0
  0
SPLINE
  5
170
100
AcDbEntity
  8
Layer_1
 62
7
100
AcDbSpline
 70
8
 71
3
 72
8
 73
4
 74
0
 40
0
 40
0
 40
0
 40
0
 40
1
 40
1
 40
1
 40
1
 10
24.551588
 20
0.283991
 30
0.0
 10
23.417489
 20
0.243391
 30
0.0
 10
22.251464
 20
0.274991
 30
0.0
 10
21.960423
 20
0.353991
 30
0.0
  0
LWPOLYLINE
  5
171
100
AcDbEntity
  8
Layer_1
 62
7
100
AcDbPolyline
 90
3
 70
0
 10
15.941147
 20
0.739271
 30
0.0
 10
17.859376
 20
0.708571
 30
0.0
 10
17.859381
 20
1.474271
 30
0.0
  0
SPLINE
  5
172
100
AcDbEntity
  8
Layer_1
 62
7
100
AcDbSpline
 70
8
 71
3
 72
8
 73
4
 74
0
 40
0
 40
0
 40
0
 40
0
 40
1
 40
1
 40
1
 40
1
 10
26.585357
 20
1.171971
 30
0.0
 10
28.101575
 20
1.933741
 30
0.0
 10
28.707367
 20
3.115831
 30
0.0
 10
28.706886
 20
5.311731
 30
0.0
  0
SPLINE
  5
173
100
AcDbEntity
  8
Layer_1
 62
7
100
AcDbSpline
 70
8
 71
3
 72
8
 73
4
 74
0
 40
0
 40
0
 40
0
 40
0
 40
1
 40
1
 40
1
 40
1
 10
28.706886
 20
5.311731
 30
0.0
 10
28.706168
 20
8.593401
 30
0.0
 10
27.532474
 20
9.999351
 30
0.0
 10
24.639851
 20
10.183531
 30
0.0
  0
SPLINE
  5
174
100
AcDbEntity
  8
Layer_1
 62
7
100
AcDbSpline
 70
8
 71
3
 72
8
 73
4
 74
0
 40
0
 40
0
 40
0
 40
0
 40
1
 40
1
 40
1
 40
1
 10
24.639851
 20
10.183531
 30
0.0
 10
21.265869
 20
10.398371
 30
0.0
 10
19.466322
 20
8.788301
 30
0.0
 10
19.452692
 20
5.542541
 30
0.0
  0
SPLINE
  5
175
100
AcDbEntity
  8
Layer_1
 62
7
100
AcDbSpline
 70
8
 71
3
 72
8
 73
4
 74
0
 40
0
 40
0
 40
0
 40
0
 40
1
 40
1
 40
1
 40
1
 10
19.452692
 20
5.542541
 30
0.0
 10
19.442662
 20
3.153701
 30
0.0
 10
20.534899
 20
1.325581
 30
0.0
 10
22.225006
 20
0.902411
 30
0.0
  0
SPLINE
  5
176
100
AcDbEntity
  8
Layer_1
 62
7
100
AcDbSpline
 70
8
 71
3
 72
8
 73
4
 74
0
 40
0
 40
0
 40
0
 40
0
 40
1
 40
1
 40
1
 40
1
 10
22.225006
 20
0.902411
 30
0.0
 10
23.473419
 20
0.589831
 30
0.0
 10
25.700753
 20
0.727531
 30
0.0
 10
26.585357
 20
1.171971
 30
0.0
  0
LWPOLYLINE
  5
177
100
AcDbEntity
  8
Layer_1
 62
7
100
AcDbPolyline
 90
1
 70
1
 10
21.960423
 20
0.353991
 30
0.0
  0
SPLINE
  5
178
100
AcDbEntity
  8
Layer_1
 62
7
100
AcDbSpline
 70
8
 71
3
 72
8
 73
4
 74
0
 40
0
 40
0
 40
0
 40
0
 40
1
 40
1
 40
1
 40
1
 10
21.909031
 20
2.934591
 30
0.0
 10
21.223949
 20
3.523871
 30
0.0
 10
21.166673
 20
3.719571
 30
0.0
 10
21.166673
 20
5.471041
 30
0.0
  0
SPLINE
  5
179
100
AcDbEntity
  8
Layer_1
 62
7
100
AcDbSpline
 70
8
 71
3
 72
8
 73
4
 74
0
 40
0
 40
0
 40
0
 40
0
 40
1
 40
1
 40
1
 40
1
 10
21.166673
 20
5.471041
 30
0.0
 10
21.166673
 20
7.222511
 30
0.0
 10
21.223953
 20
7.418201
 30
0.0
 10
21.909031
 20
8.007491
 30
0.0
  0
SPLINE
  5
17a
100
AcDbEntity
  8
Layer_1
 62
7
100
AcDbSpline
 70
8
 71
3
 72
8
 73
4
 74
0
 40
0
 40
0
 40
0
 40
0
 40
1
 40
1
 40
1
 40
1
 10
21.909031
 20
8.007491
 30
0.0
 10
22.515093
 20
8.528801
 30
0.0
 10
22.942352
 20
8.646041
 30
0.0
 10
24.236162
 20
8.646041
 30
0.0
  0
SPLINE
  5
17b
100
AcDbEntity
  8
Layer_1
 62
7
100
AcDbSpline
 70
8
 71
3
 72
8
 73
4
 74
0
 40
0
 40
0
 40
0
 40
0
 40
1
 40
1
 40
1
 40
1
 10
24.236162
 20
8.646041
 30
0.0
 10
25.565982
 20
8.646041
 30
0.0
 10
25.925412
 20
8.541561
 30
0.0
 10
26.470366
 20
7.996601
 30
0.0
  0
SPLINE
  5
17c
100
AcDbEntity
  8
Layer_1
 62
7
100
AcDbSpline
 70
8
 71
3
 72
8
 73
4
 74
0
 40
0
 40
0
 40
0
 40
0
 40
1
 40
1
 40
1
 40
1
 10
26.470366
 20
7.996601
 30
0.0
 10
27.037770
 20
7.429201
 30
0.0
 10
27.119797
 20
7.110211
 30
0.0
 10
27.119797
 20
5.471041
 30
0.0
  0
SPLINE
  5
17d
100
AcDbEntity
  8
Layer_1
 62
7
100
AcDbSpline
 70
8
 71
3
 72
8
 73
4
 74
0
 40
0
 40
0
 40
0
 40
0
 40
1
 40
1
 40
1
 40
1
 10
27.119797
 20
5.471041
 30
0.0
 10
27.119797
 20
3.831871
 30
0.0
 10
27.037767
 20
3.512871
 30
0.0
 10
26.470366
 20
2.945471
 30
0.0
  0
SPLINE
  5
17e
100
AcDbEntity
  8
Layer_1
 62
7
100
AcDbSpline
 70
8
 71
3
 72
8
 73
4
 74
0
 40
0
 40
0
 40
0
 40
0
 40
1
 40
1
 40
1
 40
1
 10
26.470366
 20
2.945471
 30
0.0
 10
25.925412
 20
2.400511
 30
0.0
 10
25.565982
 20
2.296041
 30
0.0
 10
24.236162
 20
2.296041
 30
0.0
  0
SPLINE
  5
17f
100
AcDbEntity
  8
Layer_1
 62
7
100
AcDbSpline
 70
8
 71
3
 72
8
 73
4
 74
0
 40
0
 40
0
 40
0
 40
0
 40
1
 40
1
 40
1
 40
1
 10
24.236162
 20
2.296041
 30
0.0
 10
22.942352
 20
2.296041
 30
0.0
 10
22.515093
 20
2.413271
 30
0.0
 10
21.909031
 20
2.934591
 30
0.0
  0
LWPOLYLINE
  5
180
100
AcDbEntity
  8
Layer_1
 62
7
100
AcDbPolyline
 90
1
 70
1
 10
26.585357
 20
1.171971
 30
0.0
  0
SPLINE
  5
181
100
AcDbEntity
  8
Layer_1
 62
7
100
AcDbSpline
 70
8
 71
3
 72
8
 73
4
 74
0
 40
0
 40
0
 40
0
 40
0
 40
1
 40
1
 40
1
 40
1
 10
26.061464
 20
3.354371
 30
0.0
 10
26.473038
 20
3.765941
 30
0.0
 10
26.590631
 20
4.236311
 30
0.0
 10
26.590631
 20
5.471041
 30
0.0
  0
SPLINE
  5
182
100
AcDbEntity
  8
Layer_1
 62
7
100
AcDbSpline
 70
8
 71
3
 72
8
 73
4
 74
0
 40
0
 40
0
 40
0
 40
0
 40
1
 40
1
 40
1
 40
1
 10
26.590631
 20
5.471041
 30
0.0
 10
26.590631
 20
7.554851
 30
0.0
 10
26.082260
 20
8.116871
 30
0.0
 10
24.197354
 20
8.116871
 30
0.0
  0
SPLINE
  5
183
100
AcDbEntity
  8
Layer_1
 62
7
100
AcDbSpline
 70
8
 71
3
 72
8
 73
4
 74
0
 40
0
 40
0
 40
0
 40
0
 40
1
 40
1
 40
1
 40
1
 10
24.197354
 20
8.116871
 30
0.0
 10
23.116177
 20
8.116871
 30
0.0
 10
22.733031
 20
7.987491
 30
0.0
 10
22.181804
 20
7.436261
 30
0.0
  0
SPLINE
  5
184
100
AcDbEntity
  8
Layer_1
 62
7
100
AcDbSpline
 70
8
 71
3
 72
8
 73
4
 74
0
 40
0
 40
0
 40
0
 40
0
 40
1
 40
1
 40
1
 40
1
 10
22.181804
 20
7.436261
 30
0.0
 10
21.573509
 20
6.827971
 30
0.0
 10
21.514237
 20
6.598411
 30
0.0
 10
21.623931
 20
5.275641
 30
0.0
  0
SPLINE
  5
185
100
AcDbEntity
  8
Layer_1
 62
7
100
AcDbSpline
 70
8
 71
3
 72
8
 73
4
 74
0
 40
0
 40
0
 40
0
 40
0
 40
1
 40
1
 40
1
 40
1
 10
21.623931
 20
5.275641
 30
0.0
 10
21.779908
 20
3.394761
 30
0.0
 10
22.387663
 20
2.825201
 30
0.0
 10
24.238693
 20
2.825201
 30
0.0
  0
SPLINE
  5
186
100
AcDbEntity
  8
Layer_1
 62
7
100
AcDbSpline
 70
8
 71
3
 72
8
 73
4
 74
0
 40
0
 40
0
 40
0
 40
0
 40
1
 40
1
 40
1
 40
1
 10
24.238693
 20
2.825201
 30
0.0
 10
25.179520
 20
2.825201
 30
0.0
 10
25.676606
 20
2.969511
 30
0.0
 10
26.061464
 20
3.354371
 30
0.0
  0
LWPOLYLINE
  5
187
100
AcDbEntity
  8
Layer_1
 62
7
100
AcDbPolyline
 90
1
 70
1
 10
21.909031
 20
2.934591
 30
0.0
  0
SPLINE
  5
188
100
AcDbEntity
  8
Layer_1
 62
7
100
AcDbSpline
 70
8
 71
3
 72
8
 73
4
 74
0
 40
0
 40
0
 40
0
 40
0
 40
1
 40
1
 40
1
 40
1
 10
31.750006
 20
0.429501
 30
0.0
 10
31.458964
 20
0.548621
 30
0.0
 10
30.982714
 20
0.910481
 30
0.0
 10
30.691672
 20
1.233641
 30
0.0
  0
SPLINE
  5
189
100
AcDbEntity
  8
Layer_1
 62
7
100
AcDbSpline
 70
8
 71
3
 72
8
 73
4
 74
0
 40
0
 40
0
 40
0
 40
0
 40
1
 40
1
 40
1
 40
1
 10
30.691672
 20
1.233641
 30
0.0
 10
30.207227
 20
1.771551
 30
0.0
 10
30.162506
 20
2.193451
 30
0.0
 10
30.162506
 20
6.225811
 30
0.0
  0
LWPOLYLINE
  5
18a
100
AcDbEntity
  8
Layer_1
 62
7
100
AcDbPolyline
 90
1
 70
1
 10
26.061464
 20
3.354371
 30
0.0
  0
SPLINE
  5
18b
100
AcDbEntity
  8
Layer_1
 62
7
100
AcDbSpline
 70
8
 71
3
 72
8
 73
4
 74
0
 40
0
 40
0
 40
0
 40
0
 40
1
 40
1
 40
1
 40
1
 10
33.964841
 20
5.603331
 30
0.0
 10
35.193169
 20
9.247101
 30
0.0
 10
35.543494
 20
9.933141
 30
0.0
 10
36.402752
 20
10.377481
 30
0.0
  0
SPLINE
  5
18c
100
AcDbEntity
  8
Layer_1
 62
7
100
AcDbSpline
 70
8
 71
3
 72
8
 73
4
 74
0
 40
0
 40
0
 40
0
 40
0
 40
1
 40
1
 40
1
 40
1
 10
36.402752
 20
10.377481
 30
0.0
 10
37.753555
 20
11.076011
 30
0.0
 10
39.195297
 20
10.779241
 30
0.0
 10
40.144643
 20
9.607261
 30
0.0
  0
SPLINE
  5
18d
100
AcDbEntity
  8
Layer_1
 62
7
100
AcDbSpline
 70
8
 71
3
 72
8
 73
4
 74
0
 40
0
 40
0
 40
0
 40
0
 40
1
 40
1
 40
1
 40
1
 10
40.144643
 20
9.607261
 30
0.0
 10
40.516309
 20
9.148431
 30
0.0
 10
40.602880
 20
8.486381
 30
0.0
 10
40.607664
 20
6.066351
 30
0.0
  0
SPLINE
  5
18e
100
AcDbEntity
  8
Layer_1
 62
7
100
AcDbSpline
 70
8
 71
3
 72
8
 73
4
 74
0
 40
0
 40
0
 40
0
 40
0
 40
1
 40
1
 40
1
 40
1
 10
40.607664
 20
6.066351
 30
0.0
 10
40.610864
 20
4.429241
 30
0.0
 10
40.702844
 20
3.091261
 30
0.0
 10
40.811984
 20
3.093061
 30
0.0
  0
SPLINE
  5
18f
100
AcDbEntity
  8
Layer_1
 62
7
100
AcDbSpline
 70
8
 71
3
 72
8
 73
4
 74
0
 40
0
 40
0
 40
0
 40
0
 40
1
 40
1
 40
1
 40
1
 10
40.811984
 20
3.093061
 30
0.0
 10
40.921125
 20
3.095061
 30
0.0
 10
41.605734
 20
4.791501
 30
0.0
 10
42.333339
 20
6.863371
 30
0.0
  0
LWPOLYLINE
  5
190
100
AcDbEntity
  8
Layer_1
 62
7
100
AcDbPolyline
 90
7
 70
0
 10
30.162506
 20
6.225811
 30
0.0
 10
30.162506
 20
10.630411
 30
0.0
 10
31.485422
 20
10.630411
 30
0.0
 10
32.808339
 20
10.630411
 30
0.0
 10
32.940631
 20
6.793951
 30
0.0
 10
33.072922
 20
2.957491
 30
0.0
 10
33.964841
 20
5.603331
 30
0.0
  0
SPLINE
  5
191
100
AcDbEntity
  8
Layer_1
 62
7
100
AcDbSpline
 70
8
 71
3
 72
8
 73
4
 74
0
 40
0
 40
0
 40
0
 40
0
 40
1
 40
1
 40
1
 40
1
 10
45.045318
 20
10.710411
 30
0.0
 10
46.086316
 20
10.770311
 30
0.0
 10
46.434380
 20
10.699211
 30
0.0
 10
46.434380
 20
10.426581
 30
0.0
  0
SPLINE
  5
192
100
AcDbEntity
  8
Layer_1
 62
7
100
AcDbSpline
 70
8
 71
3
 72
8
 73
4
 74
0
 40
0
 40
0
 40
0
 40
0
 40
1
 40
1
 40
1
 40
1
 10
46.434380
 20
10.426581
 30
0.0
 10
46.434380
 20
10.226481
 30
0.0
 10
45.720005
 20
8.115561
 30
0.0
 10
44.846880
 20
5.735651
 30
0.0
  0
SPLINE
  5
193
100
AcDbEntity
  8
Layer_1
 62
7
100
AcDbSpline
 70
8
 71
3
 72
8
 73
4
 74
0
 40
0
 40
0
 40
0
 40
0
 40
1
 40
1
 40
1
 40
1
 10
44.846880
 20
5.735651
 30
0.0
 10
43.973755
 20
3.355731
 30
0.0
 10
43.259380
 20
1.368351
 30
0.0
 10
43.259380
 20
1.319241
 30
0.0
  0
SPLINE
  5
194
100
AcDbEntity
  8
Layer_1
 62
7
100
AcDbSpline
 70
8
 71
3
 72
8
 73
4
 74
0
 40
0
 40
0
 40
0
 40
0
 40
1
 40
1
 40
1
 40
1
 10
43.259380
 20
1.319241
 30
0.0
 10
43.259380
 20
1.029141
 30
0.0
 10
41.418349
 20
0.181225
 30
0.0
 10
40.786662
 20
0.180395
 30
0.0
  0
SPLINE
  5
195
100
AcDbEntity
  8
Layer_1
 62
7
100
AcDbSpline
 70
8
 71
3
 72
8
 73
4
 74
0
 40
0
 40
0
 40
0
 40
0
 40
1
 40
1
 40
1
 40
1
 10
40.786662
 20
0.180395
 30
0.0
 10
39.812538
 20
0.179395
 30
0.0
 10
38.619259
 20
0.890981
 30
0.0
 10
38.254843
 20
1.690791
 30
0.0
  0
SPLINE
  5
196
100
AcDbEntity
  8
Layer_1
 62
7
100
AcDbSpline
 70
8
 71
3
 72
8
 73
4
 74
0
 40
0
 40
0
 40
0
 40
0
 40
1
 40
1
 40
1
 40
1
 10
38.254843
 20
1.690791
 30
0.0
 10
38.096922
 20
2.037381
 30
0.0
 10
37.967714
 20
3.565521
 30
0.0
 10
37.967714
 20
5.086641
 30
0.0
  0
SPLINE
  5
197
100
AcDbEntity
  8
Layer_1
 62
7
100
AcDbSpline
 70
8
 71
3
 72
8
 73
4
 74
0
 40
0
 40
0
 40
0
 40
0
 40
1
 40
1
 40
1
 40
1
 10
37.967714
 20
5.086641
 30
0.0
 10
37.967714
 20
6.607761
 30
0.0
 10
37.872864
 20
7.852321
 30
0.0
 10
37.756942
 20
7.852321
 30
0.0
  0
SPLINE
  5
198
100
AcDbEntity
  8
Layer_1
 62
7
100
AcDbSpline
 70
8
 71
3
 72
8
 73
4
 74
0
 40
0
 40
0
 40
0
 40
0
 40
1
 40
1
 40
1
 40
1
 10
37.756942
 20
7.852321
 30
0.0
 10
37.641017
 20
7.852321
 30
0.0
 10
37.076630
 20
6.410081
 30
0.0
 10
36.502748
 20
4.647351
 30
0.0
  0
SPLINE
  5
199
100
AcDbEntity
  8
Layer_1
 62
7
100
AcDbSpline
 70
8
 71
3
 72
8
 73
4
 74
0
 40
0
 40
0
 40
0
 40
0
 40
1
 40
1
 40
1
 40
1
 10
36.502748
 20
4.647351
 30
0.0
 10
35.704900
 20
2.196681
 30
0.0
 10
35.282698
 20
1.293751
 30
0.0
 10
34.708845
 20
0.810891
 30
0.0
  0
SPLINE
  5
19a
100
AcDbEntity
  8
Layer_1
 62
7
100
AcDbSpline
 70
8
 71
3
 72
8
 73
4
 74
0
 40
0
 40
0
 40
0
 40
0
 40
1
 40
1
 40
1
 40
1
 10
34.708845
 20
0.810891
 30
0.0
 10
33.940445
 20
0.164325
 30
0.0
 10
32.767372
 20
0.013135
 30
0.0
 10
31.750006
 20
0.429531
 30
0.0
  0
LWPOLYLINE
  5
19b
100
AcDbEntity
  8
Layer_1
 62
7
100
AcDbPolyline
 90
3
 70
0
 10
42.333339
 20
6.863371
 30
0.0
 10
43.656255
 20
10.630411
 30
0.0
 10
45.045318
 20
10.710411
 30
0.0
  0
SPLINE
  5
19c
100
AcDbEntity
  8
Layer_1
 62
7
100
AcDbSpline
 70
8
 71
3
 72
8
 73
4
 74
0
 40
0
 40
0
 40
0
 40
0
 40
1
 40
1
 40
1
 40
1
 10
34.356355
 20
1.303851
 30
0.0
 10
34.791484
 20
1.701461
 30
0.0
 10
35.334080
 20
2.909631
 30
0.0
 10
35.990216
 20
4.941871
 30
0.0
  0
SPLINE
  5
19d
100
AcDbEntity
  8
Layer_1
 62
7
100
AcDbSpline
 70
8
 71
3
 72
8
 73
4
 74
0
 40
0
 40
0
 40
0
 40
0
 40
1
 40
1
 40
1
 40
1
 10
35.990216
 20
4.941871
 30
0.0
 10
37.086631
 20
8.337781
 30
0.0
 10
37.443969
 20
8.925921
 30
0.0
 10
38.086726
 20
8.392471
 30
0.0
  0
SPLINE
  5
19e
100
AcDbEntity
  8
Layer_1
 62
7
100
AcDbSpline
 70
8
 71
3
 72
8
 73
4
 74
0
 40
0
 40
0
 40
0
 40
0
 40
1
 40
1
 40
1
 40
1
 10
38.086726
 20
8.392471
 30
0.0
 10
38.411533
 20
8.122911
 30
0.0
 10
38.496880
 20
7.448961
 30
0.0
 10
38.496880
 20
5.153701
 30
0.0
  0
SPLINE
  5
19f
100
AcDbEntity
  8
Layer_1
 62
7
100
AcDbSpline
 70
8
 71
3
 72
8
 73
4
 74
0
 40
0
 40
0
 40
0
 40
0
 40
1
 40
1
 40
1
 40
1
 10
38.496880
 20
5.153701
 30
0.0
 10
38.496880
 20
2.303021
 30
0.0
 10
38.509610
 20
2.242611
 30
0.0
 10
39.270278
 20
1.481931
 30
0.0
  0
SPLINE
  5
1a0
100
AcDbEntity
  8
Layer_1
 62
7
100
AcDbSpline
 70
8
 71
3
 72
8
 73
4
 74
0
 40
0
 40
0
 40
0
 40
0
 40
1
 40
1
 40
1
 40
1
 10
39.270278
 20
1.481931
 30
0.0
 10
40.097330
 20
0.654881
 30
0.0
 10
40.732015
 20
0.532751
 30
0.0
 10
41.762654
 20
1.002341
 30
0.0
  0
SPLINE
  5
1a1
100
AcDbEntity
  8
Layer_1
 62
7
100
AcDbSpline
 70
8
 71
3
 72
8
 73
4
 74
0
 40
0
 40
0
 40
0
 40
0
 40
1
 40
1
 40
1
 40
1
 10
41.762654
 20
1.002341
 30
0.0
 10
42.598257
 20
1.383071
 30
0.0
 10
42.838403
 20
1.859881
 30
0.0
 10
44.455916
 20
6.349871
 30
0.0
  0
LWPOLYLINE
  5
1a2
100
AcDbEntity
  8
Layer_1
 62
7
100
AcDbPolyline
 90
1
 70
1
 10
31.750006
 20
0.429531
 30
0.0
  0
SPLINE
  5
1a3
100
AcDbEntity
  8
Layer_1
 62
7
100
AcDbSpline
 70
8
 71
3
 72
8
 73
4
 74
0
 40
0
 40
0
 40
0
 40
0
 40
1
 40
1
 40
1
 40
1
 10
45.037093
 20
10.186041
 30
0.0
 10
44.613454
 20
10.232641
 30
0.0
 10
44.213163
 20
10.217141
 30
0.0
 10
44.147557
 20
10.151541
 30
0.0
  0
SPLINE
  5
1a4
100
AcDbEntity
  8
Layer_1
 62
7
100
AcDbSpline
 70
8
 71
3
 72
8
 73
4
 74
0
 40
0
 40
0
 40
0
 40
0
 40
1
 40
1
 40
1
 40
1
 10
44.147557
 20
10.151541
 30
0.0
 10
44.081947
 20
10.085941
 30
0.0
 10
43.461508
 20
8.409811
 30
0.0
 10
42.768795
 20
6.426811
 30
0.0
  0
SPLINE
  5
1a5
100
AcDbEntity
  8
Layer_1
 62
7
100
AcDbSpline
 70
8
 71
3
 72
8
 73
4
 74
0
 40
0
 40
0
 40
0
 40
0
 40
1
 40
1
 40
1
 40
1
 10
42.768795
 20
6.426811
 30
0.0
 10
41.385470
 20
2.466831
 30
0.0
 10
41.126168
 20
2.025361
 30
0.0
 10
40.492469
 20
2.551281
 30
0.0
  0
SPLINE
  5
1a6
100
AcDbEntity
  8
Layer_1
 62
7
100
AcDbSpline
 70
8
 71
3
 72
8
 73
4
 74
0
 40
0
 40
0
 40
0
 40
0
 40
1
 40
1
 40
1
 40
1
 10
40.492469
 20
2.551281
 30
0.0
 10
40.168841
 20
2.819871
 30
0.0
 10
40.084380
 20
3.508131
 30
0.0
 10
40.084380
 20
5.876761
 30
0.0
  0
LWPOLYLINE
  5
1a7
100
AcDbEntity
  8
Layer_1
 62
7
100
AcDbPolyline
 90
3
 70
0
 10
44.455916
 20
6.349871
 30
0.0
 10
45.807346
 20
10.101241
 30
0.0
 10
45.037093
 20
10.186041
 30
0.0
  0
SPLINE
  5
1a8
100
AcDbEntity
  8
Layer_1
 62
7
100
AcDbSpline
 70
8
 71
3
 72
8
 73
4
 74
0
 40
0
 40
0
 40
0
 40
0
 40
1
 40
1
 40
1
 40
1
 10
39.270330
 20
9.548531
 30
0.0
 10
38.376943
 20
10.300261
 30
0.0
 10
37.805101
 20
10.389171
 30
0.0
 10
36.802289
 20
9.932261
 30
0.0
  0
SPLINE
  5
1a9
100
AcDbEntity
  8
Layer_1
 62
7
100
AcDbSpline
 70
8
 71
3
 72
8
 73
4
 74
0
 40
0
 40
0
 40
0
 40
0
 40
1
 40
1
 40
1
 40
1
 10
36.802289
 20
9.932261
 30
0.0
 10
36.032290
 20
9.581431
 30
0.0
 10
35.686339
 20
8.894361
 30
0.0
 10
34.555974
 20
5.471011
 30
0.0
  0
SPLINE
  5
1aa
100
AcDbEntity
  8
Layer_1
 62
7
100
AcDbSpline
 70
8
 71
3
 72
8
 73
4
 74
0
 40
0
 40
0
 40
0
 40
0
 40
1
 40
1
 40
1
 40
1
 10
34.555974
 20
5.471011
 30
0.0
 10
33.571673
 20
2.490021
 30
0.0
 10
33.392120
 20
2.167671
 30
0.0
 10
32.835042
 20
2.381441
 30
0.0
  0
SPLINE
  5
1ab
100
AcDbEntity
  8
Layer_1
 62
7
100
AcDbSpline
 70
8
 71
3
 72
8
 73
4
 74
0
 40
0
 40
0
 40
0
 40
0
 40
1
 40
1
 40
1
 40
1
 10
32.835042
 20
2.381441
 30
0.0
 10
32.473550
 20
2.520161
 30
0.0
 10
32.411464
 20
3.107531
 30
0.0
 10
32.411464
 20
6.388741
 30
0.0
  0
LWPOLYLINE
  5
1ac
100
AcDbEntity
  8
Layer_1
 62
7
100
AcDbPolyline
 90
3
 70
0
 10
40.084380
 20
5.876761
 30
0.0
 10
40.084380
 20
8.863551
 30
0.0
 10
39.270330
 20
9.548531
 30
0.0
  0
SPLINE
  5
1ad
100
AcDbEntity
  8
Layer_1
 62
7
100
AcDbSpline
 70
8
 71
3
 72
8
 73
4
 74
0
 40
0
 40
0
 40
0
 40
0
 40
1
 40
1
 40
1
 40
1
 10
31.332778
 20
1.481901
 30
0.0
 10
32.286046
 20
0.528641
 30
0.0
 10
33.434035
 20
0.461021
 30
0.0
 10
34.356355
 20
1.303821
 30
0.0
  0
LWPOLYLINE
  5
1ae
100
AcDbEntity
  8
Layer_1
 62
7
100
AcDbPolyline
 90
7
 70
0
 10
32.411464
 20
6.388741
 30
0.0
 10
32.411464
 20
10.233511
 30
0.0
 10
31.485422
 20
10.233511
 30
0.0
 10
30.559381
 20
10.233511
 30
0.0
 10
30.559381
 20
6.244401
 30
0.0
 10
30.559381
 20
2.255301
 30
0.0
 10
31.332778
 20
1.481901
 30
0.0
  0
SPLINE
  5
1af
100
AcDbEntity
  8
Layer_1
 62
7
100
AcDbSpline
 70
8
 71
3
 72
8
 73
4
 74
0
 40
0
 40
0
 40
0
 40
0
 40
1
 40
1
 40
1
 40
1
 10
48.315586
 20
0.548601
 30
0.0
 10
47.134005
 20
1.203501
 30
0.0
 10
46.982941
 20
1.868961
 30
0.0
 10
46.972922
 20
6.463221
 30
0.0
  0
LWPOLYLINE
  5
1b0
100
AcDbEntity
  8
Layer_1
 62
7
100
AcDbPolyline
 90
1
 70
1
 10
34.356355
 20
1.303821
 30
0.0
  0
SPLINE
  5
1b1
100
AcDbEntity
  8
Layer_1
 62
7
100
AcDbSpline
 70
8
 71
3
 72
8
 73
4
 74
0
 40
0
 40
0
 40
0
 40
0
 40
1
 40
1
 40
1
 40
1
 10
49.609355
 20
6.926241
 30
0.0
 10
49.609355
 20
4.816191
 30
0.0
 10
49.702525
 20
3.089791
 30
0.0
 10
49.816393
 20
3.089791
 30
0.0
  0
SPLINE
  5
1b2
100
AcDbEntity
  8
Layer_1
 62
7
100
AcDbSpline
 70
8
 71
3
 72
8
 73
4
 74
0
 40
0
 40
0
 40
0
 40
0
 40
1
 40
1
 40
1
 40
1
 10
49.816393
 20
3.089791
 30
0.0
 10
49.930264
 20
3.089791
 30
0.0
 10
50.482505
 20
4.484621
 30
0.0
 10
51.043597
 20
6.189431
 30
0.0
  0
SPLINE
  5
1b3
100
AcDbEntity
  8
Layer_1
 62
7
100
AcDbSpline
 70
8
 71
3
 72
8
 73
4
 74
0
 40
0
 40
0
 40
0
 40
0
 40
1
 40
1
 40
1
 40
1
 10
51.043597
 20
6.189431
 30
0.0
 10
52.264766
 20
9.899791
 30
0.0
 10
52.943839
 20
10.762701
 30
0.0
 10
54.642544
 20
10.762701
 30
0.0
  0
SPLINE
  5
1b4
100
AcDbEntity
  8
Layer_1
 62
7
100
AcDbSpline
 70
8
 71
3
 72
8
 73
4
 74
0
 40
0
 40
0
 40
0
 40
0
 40
1
 40
1
 40
1
 40
1
 10
54.642544
 20
10.762701
 30
0.0
 10
55.546597
 20
10.762701
 30
0.0
 10
55.911376
 20
10.599021
 30
0.0
 10
56.647271
 20
9.863121
 30
0.0
  0
LWPOLYLINE
  5
1b5
100
AcDbEntity
  8
Layer_1
 62
7
100
AcDbPolyline
 90
5
 70
0
 10
46.972922
 20
6.463221
 30
0.0
 10
46.963522
 20
10.762701
 30
0.0
 10
48.286438
 20
10.762701
 30
0.0
 10
49.609355
 20
10.762701
 30
0.0
 10
49.609355
 20
6.926241
 30
0.0
  0
SPLINE
  5
1b6
100
AcDbEntity
  8
Layer_1
 62
7
100
AcDbSpline
 70
8
 71
3
 72
8
 73
4
 74
0
 40
0
 40
0
 40
0
 40
0
 40
1
 40
1
 40
1
 40
1
 10
57.546855
 20
5.973741
 30
0.0
 10
57.546855
 20
4.302401
 30
0.0
 10
57.646455
 20
3.094801
 30
0.0
 10
57.772711
 20
3.235311
 30
0.0
  0
SPLINE
  5
1b7
100
AcDbEntity
  8
Layer_1
 62
7
100
AcDbSpline
 70
8
 71
3
 72
8
 73
4
 74
0
 40
0
 40
0
 40
0
 40
0
 40
1
 40
1
 40
1
 40
1
 10
57.772711
 20
3.235311
 30
0.0
 10
57.896932
 20
3.373551
 30
0.0
 10
58.567364
 20
5.123771
 30
0.0
 10
59.262559
 20
7.124681
 30
0.0
  0
LWPOLYLINE
  5
1b8
100
AcDbEntity
  8
Layer_1
 62
7
100
AcDbPolyline
 90
3
 70
0
 10
56.647271
 20
9.863121
 30
0.0
 10
57.546855
 20
8.963541
 30
0.0
 10
57.546855
 20
5.973741
 30
0.0
  0
SPLINE
  5
1b9
100
AcDbEntity
  8
Layer_1
 62
7
100
AcDbSpline
 70
8
 71
3
 72
8
 73
4
 74
0
 40
0
 40
0
 40
0
 40
0
 40
1
 40
1
 40
1
 40
1
 10
61.799212
 20
10.762701
 30
0.0
 10
62.499177
 20
10.762701
 30
0.0
 10
63.135610
 20
10.659581
 30
0.0
 10
63.213508
 20
10.533541
 30
0.0
  0
SPLINE
  5
1ba
100
AcDbEntity
  8
Layer_1
 62
7
100
AcDbSpline
 70
8
 71
3
 72
8
 73
4
 74
0
 40
0
 40
0
 40
0
 40
0
 40
1
 40
1
 40
1
 40
1
 10
63.213508
 20
10.533541
 30
0.0
 10
63.291408
 20
10.407491
 30
0.0
 10
62.649401
 20
8.353671
 30
0.0
 10
61.786829
 20
5.969471
 30
0.0
  0
SPLINE
  5
1bb
100
AcDbEntity
  8
Layer_1
 62
7
100
AcDbSpline
 70
8
 71
3
 72
8
 73
4
 74
0
 40
0
 40
0
 40
0
 40
0
 40
1
 40
1
 40
1
 40
1
 10
61.786829
 20
5.969471
 30
0.0
 10
60.068990
 20
1.221271
 30
0.0
 10
59.350520
 20
0.179375
 30
0.0
 10
57.794125
 20
0.179375
 30
0.0
  0
SPLINE
  5
1bc
100
AcDbEntity
  8
Layer_1
 62
7
100
AcDbSpline
 70
8
 71
3
 72
8
 73
4
 74
0
 40
0
 40
0
 40
0
 40
0
 40
1
 40
1
 40
1
 40
1
 10
57.794125
 20
0.179375
 30
0.0
 10
56.759536
 20
0.179375
 30
0.0
 10
55.534259
 20
0.817351
 30
0.0
 10
55.121076
 20
1.571171
 30
0.0
  0
SPLINE
  5
1bd
100
AcDbEntity
  8
Layer_1
 62
7
100
AcDbSpline
 70
8
 71
3
 72
8
 73
4
 74
0
 40
0
 40
0
 40
0
 40
0
 40
1
 40
1
 40
1
 40
1
 10
55.121076
 20
1.571171
 30
0.0
 10
54.942437
 20
1.897091
 30
0.0
 10
54.730496
 20
3.473431
 30
0.0
 10
54.650097
 20
5.074161
 30
0.0
  0
LWPOLYLINE
  5
1be
100
AcDbEntity
  8
Layer_1
 62
7
100
AcDbPolyline
 90
3
 70
0
 10
59.262559
 20
7.124681
 30
0.0
 10
60.526550
 20
10.762701
 30
0.0
 10
61.799212
 20
10.762701
 30
0.0
  0
SPLINE
  5
1bf
100
AcDbEntity
  8
Layer_1
 62
7
100
AcDbSpline
 70
8
 71
3
 72
8
 73
4
 74
0
 40
0
 40
0
 40
0
 40
0
 40
1
 40
1
 40
1
 40
1
 10
53.350443
 20
4.589551
 30
0.0
 10
52.348001
 20
1.639051
 30
0.0
 10
52.088191
 20
1.128191
 30
0.0
 10
51.366184
 20
0.687931
 30
0.0
  0
SPLINE
  5
1c0
100
AcDbEntity
  8
Layer_1
 62
7
100
AcDbSpline
 70
8
 71
3
 72
8
 73
4
 74
0
 40
0
 40
0
 40
0
 40
0
 40
1
 40
1
 40
1
 40
1
 10
51.366184
 20
0.687931
 30
0.0
 10
50.404879
 20
0.101765
 30
0.0
 10
49.219438
 20
0.047625
 30
0.0
 10
48.315561
 20
0.548601
 30
0.0
  0
LWPOLYLINE
  5
1c1
100
AcDbEntity
  8
Layer_1
 62
7
100
AcDbPolyline
 90
3
 70
0
 10
54.650097
 20
5.074161
 30
0.0
 10
54.503916
 20
7.984581
 30
0.0
 10
53.350443
 20
4.589551
 30
0.0
  0
SPLINE
  5
1c2
100
AcDbEntity
  8
Layer_1
 62
7
100
AcDbSpline
 70
8
 71
3
 72
8
 73
4
 74
0
 40
0
 40
0
 40
0
 40
0
 40
1
 40
1
 40
1
 40
1
 10
50.909144
 20
1.093441
 30
0.0
 10
51.531677
 20
1.415361
 30
0.0
 10
51.810783
 20
1.945681
 30
0.0
 10
52.614958
 20
4.334581
 30
0.0
  0
SPLINE
  5
1c3
100
AcDbEntity
  8
Layer_1
 62
7
100
AcDbSpline
 70
8
 71
3
 72
8
 73
4
 74
0
 40
0
 40
0
 40
0
 40
0
 40
1
 40
1
 40
1
 40
1
 10
52.614958
 20
4.334581
 30
0.0
 10
53.766189
 20
7.754461
 30
0.0
 10
54.135306
 20
8.513741
 30
0.0
 10
54.646609
 20
8.513741
 30
0.0
  0
SPLINE
  5
1c4
100
AcDbEntity
  8
Layer_1
 62
7
100
AcDbSpline
 70
8
 71
3
 72
8
 73
4
 74
0
 40
0
 40
0
 40
0
 40
0
 40
1
 40
1
 40
1
 40
1
 10
54.646609
 20
8.513741
 30
0.0
 10
54.954749
 20
8.513741
 30
0.0
 10
55.063804
 20
7.895421
 30
0.0
 10
55.183256
 20
5.471041
 30
0.0
  0
SPLINE
  5
1c5
100
AcDbEntity
  8
Layer_1
 62
7
100
AcDbSpline
 70
8
 71
3
 72
8
 73
4
 74
0
 40
0
 40
0
 40
0
 40
0
 40
1
 40
1
 40
1
 40
1
 10
55.183256
 20
5.471041
 30
0.0
 10
55.353678
 20
2.012181
 30
0.0
 10
55.468462
 20
1.632921
 30
0.0
 10
56.507470
 20
1.095631
 30
0.0
  0
SPLINE
  5
1c6
100
AcDbEntity
  8
Layer_1
 62
7
100
AcDbSpline
 70
8
 71
3
 72
8
 73
4
 74
0
 40
0
 40
0
 40
0
 40
0
 40
1
 40
1
 40
1
 40
1
 10
56.507470
 20
1.095631
 30
0.0
 10
58.529594
 20
0.049945
 30
0.0
 10
59.312203
 20
0.858191
 30
0.0
 10
61.128372
 20
5.867911
 30
0.0
  0
SPLINE
  5
1c7
100
AcDbEntity
  8
Layer_1
 62
7
100
AcDbSpline
 70
8
 71
3
 72
8
 73
4
 74
0
 40
0
 40
0
 40
0
 40
0
 40
1
 40
1
 40
1
 40
1
 10
61.128372
 20
5.867911
 30
0.0
 10
61.919705
 20
8.050721
 30
0.0
 10
62.568690
 20
9.933501
 30
0.0
 10
62.570561
 20
10.051861
 30
0.0
  0
SPLINE
  5
1c8
100
AcDbEntity
  8
Layer_1
 62
7
100
AcDbSpline
 70
8
 71
3
 72
8
 73
4
 74
0
 40
0
 40
0
 40
0
 40
0
 40
1
 40
1
 40
1
 40
1
 10
62.570561
 20
10.051861
 30
0.0
 10
62.572461
 20
10.170221
 30
0.0
 10
62.199385
 20
10.229751
 30
0.0
 10
61.741567
 20
10.184151
 30
0.0
  0
SPLINE
  5
1c9
100
AcDbEntity
  8
Layer_1
 62
7
100
AcDbSpline
 70
8
 71
3
 72
8
 73
4
 74
0
 40
0
 40
0
 40
0
 40
0
 40
1
 40
1
 40
1
 40
1
 10
61.741567
 20
10.184151
 30
0.0
 10
60.922592
 20
10.102551
 30
0.0
 10
60.887360
 20
10.039391
 30
0.0
 10
59.556367
 20
6.264791
 30
0.0
  0
SPLINE
  5
1ca
100
AcDbEntity
  8
Layer_1
 62
7
100
AcDbSpline
 70
8
 71
3
 72
8
 73
4
 74
0
 40
0
 40
0
 40
0
 40
0
 40
1
 40
1
 40
1
 40
1
 10
59.556367
 20
6.264791
 30
0.0
 10
58.427533
 20
3.063491
 30
0.0
 10
58.116350
 20
2.428331
 30
0.0
 10
57.676784
 20
2.428331
 30
0.0
  0
SPLINE
  5
1cb
100
AcDbEntity
  8
Layer_1
 62
7
100
AcDbSpline
 70
8
 71
3
 72
8
 73
4
 74
0
 40
0
 40
0
 40
0
 40
0
 40
1
 40
1
 40
1
 40
1
 10
57.676784
 20
2.428331
 30
0.0
 10
57.186406
 20
2.428331
 30
0.0
 10
57.140863
 20
2.653951
 30
0.0
 10
57.017713
 20
5.693361
 30
0.0
  0
SPLINE
  5
1cc
100
AcDbEntity
  8
Layer_1
 62
7
100
AcDbSpline
 70
8
 71
3
 72
8
 73
4
 74
0
 40
0
 40
0
 40
0
 40
0
 40
1
 40
1
 40
1
 40
1
 10
57.017713
 20
5.693361
 30
0.0
 10
56.888974
 20
8.870701
 30
0.0
 10
56.865485
 20
8.975511
 30
0.0
 10
56.143063
 20
9.595961
 30
0.0
  0
SPLINE
  5
1cd
100
AcDbEntity
  8
Layer_1
 62
7
100
AcDbSpline
 70
8
 71
3
 72
8
 73
4
 74
0
 40
0
 40
0
 40
0
 40
0
 40
1
 40
1
 40
1
 40
1
 10
56.143063
 20
9.595961
 30
0.0
 10
55.191482
 20
10.413231
 30
0.0
 10
54.009211
 20
10.424091
 30
0.0
 10
53.208046
 20
9.622961
 30
0.0
  0
SPLINE
  5
1ce
100
AcDbEntity
  8
Layer_1
 62
7
100
AcDbSpline
 70
8
 71
3
 72
8
 73
4
 74
0
 40
0
 40
0
 40
0
 40
0
 40
1
 40
1
 40
1
 40
1
 10
53.208046
 20
9.622961
 30
0.0
 10
52.849435
 20
9.264351
 30
0.0
 10
52.186185
 20
7.762921
 30
0.0
 10
51.600965
 20
5.984941
 30
0.0
  0
SPLINE
  5
1cf
100
AcDbEntity
  8
Layer_1
 62
7
100
AcDbSpline
 70
8
 71
3
 72
8
 73
4
 74
0
 40
0
 40
0
 40
0
 40
0
 40
1
 40
1
 40
1
 40
1
 10
51.600965
 20
5.984941
 30
0.0
 10
50.486054
 20
2.597681
 30
0.0
 10
50.130260
 20
2.018581
 30
0.0
 10
49.490367
 20
2.549641
 30
0.0
  0
SPLINE
  5
1d0
100
AcDbEntity
  8
Layer_1
 62
7
100
AcDbSpline
 70
8
 71
3
 72
8
 73
4
 74
0
 40
0
 40
0
 40
0
 40
0
 40
1
 40
1
 40
1
 40
1
 10
49.490367
 20
2.549641
 30
0.0
 10
49.155940
 20
2.827191
 30
0.0
 10
49.080213
 20
3.567961
 30
0.0
 10
49.080213
 20
6.561811
 30
0.0
  0
LWPOLYLINE
  5
1d1
100
AcDbEntity
  8
Layer_1
 62
7
100
AcDbPolyline
 90
1
 70
1
 10
48.315561
 20
0.548601
 30
0.0
  0
SPLINE
  5
1d2
100
AcDbEntity
  8
Layer_1
 62
7
100
AcDbSpline
 70
8
 71
3
 72
8
 73
4
 74
0
 40
0
 40
0
 40
0
 40
0
 40
1
 40
1
 40
1
 40
1
 10
48.266111
 20
1.481971
 30
0.0
 10
49.127137
 20
0.620951
 30
0.0
 10
49.803201
 20
0.521571
 30
0.0
 10
50.909144
 20
1.093481
 30
0.0
  0
LWPOLYLINE
  5
1d3
100
AcDbEntity
  8
Layer_1
 62
7
100
AcDbPolyline
 90
7
 70
0
 10
49.080213
 20
6.561811
 30
0.0
 10
49.080213
 20
10.233581
 30
0.0
 10
48.286463
 20
10.233581
 30
0.0
 10
47.492713
 20
10.233581
 30
0.0
 10
47.492713
 20
6.244471
 30
0.0
 10
47.492713
 20
2.255371
 30
0.0
 10
48.266111
 20
1.481971
 30
0.0
  0
SPLINE
  5
1d4
100
AcDbEntity
  8
Layer_1
 62
7
100
AcDbSpline
 70
8
 71
3
 72
8
 73
4
 74
0
 40
0
 40
0
 40
0
 40
0
 40
1
 40
1
 40
1
 40
1
 10
66.013546
 20
0.758621
 30
0.0
 10
64.235377
 20
1.671691
 30
0.0
 10
63.561923
 20
3.128851
 30
0.0
 10
63.699787
 20
5.764891
 30
0.0
  0
SPLINE
  5
1d5
100
AcDbEntity
  8
Layer_1
 62
7
100
AcDbSpline
 70
8
 71
3
 72
8
 73
4
 74
0
 40
0
 40
0
 40
0
 40
0
 40
1
 40
1
 40
1
 40
1
 10
63.699787
 20
5.764891
 30
0.0
 10
63.830636
 20
8.266781
 30
0.0
 10
64.397336
 20
9.346181
 30
0.0
 10
66.019599
 20
10.183461
 30
0.0
  0
SPLINE
  5
1d6
100
AcDbEntity
  8
Layer_1
 62
7
100
AcDbSpline
 70
8
 71
3
 72
8
 73
4
 74
0
 40
0
 40
0
 40
0
 40
0
 40
1
 40
1
 40
1
 40
1
 10
66.019599
 20
10.183461
 30
0.0
 10
67.589782
 20
10.993851
 30
0.0
 10
70.852494
 20
10.939441
 30
0.0
 10
71.998607
 20
10.083761
 30
0.0
  0
SPLINE
  5
1d7
100
AcDbEntity
  8
Layer_1
 62
7
100
AcDbSpline
 70
8
 71
3
 72
8
 73
4
 74
0
 40
0
 40
0
 40
0
 40
0
 40
1
 40
1
 40
1
 40
1
 10
71.998607
 20
10.083761
 30
0.0
 10
73.581631
 20
8.901861
 30
0.0
 10
73.818752
 20
8.300931
 30
0.0
 10
73.818752
 20
5.471051
 30
0.0
  0
SPLINE
  5
1d8
100
AcDbEntity
  8
Layer_1
 62
7
100
AcDbSpline
 70
8
 71
3
 72
8
 73
4
 74
0
 40
0
 40
0
 40
0
 40
0
 40
1
 40
1
 40
1
 40
1
 10
73.818752
 20
5.471051
 30
0.0
 10
73.818752
 20
2.641161
 30
0.0
 10
73.581631
 20
2.040231
 30
0.0
 10
71.998607
 20
0.858341
 30
0.0
  0
SPLINE
  5
1d9
100
AcDbEntity
  8
Layer_1
 62
7
100
AcDbSpline
 70
8
 71
3
 72
8
 73
4
 74
0
 40
0
 40
0
 40
0
 40
0
 40
1
 40
1
 40
1
 40
1
 10
71.998607
 20
0.858341
 30
0.0
 10
70.852641
 20
0.002755
 30
0.0
 10
67.591384
 20
-0.051575
 30
0.0
 10
66.013546
 20
0.758641
 30
0.0
  0
LWPOLYLINE
  5
1da
100
AcDbEntity
  8
Layer_1
 62
7
100
AcDbPolyline
 90
1
 70
1
 10
50.909144
 20
1.093481
 30
0.0
  0
SPLINE
  5
1db
100
AcDbEntity
  8
Layer_1
 62
7
100
AcDbSpline
 70
8
 71
3
 72
8
 73
4
 74
0
 40
0
 40
0
 40
0
 40
0
 40
1
 40
1
 40
1
 40
1
 10
71.759775
 20
1.395241
 30
0.0
 10
74.053242
 20
3.071791
 30
0.0
 10
74.056542
 20
7.868051
 30
0.0
 10
71.765375
 20
9.542651
 30
0.0
  0
SPLINE
  5
1dc
100
AcDbEntity
  8
Layer_1
 62
7
100
AcDbSpline
 70
8
 71
3
 72
8
 73
4
 74
0
 40
0
 40
0
 40
0
 40
0
 40
1
 40
1
 40
1
 40
1
 10
71.765375
 20
9.542651
 30
0.0
 10
70.673173
 20
10.340931
 30
0.0
 10
68.028583
 20
10.447421
 30
0.0
 10
66.465643
 20
9.756061
 30
0.0
  0
SPLINE
  5
1dd
100
AcDbEntity
  8
Layer_1
 62
7
100
AcDbSpline
 70
8
 71
3
 72
8
 73
4
 74
0
 40
0
 40
0
 40
0
 40
0
 40
1
 40
1
 40
1
 40
1
 10
66.465643
 20
9.756061
 30
0.0
 10
65.004754
 20
9.109841
 30
0.0
 10
64.424607
 20
8.125311
 30
0.0
 10
64.228173
 20
5.959001
 30
0.0
  0
SPLINE
  5
1de
100
AcDbEntity
  8
Layer_1
 62
7
100
AcDbSpline
 70
8
 71
3
 72
8
 73
4
 74
0
 40
0
 40
0
 40
0
 40
0
 40
1
 40
1
 40
1
 40
1
 10
64.228173
 20
5.959001
 30
0.0
 10
63.998074
 20
3.421431
 30
0.0
 10
65.078224
 20
1.401761
 30
0.0
 10
66.939580
 20
0.889191
 30
0.0
  0
SPLINE
  5
1df
100
AcDbEntity
  8
Layer_1
 62
7
100
AcDbSpline
 70
8
 71
3
 72
8
 73
4
 74
0
 40
0
 40
0
 40
0
 40
0
 40
1
 40
1
 40
1
 40
1
 10
66.939580
 20
0.889191
 30
0.0
 10
67.230621
 20
0.808991
 30
0.0
 10
68.268612
 20
0.769051
 30
0.0
 10
69.246226
 20
0.800291
 30
0.0
  0
SPLINE
  5
1e0
100
AcDbEntity
  8
Layer_1
 62
7
100
AcDbSpline
 70
8
 71
3
 72
8
 73
4
 74
0
 40
0
 40
0
 40
0
 40
0
 40
1
 40
1
 40
1
 40
1
 10
69.246226
 20
0.800291
 30
0.0
 10
70.550564
 20
0.841991
 30
0.0
 10
71.219635
 20
1.000371
 30
0.0
 10
71.759767
 20
1.395211
 30
0.0
  0
LWPOLYLINE
  5
1e1
100
AcDbEntity
  8
Layer_1
 62
7
100
AcDbPolyline
 90
1
 70
1
 10
66.013546
 20
0.758641
 30
0.0
  0
SPLINE
  5
1e2
100
AcDbEntity
  8
Layer_1
 62
7
100
AcDbSpline
 70
8
 71
3
 72
8
 73
4
 74
0
 40
0
 40
0
 40
0
 40
0
 40
1
 40
1
 40
1
 40
1
 10
66.623613
 20
2.934591
 30
0.0
 10
65.938531
 20
3.523871
 30
0.0
 10
65.881254
 20
3.719571
 30
0.0
 10
65.881254
 20
5.471041
 30
0.0
  0
SPLINE
  5
1e3
100
AcDbEntity
  8
Layer_1
 62
7
100
AcDbSpline
 70
8
 71
3
 72
8
 73
4
 74
0
 40
0
 40
0
 40
0
 40
0
 40
1
 40
1
 40
1
 40
1
 10
65.881254
 20
5.471041
 30
0.0
 10
65.881254
 20
7.222511
 30
0.0
 10
65.938534
 20
7.418201
 30
0.0
 10
66.623613
 20
8.007491
 30
0.0
  0
SPLINE
  5
1e4
100
AcDbEntity
  8
Layer_1
 62
7
100
AcDbSpline
 70
8
 71
3
 72
8
 73
4
 74
0
 40
0
 40
0
 40
0
 40
0
 40
1
 40
1
 40
1
 40
1
 10
66.623613
 20
8.007491
 30
0.0
 10
67.229674
 20
8.528801
 30
0.0
 10
67.656934
 20
8.646041
 30
0.0
 10
68.950743
 20
8.646041
 30
0.0
  0
SPLINE
  5
1e5
100
AcDbEntity
  8
Layer_1
 62
7
100
AcDbSpline
 70
8
 71
3
 72
8
 73
4
 74
0
 40
0
 40
0
 40
0
 40
0
 40
1
 40
1
 40
1
 40
1
 10
68.950743
 20
8.646041
 30
0.0
 10
70.280563
 20
8.646041
 30
0.0
 10
70.639994
 20
8.541561
 30
0.0
 10
71.184947
 20
7.996601
 30
0.0
  0
SPLINE
  5
1e6
100
AcDbEntity
  8
Layer_1
 62
7
100
AcDbSpline
 70
8
 71
3
 72
8
 73
4
 74
0
 40
0
 40
0
 40
0
 40
0
 40
1
 40
1
 40
1
 40
1
 10
71.184947
 20
7.996601
 30
0.0
 10
71.752352
 20
7.429201
 30
0.0
 10
71.834379
 20
7.110211
 30
0.0
 10
71.834379
 20
5.471041
 30
0.0
  0
SPLINE
  5
1e7
100
AcDbEntity
  8
Layer_1
 62
7
100
AcDbSpline
 70
8
 71
3
 72
8
 73
4
 74
0
 40
0
 40
0
 40
0
 40
0
 40
1
 40
1
 40
1
 40
1
 10
71.834379
 20
5.471041
 30
0.0
 10
71.834379
 20
3.831871
 30
0.0
 10
71.752349
 20
3.512871
 30
0.0
 10
71.184947
 20
2.945471
 30
0.0
  0
SPLINE
  5
1e8
100
AcDbEntity
  8
Layer_1
 62
7
100
AcDbSpline
 70
8
 71
3
 72
8
 73
4
 74
0
 40
0
 40
0
 40
0
 40
0
 40
1
 40
1
 40
1
 40
1
 10
71.184947
 20
2.945471
 30
0.0
 10
70.639994
 20
2.400511
 30
0.0
 10
70.280563
 20
2.296041
 30
0.0
 10
68.950743
 20
2.296041
 30
0.0
  0
SPLINE
  5
1e9
100
AcDbEntity
  8
Layer_1
 62
7
100
AcDbSpline
 70
8
 71
3
 72
8
 73
4
 74
0
 40
0
 40
0
 40
0
 40
0
 40
1
 40
1
 40
1
 40
1
 10
68.950743
 20
2.296041
 30
0.0
 10
67.656934
 20
2.296041
 30
0.0
 10
67.229674
 20
2.413271
 30
0.0
 10
66.623613
 20
2.934591
 30
0.0
  0
LWPOLYLINE
  5
1ea
100
AcDbEntity
  8
Layer_1
 62
7
100
AcDbPolyline
 90
1
 70
1
 10
71.759767
 20
1.395211
 30
0.0
  0
SPLINE
  5
1eb
100
AcDbEntity
  8
Layer_1
 62
7
100
AcDbSpline
 70
8
 71
3
 72
8
 73
4
 74
0
 40
0
 40
0
 40
0
 40
0
 40
1
 40
1
 40
1
 40
1
 10
70.776046
 20
3.354371
 30
0.0
 10
71.187620
 20
3.765941
 30
0.0
 10
71.305212
 20
4.236311
 30
0.0
 10
71.305212
 20
5.471041
 30
0.0
  0
SPLINE
  5
1ec
100
AcDbEntity
  8
Layer_1
 62
7
100
AcDbSpline
 70
8
 71
3
 72
8
 73
4
 74
0
 40
0
 40
0
 40
0
 40
0
 40
1
 40
1
 40
1
 40
1
 10
71.305212
 20
5.471041
 30
0.0
 10
71.305212
 20
7.540481
 30
0.0
 10
70.792847
 20
8.116871
 30
0.0
 10
68.953274
 20
8.116871
 30
0.0
  0
SPLINE
  5
1ed
100
AcDbEntity
  8
Layer_1
 62
7
100
AcDbSpline
 70
8
 71
3
 72
8
 73
4
 74
0
 40
0
 40
0
 40
0
 40
0
 40
1
 40
1
 40
1
 40
1
 10
68.953274
 20
8.116871
 30
0.0
 10
66.976691
 20
8.116871
 30
0.0
 10
66.410421
 20
7.527671
 30
0.0
 10
66.410421
 20
5.471041
 30
0.0
  0
SPLINE
  5
1ee
100
AcDbEntity
  8
Layer_1
 62
7
100
AcDbSpline
 70
8
 71
3
 72
8
 73
4
 74
0
 40
0
 40
0
 40
0
 40
0
 40
1
 40
1
 40
1
 40
1
 10
66.410421
 20
5.471041
 30
0.0
 10
66.410421
 20
4.072751
 30
0.0
 10
66.500611
 20
3.763751
 30
0.0
 10
67.035045
 20
3.330991
 30
0.0
  0
SPLINE
  5
1ef
100
AcDbEntity
  8
Layer_1
 62
7
100
AcDbSpline
 70
8
 71
3
 72
8
 73
4
 74
0
 40
0
 40
0
 40
0
 40
0
 40
1
 40
1
 40
1
 40
1
 10
67.035045
 20
3.330991
 30
0.0
 10
67.911745
 20
2.621081
 30
0.0
 10
70.056160
 20
2.634481
 30
0.0
 10
70.776046
 20
3.354391
 30
0.0
  0
LWPOLYLINE
  5
1f0
100
AcDbEntity
  8
Layer_1
 62
7
100
AcDbPolyline
 90
1
 70
1
 10
66.623613
 20
2.934591
 30
0.0
  0
SPLINE
  5
1f1
100
AcDbEntity
  8
Layer_1
 62
7
100
AcDbSpline
 70
8
 71
3
 72
8
 73
4
 74
0
 40
0
 40
0
 40
0
 40
0
 40
1
 40
1
 40
1
 40
1
 10
84.193800
 20
0.343561
 30
0.0
 10
84.090070
 20
0.447281
 30
0.0
 10
84.005210
 20
2.242531
 30
0.0
 10
84.005210
 20
4.333011
 30
0.0
  0
SPLINE
  5
1f2
100
AcDbEntity
  8
Layer_1
 62
7
100
AcDbSpline
 70
8
 71
3
 72
8
 73
4
 74
0
 40
0
 40
0
 40
0
 40
0
 40
1
 40
1
 40
1
 40
1
 10
84.005210
 20
4.333011
 30
0.0
 10
84.005210
 20
8.633891
 30
0.0
 10
84.276760
 20
9.685321
 30
0.0
 10
85.558730
 20
10.348251
 30
0.0
  0
SPLINE
  5
1f3
100
AcDbEntity
  8
Layer_1
 62
7
100
AcDbSpline
 70
8
 71
3
 72
8
 73
4
 74
0
 40
0
 40
0
 40
0
 40
0
 40
1
 40
1
 40
1
 40
1
 10
85.558730
 20
10.348251
 30
0.0
 10
87.750480
 20
11.481651
 30
0.0
 10
89.162280
 20
10.490341
 30
0.0
 10
90.348280
 20
6.985221
 30
0.0
  0
SPLINE
  5
1f4
100
AcDbEntity
  8
Layer_1
 62
7
100
AcDbSpline
 70
8
 71
3
 72
8
 73
4
 74
0
 40
0
 40
0
 40
0
 40
0
 40
1
 40
1
 40
1
 40
1
 10
90.348280
 20
6.985221
 30
0.0
 10
91.847530
 20
2.554321
 30
0.0
 10
91.896620
 20
2.522341
 30
0.0
 10
91.921220
 20
5.960521
 30
0.0
  0
LWPOLYLINE
  5
1f5
100
AcDbEntity
  8
Layer_1
 62
7
100
AcDbPolyline
 90
1
 70
1
 10
70.776046
 20
3.354391
 30
0.0
  0
SPLINE
  5
1f6
100
AcDbEntity
  8
Layer_1
 62
7
100
AcDbSpline
 70
8
 71
3
 72
8
 73
4
 74
0
 40
0
 40
0
 40
0
 40
0
 40
1
 40
1
 40
1
 40
1
 10
92.842300
 20
9.863121
 30
0.0
 10
94.300290
 20
11.321111
 30
0.0
 10
96.415440
 20
11.021061
 30
0.0
 10
97.338620
 20
9.225291
 30
0.0
  0
SPLINE
  5
1f7
100
AcDbEntity
  8
Layer_1
 62
7
100
AcDbSpline
 70
8
 71
3
 72
8
 73
4
 74
0
 40
0
 40
0
 40
0
 40
0
 40
1
 40
1
 40
1
 40
1
 10
97.338620
 20
9.225291
 30
0.0
 10
97.878410
 20
8.175291
 30
0.0
 10
100.409390
 20
1.031851
 30
0.0
 10
100.409390
 20
0.558341
 30
0.0
  0
SPLINE
  5
1f8
100
AcDbEntity
  8
Layer_1
 62
7
100
AcDbSpline
 70
8
 71
3
 72
8
 73
4
 74
0
 40
0
 40
0
 40
0
 40
0
 40
1
 40
1
 40
1
 40
1
 10
100.409390
 20
0.558341
 30
0.0
 10
100.409390
 20
0.234471
 30
0.0
 10
100.129570
 20
0.167995
 30
0.0
 10
99.034460
 20
0.231695
 30
0.0
  0
LWPOLYLINE
  5
1f9
100
AcDbEntity
  8
Layer_1
 62
7
100
AcDbPolyline
 90
3
 70
0
 10
91.921220
 20
5.960521
 30
0.0
 10
91.942720
 20
8.963541
 30
0.0
 10
92.842300
 20
9.863121
 30
0.0
  0
SPLINE
  5
1fa
100
AcDbEntity
  8
Layer_1
 62
7
100
AcDbSpline
 70
8
 71
3
 72
8
 73
4
 74
0
 40
0
 40
0
 40
0
 40
0
 40
1
 40
1
 40
1
 40
1
 10
96.350580
 20
4.088055
 30
0.0
 10
95.630650
 20
6.165055
 30
0.0
 10
94.998360
 20
7.821155
 30
0.0
 10
94.945490
 20
7.768285
 30
0.0
  0
SPLINE
  5
1fb
100
AcDbEntity
  8
Layer_1
 62
7
100
AcDbSpline
 70
8
 71
3
 72
8
 73
4
 74
0
 40
0
 40
0
 40
0
 40
0
 40
1
 40
1
 40
1
 40
1
 10
94.945490
 20
7.768285
 30
0.0
 10
94.892590
 20
7.715385
 30
0.0
 10
94.816460
 20
6.389685
 30
0.0
 10
94.776250
 20
4.822215
 30
0.0
  0
SPLINE
  5
1fc
100
AcDbEntity
  8
Layer_1
 62
7
100
AcDbSpline
 70
8
 71
3
 72
8
 73
4
 74
0
 40
0
 40
0
 40
0
 40
0
 40
1
 40
1
 40
1
 40
1
 10
94.776250
 20
4.822215
 30
0.0
 10
94.703350
 20
1.981135
 30
0.0
 10
94.700450
 20
1.969895
 30
0.0
 10
93.847930
 20
1.208125
 30
0.0
  0
SPLINE
  5
1fd
100
AcDbEntity
  8
Layer_1
 62
7
100
AcDbSpline
 70
8
 71
3
 72
8
 73
4
 74
0
 40
0
 40
0
 40
0
 40
0
 40
1
 40
1
 40
1
 40
1
 10
93.847930
 20
1.208125
 30
0.0
 10
93.182840
 20
0.613875
 30
0.0
 10
92.736860
 20
0.443985
 30
0.0
 10
91.841940
 20
0.443985
 30
0.0
  0
SPLINE
  5
1fe
100
AcDbEntity
  8
Layer_1
 62
7
100
AcDbSpline
 70
8
 71
3
 72
8
 73
4
 74
0
 40
0
 40
0
 40
0
 40
0
 40
1
 40
1
 40
1
 40
1
 10
91.841940
 20
0.443985
 30
0.0
 10
89.979300
 20
0.443985
 30
0.0
 10
89.504150
 20
1.021495
 30
0.0
 10
88.193430
 20
4.878425
 30
0.0
  0
LWPOLYLINE
  5
1ff
100
AcDbEntity
  8
Layer_1
 62
7
100
AcDbPolyline
 90
3
 70
0
 10
99.034460
 20
0.231695
 30
0.0
 10
97.659540
 20
0.311695
 30
0.0
 10
96.350580
 20
4.088055
 30
0.0
  0
SPLINE
  5
200
100
AcDbEntity
  8
Layer_1
 62
7
100
AcDbSpline
 70
8
 71
3
 72
8
 73
4
 74
0
 40
0
 40
0
 40
0
 40
0
 40
1
 40
1
 40
1
 40
1
 10
85.582870
 20
0.233395
 30
0.0
 10
84.922610
 20
0.190295
 30
0.0
 10
84.297530
 20
0.240395
 30
0.0
 10
84.193810
 20
0.343635
 30
0.0
  0
LWPOLYLINE
  5
201
100
AcDbEntity
  8
Layer_1
 62
7
100
AcDbPolyline
 90
5
 70
0
 10
88.193430
 20
4.878425
 30
0.0
 10
87.047930
 20
8.249195
 30
0.0
 10
86.915640
 20
4.280445
 30
0.0
 10
86.783340
 20
0.311695
 30
0.0
 10
85.582870
 20
0.233395
 30
0.0
  0
SPLINE
  5
202
100
AcDbEntity
  8
Layer_1
 62
7
100
AcDbSpline
 70
8
 71
3
 72
8
 73
4
 74
0
 40
0
 40
0
 40
0
 40
0
 40
1
 40
1
 40
1
 40
1
 10
86.445530
 20
4.611141
 30
0.0
 10
86.514630
 20
8.293361
 30
0.0
 10
86.548200
 20
8.513741
 30
0.0
 10
87.040210
 20
8.513741
 30
0.0
  0
SPLINE
  5
203
100
AcDbEntity
  8
Layer_1
 62
7
100
AcDbSpline
 70
8
 71
3
 72
8
 73
4
 74
0
 40
0
 40
0
 40
0
 40
0
 40
1
 40
1
 40
1
 40
1
 10
87.040210
 20
8.513741
 30
0.0
 10
87.470570
 20
8.513741
 30
0.0
 10
87.760550
 20
7.935981
 30
0.0
 10
88.700100
 20
5.206451
 30
0.0
  0
SPLINE
  5
204
100
AcDbEntity
  8
Layer_1
 62
7
100
AcDbSpline
 70
8
 71
3
 72
8
 73
4
 74
0
 40
0
 40
0
 40
0
 40
0
 40
1
 40
1
 40
1
 40
1
 10
88.700100
 20
5.206451
 30
0.0
 10
89.374000
 20
3.248681
 30
0.0
 10
90.063870
 20
1.710231
 30
0.0
 10
90.390770
 20
1.436141
 30
0.0
  0
SPLINE
  5
205
100
AcDbEntity
  8
Layer_1
 62
7
100
AcDbSpline
 70
8
 71
3
 72
8
 73
4
 74
0
 40
0
 40
0
 40
0
 40
0
 40
1
 40
1
 40
1
 40
1
 10
90.390770
 20
1.436141
 30
0.0
 10
91.235750
 20
0.727661
 30
0.0
 10
92.777290
 20
0.833131
 30
0.0
 10
93.546630
 20
1.652061
 30
0.0
  0
SPLINE
  5
206
100
AcDbEntity
  8
Layer_1
 62
7
100
AcDbSpline
 70
8
 71
3
 72
8
 73
4
 74
0
 40
0
 40
0
 40
0
 40
0
 40
1
 40
1
 40
1
 40
1
 10
93.546630
 20
1.652061
 30
0.0
 10
94.127280
 20
2.270131
 30
0.0
 10
94.192990
 20
2.596281
 30
0.0
 10
94.279640
 20
5.290081
 30
0.0
  0
SPLINE
  5
207
100
AcDbEntity
  8
Layer_1
 62
7
100
AcDbSpline
 70
8
 71
3
 72
8
 73
4
 74
0
 40
0
 40
0
 40
0
 40
0
 40
1
 40
1
 40
1
 40
1
 10
94.279640
 20
5.290081
 30
0.0
 10
94.431420
 20
10.008961
 30
0.0
 10
94.999180
 20
9.814061
 30
0.0
 10
96.858990
 20
4.404641
 30
0.0
  0
LWPOLYLINE
  5
208
100
AcDbEntity
  8
Layer_1
 62
7
100
AcDbPolyline
 90
1
 70
1
 10
84.193810
 20
0.343635
 30
0.0
  0
SPLINE
  5
209
100
AcDbEntity
  8
Layer_1
 62
7
100
AcDbSpline
 70
8
 71
3
 72
8
 73
4
 74
0
 40
0
 40
0
 40
0
 40
0
 40
1
 40
1
 40
1
 40
1
 10
99.033280
 20
0.708541
 30
0.0
 10
99.788490
 20
0.708541
 30
0.0
 10
99.906190
 20
0.784541
 30
0.0
 10
99.750240
 20
1.171561
 30
0.0
  0
SPLINE
  5
20a
100
AcDbEntity
  8
Layer_1
 62
7
100
AcDbSpline
 70
8
 71
3
 72
8
 73
4
 74
0
 40
0
 40
0
 40
0
 40
0
 40
1
 40
1
 40
1
 40
1
 10
99.750240
 20
1.171561
 30
0.0
 10
99.647620
 20
1.426221
 30
0.0
 10
99.041680
 20
3.094931
 30
0.0
 10
98.403710
 20
4.879801
 30
0.0
  0
SPLINE
  5
20b
100
AcDbEntity
  8
Layer_1
 62
7
100
AcDbSpline
 70
8
 71
3
 72
8
 73
4
 74
0
 40
0
 40
0
 40
0
 40
0
 40
1
 40
1
 40
1
 40
1
 10
98.403710
 20
4.879801
 30
0.0
 10
97.765730
 20
6.664681
 30
0.0
 10
97.061810
 20
8.476851
 30
0.0
 10
96.839450
 20
8.906861
 30
0.0
  0
SPLINE
  5
20c
100
AcDbEntity
  8
Layer_1
 62
7
100
AcDbSpline
 70
8
 71
3
 72
8
 73
4
 74
0
 40
0
 40
0
 40
0
 40
0
 40
1
 40
1
 40
1
 40
1
 10
96.839450
 20
8.906861
 30
0.0
 10
96.087930
 20
10.360141
 30
0.0
 10
94.582200
 20
10.657211
 30
0.0
 10
93.346530
 20
9.595981
 30
0.0
  0
SPLINE
  5
20d
100
AcDbEntity
  8
Layer_1
 62
7
100
AcDbSpline
 70
8
 71
3
 72
8
 73
4
 74
0
 40
0
 40
0
 40
0
 40
0
 40
1
 40
1
 40
1
 40
1
 10
93.346530
 20
9.595981
 30
0.0
 10
92.628090
 20
8.978971
 30
0.0
 10
92.599900
 20
8.857471
 30
0.0
 10
92.471880
 20
5.825671
 30
0.0
  0
SPLINE
  5
20e
100
AcDbEntity
  8
Layer_1
 62
7
100
AcDbSpline
 70
8
 71
3
 72
8
 73
4
 74
0
 40
0
 40
0
 40
0
 40
0
 40
1
 40
1
 40
1
 40
1
 10
92.471880
 20
5.825671
 30
0.0
 10
92.350230
 20
2.944911
 30
0.0
 10
92.297020
 20
2.687111
 30
0.0
 10
91.810420
 20
2.620761
 30
0.0
  0
SPLINE
  5
20f
100
AcDbEntity
  8
Layer_1
 62
7
100
AcDbSpline
 70
8
 71
3
 72
8
 73
4
 74
0
 40
0
 40
0
 40
0
 40
0
 40
1
 40
1
 40
1
 40
1
 10
91.810420
 20
2.620761
 30
0.0
 10
91.355700
 20
2.558761
 30
0.0
 10
91.113740
 20
3.020861
 30
0.0
 10
90.090630
 20
5.905281
 30
0.0
  0
SPLINE
  5
210
100
AcDbEntity
  8
Layer_1
 62
7
100
AcDbSpline
 70
8
 71
3
 72
8
 73
4
 74
0
 40
0
 40
0
 40
0
 40
0
 40
1
 40
1
 40
1
 40
1
 10
90.090630
 20
5.905281
 30
0.0
 10
88.719490
 20
9.770871
 30
0.0
 10
88.164850
 20
10.427511
 30
0.0
 10
86.529910
 20
10.120791
 30
0.0
  0
SPLINE
  5
211
100
AcDbEntity
  8
Layer_1
 62
7
100
AcDbSpline
 70
8
 71
3
 72
8
 73
4
 74
0
 40
0
 40
0
 40
0
 40
0
 40
1
 40
1
 40
1
 40
1
 10
86.529910
 20
10.120791
 30
0.0
 10
85.836510
 20
9.990711
 30
0.0
 10
85.423350
 20
9.703881
 30
0.0
 10
85.051910
 20
9.094701
 30
0.0
  0
SPLINE
  5
212
100
AcDbEntity
  8
Layer_1
 62
7
100
AcDbSpline
 70
8
 71
3
 72
8
 73
4
 74
0
 40
0
 40
0
 40
0
 40
0
 40
1
 40
1
 40
1
 40
1
 10
85.051910
 20
9.094701
 30
0.0
 10
84.604720
 20
8.361281
 30
0.0
 10
84.536220
 20
7.749221
 30
0.0
 10
84.535370
 20
4.478851
 30
0.0
  0
LWPOLYLINE
  5
213
100
AcDbEntity
  8
Layer_1
 62
7
100
AcDbPolyline
 90
3
 70
0
 10
96.858990
 20
4.404641
 30
0.0
 10
98.129740
 20
0.708541
 30
0.0
 10
99.033280
 20
0.708541
 30
0.0
  0
SPLINE
  5
214
100
AcDbEntity
  8
Layer_1
 62
7
100
AcDbSpline
 70
8
 71
3
 72
8
 73
4
 74
0
 40
0
 40
0
 40
0
 40
0
 40
1
 40
1
 40
1
 40
1
 10
104.797450
 20
0.407631
 30
0.0
 10
104.665880
 20
0.620511
 30
0.0
 10
106.781320
 20
6.817791
 30
0.0
 10
107.707040
 20
8.931361
 30
0.0
  0
SPLINE
  5
215
100
AcDbEntity
  8
Layer_1
 62
7
100
AcDbSpline
 70
8
 71
3
 72
8
 73
4
 74
0
 40
0
 40
0
 40
0
 40
0
 40
1
 40
1
 40
1
 40
1
 10
107.707040
 20
8.931361
 30
0.0
 10
108.430340
 20
10.582791
 30
0.0
 10
110.180570
 20
11.196271
 30
0.0
 10
111.791750
 20
10.363091
 30
0.0
  0
SPLINE
  5
216
100
AcDbEntity
  8
Layer_1
 62
7
100
AcDbSpline
 70
8
 71
3
 72
8
 73
4
 74
0
 40
0
 40
0
 40
0
 40
0
 40
1
 40
1
 40
1
 40
1
 10
111.791750
 20
10.363091
 30
0.0
 10
112.937340
 20
9.770681
 30
0.0
 10
113.109380
 20
9.222631
 30
0.0
 10
113.109380
 20
6.165501
 30
0.0
  0
SPLINE
  5
217
100
AcDbEntity
  8
Layer_1
 62
7
100
AcDbSpline
 70
8
 71
3
 72
8
 73
4
 74
0
 40
0
 40
0
 40
0
 40
0
 40
1
 40
1
 40
1
 40
1
 10
113.109380
 20
6.165501
 30
0.0
 10
113.109380
 20
4.636561
 30
0.0
 10
113.204980
 20
3.326501
 30
0.0
 10
113.321870
 20
3.254271
 30
0.0
  0
SPLINE
  5
218
100
AcDbEntity
  8
Layer_1
 62
7
100
AcDbSpline
 70
8
 71
3
 72
8
 73
4
 74
0
 40
0
 40
0
 40
0
 40
0
 40
1
 40
1
 40
1
 40
1
 10
113.321870
 20
3.254271
 30
0.0
 10
113.438740
 20
3.182071
 30
0.0
 10
113.983990
 20
4.489071
 30
0.0
 10
114.533530
 20
6.158771
 30
0.0
  0
SPLINE
  5
219
100
AcDbEntity
  8
Layer_1
 62
7
100
AcDbSpline
 70
8
 71
3
 72
8
 73
4
 74
0
 40
0
 40
0
 40
0
 40
0
 40
1
 40
1
 40
1
 40
1
 10
114.533530
 20
6.158771
 30
0.0
 10
115.083070
 20
7.828481
 30
0.0
 10
115.791120
 20
9.491911
 30
0.0
 10
116.106970
 20
9.855291
 30
0.0
  0
SPLINE
  5
21a
100
AcDbEntity
  8
Layer_1
 62
7
100
AcDbSpline
 70
8
 71
3
 72
8
 73
4
 74
0
 40
0
 40
0
 40
0
 40
0
 40
1
 40
1
 40
1
 40
1
 10
116.106970
 20
9.855291
 30
0.0
 10
116.811740
 20
10.666101
 30
0.0
 10
118.348040
 20
10.958451
 30
0.0
 10
119.467480
 20
10.494761
 30
0.0
  0
SPLINE
  5
21b
100
AcDbEntity
  8
Layer_1
 62
7
100
AcDbSpline
 70
8
 71
3
 72
8
 73
4
 74
0
 40
0
 40
0
 40
0
 40
0
 40
1
 40
1
 40
1
 40
1
 10
119.467480
 20
10.494761
 30
0.0
 10
120.849200
 20
9.922441
 30
0.0
 10
121.046880
 20
9.162851
 30
0.0
 10
121.046880
 20
4.425841
 30
0.0
  0
LWPOLYLINE
  5
21c
100
AcDbEntity
  8
Layer_1
 62
7
100
AcDbPolyline
 90
5
 70
0
 10
84.535370
 20
4.478851
 30
0.0
 10
84.534380
 20
0.708541
 30
0.0
 10
85.453350
 20
0.708541
 30
0.0
 10
86.372310
 20
0.708541
 30
0.0
 10
86.445530
 20
4.611141
 30
0.0
  0
SPLINE
  5
21d
100
AcDbEntity
  8
Layer_1
 62
7
100
AcDbSpline
 70
8
 71
3
 72
8
 73
4
 74
0
 40
0
 40
0
 40
0
 40
0
 40
1
 40
1
 40
1
 40
1
 10
118.401040
 20
4.015831
 30
0.0
 10
118.401040
 20
6.125881
 30
0.0
 10
118.307840
 20
7.852291
 30
0.0
 10
118.194000
 20
7.852291
 30
0.0
  0
SPLINE
  5
21e
100
AcDbEntity
  8
Layer_1
 62
7
100
AcDbSpline
 70
8
 71
3
 72
8
 73
4
 74
0
 40
0
 40
0
 40
0
 40
0
 40
1
 40
1
 40
1
 40
1
 10
118.194000
 20
7.852291
 30
0.0
 10
118.080130
 20
7.852291
 30
0.0
 10
117.540350
 20
6.495301
 30
0.0
 10
116.994490
 20
4.836761
 30
0.0
  0
SPLINE
  5
21f
100
AcDbEntity
  8
Layer_1
 62
7
100
AcDbSpline
 70
8
 71
3
 72
8
 73
4
 74
0
 40
0
 40
0
 40
0
 40
0
 40
1
 40
1
 40
1
 40
1
 10
116.994490
 20
4.836761
 30
0.0
 10
115.797970
 20
1.201301
 30
0.0
 10
115.187360
 20
0.443951
 30
0.0
 10
113.452780
 20
0.443951
 30
0.0
  0
SPLINE
  5
220
100
AcDbEntity
  8
Layer_1
 62
7
100
AcDbSpline
 70
8
 71
3
 72
8
 73
4
 74
0
 40
0
 40
0
 40
0
 40
0
 40
1
 40
1
 40
1
 40
1
 10
113.452780
 20
0.443951
 30
0.0
 10
111.038840
 20
0.443951
 30
0.0
 10
110.463540
 20
1.368191
 30
0.0
 10
110.463540
 20
5.246231
 30
0.0
  0
SPLINE
  5
221
100
AcDbEntity
  8
Layer_1
 62
7
100
AcDbSpline
 70
8
 71
3
 72
8
 73
4
 74
0
 40
0
 40
0
 40
0
 40
0
 40
1
 40
1
 40
1
 40
1
 10
110.463540
 20
5.246231
 30
0.0
 10
110.463540
 20
6.764071
 30
0.0
 10
110.364140
 20
7.847451
 30
0.0
 10
110.237690
 20
7.706771
 30
0.0
  0
SPLINE
  5
222
100
AcDbEntity
  8
Layer_1
 62
7
100
AcDbSpline
 70
8
 71
3
 72
8
 73
4
 74
0
 40
0
 40
0
 40
0
 40
0
 40
1
 40
1
 40
1
 40
1
 10
110.237690
 20
7.706771
 30
0.0
 10
110.113460
 20
7.568521
 30
0.0
 10
109.443030
 20
5.818301
 30
0.0
 10
108.747840
 20
3.817391
 30
0.0
  0
LWPOLYLINE
  5
223
100
AcDbEntity
  8
Layer_1
 62
7
100
AcDbPolyline
 90
5
 70
0
 10
121.046880
 20
4.425841
 30
0.0
 10
121.046880
 20
0.179375
 30
0.0
 10
119.723960
 20
0.179375
 30
0.0
 10
118.401040
 20
0.179375
 30
0.0
 10
118.401040
 20
4.015831
 30
0.0
  0
SPLINE
  5
224
100
AcDbEntity
  8
Layer_1
 62
7
100
AcDbSpline
 70
8
 71
3
 72
8
 73
4
 74
0
 40
0
 40
0
 40
0
 40
0
 40
1
 40
1
 40
1
 40
1
 10
106.211180
 20
0.179375
 30
0.0
 10
105.511220
 20
0.179375
 30
0.0
 10
104.875040
 20
0.282081
 30
0.0
 10
104.797450
 20
0.407631
 30
0.0
  0
LWPOLYLINE
  5
225
100
AcDbEntity
  8
Layer_1
 62
7
100
AcDbPolyline
 90
3
 70
0
 10
108.747840
 20
3.817391
 30
0.0
 10
107.483850
 20
0.179375
 30
0.0
 10
106.211180
 20
0.179375
 30
0.0
  0
SPLINE
  5
226
100
AcDbEntity
  8
Layer_1
 62
7
100
AcDbSpline
 70
8
 71
3
 72
8
 73
4
 74
0
 40
0
 40
0
 40
0
 40
0
 40
1
 40
1
 40
1
 40
1
 10
108.454050
 20
4.677291
 30
0.0
 10
109.582890
 20
7.878581
 30
0.0
 10
109.894070
 20
8.513741
 30
0.0
 10
110.333640
 20
8.513741
 30
0.0
  0
SPLINE
  5
227
100
AcDbEntity
  8
Layer_1
 62
7
100
AcDbSpline
 70
8
 71
3
 72
8
 73
4
 74
0
 40
0
 40
0
 40
0
 40
0
 40
1
 40
1
 40
1
 40
1
 10
110.333640
 20
8.513741
 30
0.0
 10
110.824020
 20
8.513741
 30
0.0
 10
110.869560
 20
8.288131
 30
0.0
 10
110.992710
 20
5.248291
 30
0.0
  0
SPLINE
  5
228
100
AcDbEntity
  8
Layer_1
 62
7
100
AcDbSpline
 70
8
 71
3
 72
8
 73
4
 74
0
 40
0
 40
0
 40
0
 40
0
 40
1
 40
1
 40
1
 40
1
 10
110.992710
 20
5.248291
 30
0.0
 10
111.115550
 20
2.216091
 30
0.0
 10
111.169620
 20
1.946781
 30
0.0
 10
111.749620
 20
1.477981
 30
0.0
  0
SPLINE
  5
229
100
AcDbEntity
  8
Layer_1
 62
7
100
AcDbSpline
 70
8
 71
3
 72
8
 73
4
 74
0
 40
0
 40
0
 40
0
 40
0
 40
1
 40
1
 40
1
 40
1
 10
111.749620
 20
1.477981
 30
0.0
 10
112.600100
 20
0.790571
 30
0.0
 10
114.103140
 20
0.820221
 30
0.0
 10
114.868790
 20
1.539481
 30
0.0
  0
SPLINE
  5
22a
100
AcDbEntity
  8
Layer_1
 62
7
100
AcDbSpline
 70
8
 71
3
 72
8
 73
4
 74
0
 40
0
 40
0
 40
0
 40
0
 40
1
 40
1
 40
1
 40
1
 10
114.868790
 20
1.539481
 30
0.0
 10
115.231780
 20
1.880491
 30
0.0
 10
115.856520
 20
3.275491
 30
0.0
 10
116.438800
 20
5.045211
 30
0.0
  0
SPLINE
  5
22b
100
AcDbEntity
  8
Layer_1
 62
7
100
AcDbSpline
 70
8
 71
3
 72
8
 73
4
 74
0
 40
0
 40
0
 40
0
 40
0
 40
1
 40
1
 40
1
 40
1
 10
116.438800
 20
5.045211
 30
0.0
 10
117.524670
 20
8.345441
 30
0.0
 10
117.882760
 20
8.921351
 30
0.0
 10
118.520050
 20
8.392441
 30
0.0
  0
SPLINE
  5
22c
100
AcDbEntity
  8
Layer_1
 62
7
100
AcDbSpline
 70
8
 71
3
 72
8
 73
4
 74
0
 40
0
 40
0
 40
0
 40
0
 40
1
 40
1
 40
1
 40
1
 10
118.520050
 20
8.392441
 30
0.0
 10
118.854480
 20
8.114891
 30
0.0
 10
118.930210
 20
7.374131
 30
0.0
 10
118.930210
 20
4.380281
 30
0.0
  0
LWPOLYLINE
  5
22d
100
AcDbEntity
  8
Layer_1
 62
7
100
AcDbPolyline
 90
1
 70
1
 10
104.797450
 20
0.407631
 30
0.0
  0
SPLINE
  5
22e
100
AcDbEntity
  8
Layer_1
 62
7
100
AcDbSpline
 70
8
 71
3
 72
8
 73
4
 74
0
 40
0
 40
0
 40
0
 40
0
 40
1
 40
1
 40
1
 40
1
 10
119.672450
 20
9.574791
 30
0.0
 10
118.989210
 20
10.149691
 30
0.0
 10
118.650390
 20
10.257341
 30
0.0
 10
117.904840
 20
10.136351
 30
0.0
  0
SPLINE
  5
22f
100
AcDbEntity
  8
Layer_1
 62
7
100
AcDbSpline
 70
8
 71
3
 72
8
 73
4
 74
0
 40
0
 40
0
 40
0
 40
0
 40
1
 40
1
 40
1
 40
1
 10
117.904840
 20
10.136351
 30
0.0
 10
117.397540
 20
10.054051
 30
0.0
 10
116.806250
 20
9.810441
 30
0.0
 10
116.590850
 20
9.595041
 30
0.0
  0
SPLINE
  5
230
100
AcDbEntity
  8
Layer_1
 62
7
100
AcDbSpline
 70
8
 71
3
 72
8
 73
4
 74
0
 40
0
 40
0
 40
0
 40
0
 40
1
 40
1
 40
1
 40
1
 10
116.590850
 20
9.595041
 30
0.0
 10
116.375450
 20
9.379641
 30
0.0
 10
115.699130
 20
7.738541
 30
0.0
 10
115.087900
 20
5.948141
 30
0.0
  0
SPLINE
  5
231
100
AcDbEntity
  8
Layer_1
 62
7
100
AcDbSpline
 70
8
 71
3
 72
8
 73
4
 74
0
 40
0
 40
0
 40
0
 40
0
 40
1
 40
1
 40
1
 40
1
 10
115.087900
 20
5.948141
 30
0.0
 10
114.168710
 20
3.255641
 30
0.0
 10
113.878760
 20
2.678261
 30
0.0
 10
113.410690
 20
2.608331
 30
0.0
  0
SPLINE
  5
232
100
AcDbEntity
  8
Layer_1
 62
7
100
AcDbSpline
 70
8
 71
3
 72
8
 73
4
 74
0
 40
0
 40
0
 40
0
 40
0
 40
1
 40
1
 40
1
 40
1
 10
113.410690
 20
2.608331
 30
0.0
 10
112.867070
 20
2.527131
 30
0.0
 10
112.844730
 20
2.620831
 30
0.0
 10
112.843320
 20
4.989581
 30
0.0
  0
SPLINE
  5
233
100
AcDbEntity
  8
Layer_1
 62
7
100
AcDbSpline
 70
8
 71
3
 72
8
 73
4
 74
0
 40
0
 40
0
 40
0
 40
0
 40
1
 40
1
 40
1
 40
1
 10
112.843320
 20
4.989581
 30
0.0
 10
112.841320
 20
8.150161
 30
0.0
 10
112.522950
 20
9.318961
 30
0.0
 10
111.522700
 20
9.836211
 30
0.0
  0
SPLINE
  5
234
100
AcDbEntity
  8
Layer_1
 62
7
100
AcDbSpline
 70
8
 71
3
 72
8
 73
4
 74
0
 40
0
 40
0
 40
0
 40
0
 40
1
 40
1
 40
1
 40
1
 10
111.522700
 20
9.836211
 30
0.0
 10
109.487860
 20
10.888461
 30
0.0
 10
108.713910
 20
10.097361
 30
0.0
 10
106.882210
 20
5.092861
 30
0.0
  0
SPLINE
  5
235
100
AcDbEntity
  8
Layer_1
 62
7
100
AcDbSpline
 70
8
 71
3
 72
8
 73
4
 74
0
 40
0
 40
0
 40
0
 40
0
 40
1
 40
1
 40
1
 40
1
 10
106.882210
 20
5.092861
 30
0.0
 10
106.087050
 20
2.920351
 30
0.0
 10
105.436460
 20
1.037571
 30
0.0
 10
105.436460
 20
0.908911
 30
0.0
  0
SPLINE
  5
236
100
AcDbEntity
  8
Layer_1
 62
7
100
AcDbSpline
 70
8
 71
3
 72
8
 73
4
 74
0
 40
0
 40
0
 40
0
 40
0
 40
1
 40
1
 40
1
 40
1
 10
105.436460
 20
0.908911
 30
0.0
 10
105.436460
 20
0.780251
 30
0.0
 10
105.811040
 20
0.712291
 30
0.0
 10
106.268850
 20
0.757891
 30
0.0
  0
SPLINE
  5
237
100
AcDbEntity
  8
Layer_1
 62
7
100
AcDbSpline
 70
8
 71
3
 72
8
 73
4
 74
0
 40
0
 40
0
 40
0
 40
0
 40
1
 40
1
 40
1
 40
1
 10
106.268850
 20
0.757891
 30
0.0
 10
107.087830
 20
0.839491
 30
0.0
 10
107.123060
 20
0.902651
 30
0.0
 10
108.454050
 20
4.677261
 30
0.0
  0
LWPOLYLINE
  5
238
100
AcDbEntity
  8
Layer_1
 62
7
100
AcDbPolyline
 90
7
 70
0
 10
118.930210
 20
4.380281
 30
0.0
 10
118.930210
 20
0.708511
 30
0.0
 10
119.723960
 20
0.708511
 30
0.0
 10
120.517710
 20
0.708511
 30
0.0
 10
120.517710
 20
4.786031
 30
0.0
 10
120.517710
 20
8.863551
 30
0.0
 10
119.672450
 20
9.574791
 30
0.0
  0
SPLINE
  5
239
100
AcDbEntity
  8
Layer_1
 62
7
100
AcDbSpline
 70
8
 71
3
 72
8
 73
4
 74
0
 40
0
 40
0
 40
0
 40
0
 40
1
 40
1
 40
1
 40
1
 10
121.958420
 20
0.518611
 30
0.0
 10
121.886820
 20
0.705191
 30
0.0
 10
121.860820
 20
3.056681
 30
0.0
 10
121.900620
 20
5.744131
 30
0.0
  0
LWPOLYLINE
  5
23a
100
AcDbEntity
  8
Layer_1
 62
7
100
AcDbPolyline
 90
1
 70
1
 10
108.454050
 20
4.677261
 30
0.0
  0
SPLINE
  5
23b
100
AcDbEntity
  8
Layer_1
 62
7
100
AcDbSpline
 70
8
 71
3
 72
8
 73
4
 74
0
 40
0
 40
0
 40
0
 40
0
 40
1
 40
1
 40
1
 40
1
 10
123.287530
 20
0.179385
 30
0.0
 10
122.556420
 20
0.179385
 30
0.0
 10
122.037810
 20
0.311751
 30
0.0
 10
121.958420
 20
0.518621
 30
0.0
  0
LWPOLYLINE
  5
23c
100
AcDbEntity
  8
Layer_1
 62
7
100
AcDbPolyline
 90
7
 70
0
 10
121.900620
 20
5.744131
 30
0.0
 10
121.972920
 20
10.630411
 30
0.0
 10
123.229690
 20
10.711011
 30
0.0
 10
124.486460
 20
10.791711
 30
0.0
 10
124.486460
 20
5.485541
 30
0.0
 10
124.486460
 20
0.179385
 30
0.0
 10
123.287530
 20
0.179385
 30
0.0
  0
LWPOLYLINE
  5
23d
100
AcDbEntity
  8
Layer_1
 62
7
100
AcDbPolyline
 90
1
 70
1
 10
121.958420
 20
0.518621
 30
0.0
  0
SPLINE
  5
23e
100
AcDbEntity
  8
Layer_1
 62
7
100
AcDbSpline
 70
8
 71
3
 72
8
 73
4
 74
0
 40
0
 40
0
 40
0
 40
0
 40
1
 40
1
 40
1
 40
1
 10
127.661460
 20
0.767741
 30
0.0
 10
126.012960
 20
1.601601
 30
0.0
 10
125.412500
 20
2.857351
 30
0.0
 10
125.412500
 20
5.471041
 30
0.0
  0
SPLINE
  5
23f
100
AcDbEntity
  8
Layer_1
 62
7
100
AcDbSpline
 70
8
 71
3
 72
8
 73
4
 74
0
 40
0
 40
0
 40
0
 40
0
 40
1
 40
1
 40
1
 40
1
 10
125.412500
 20
5.471041
 30
0.0
 10
125.412500
 20
8.053871
 30
0.0
 10
126.026130
 20
9.328491
 30
0.0
 10
127.676790
 20
10.174331
 30
0.0
  0
SPLINE
  5
240
100
AcDbEntity
  8
Layer_1
 62
7
100
AcDbSpline
 70
8
 71
3
 72
8
 73
4
 74
0
 40
0
 40
0
 40
0
 40
0
 40
1
 40
1
 40
1
 40
1
 10
127.676790
 20
10.174331
 30
0.0
 10
128.706820
 20
10.702151
 30
0.0
 10
129.179090
 20
10.767551
 30
0.0
 10
131.497920
 20
10.703501
 30
0.0
  0
LWPOLYLINE
  5
241
100
AcDbEntity
  8
Layer_1
 62
7
100
AcDbPolyline
 90
8
 70
1
 10
123.957290
 20
5.471041
 30
0.0
 10
123.957290
 20
10.233541
 30
0.0
 10
123.163540
 20
10.233541
 30
0.0
 10
122.369790
 20
10.233541
 30
0.0
 10
122.369790
 20
5.471041
 30
0.0
 10
122.369790
 20
0.708541
 30
0.0
 10
123.163540
 20
0.708541
 30
0.0
 10
123.957290
 20
0.708541
 30
0.0
  0
SPLINE
  5
242
100
AcDbEntity
  8
Layer_1
 62
7
100
AcDbSpline
 70
8
 71
3
 72
8
 73
4
 74
0
 40
0
 40
0
 40
0
 40
0
 40
1
 40
1
 40
1
 40
1
 10
131.572290
 20
8.116861
 30
0.0
 10
128.375230
 20
7.952381
 30
0.0
 10
128.080840
 20
7.730971
 30
0.0
 10
128.067610
 20
5.480901
 30
0.0
  0
SPLINE
  5
243
100
AcDbEntity
  8
Layer_1
 62
7
100
AcDbSpline
 70
8
 71
3
 72
8
 73
4
 74
0
 40
0
 40
0
 40
0
 40
0
 40
1
 40
1
 40
1
 40
1
 10
128.067610
 20
5.480901
 30
0.0
 10
128.054310
 20
3.221271
 30
0.0
 10
128.358850
 20
2.990511
 30
0.0
 10
131.572290
 20
2.825191
 30
0.0
  0
LWPOLYLINE
  5
244
100
AcDbEntity
  8
Layer_1
 62
7
100
AcDbPolyline
 90
5
 70
0
 10
131.497920
 20
10.703501
 30
0.0
 10
134.143750
 20
10.630401
 30
0.0
 10
134.143750
 20
9.439781
 30
0.0
 10
134.143750
 20
8.249151
 30
0.0
 10
131.572290
 20
8.116861
 30
0.0
  0
SPLINE
  5
245
100
AcDbEntity
  8
Layer_1
 62
7
100
AcDbSpline
 70
8
 71
3
 72
8
 73
4
 74
0
 40
0
 40
0
 40
0
 40
0
 40
1
 40
1
 40
1
 40
1
 10
131.497920
 20
0.238551
 30
0.0
 10
129.182540
 20
0.174551
 30
0.0
 10
128.703380
 20
0.240551
 30
0.0
 10
127.661460
 20
0.767711
 30
0.0
  0
LWPOLYLINE
  5
246
100
AcDbEntity
  8
Layer_1
 62
7
100
AcDbPolyline
 90
5
 70
0
 10
131.572290
 20
2.825191
 30
0.0
 10
134.143750
 20
2.692901
 30
0.0
 10
134.143750
 20
1.502281
 30
0.0
 10
134.143750
 20
0.311651
 30
0.0
 10
131.497920
 20
0.238551
 30
0.0
  0
LWPOLYLINE
  5
247
100
AcDbEntity
  8
Layer_1
 62
7
100
AcDbPolyline
 90
1
 70
1
 10
127.661460
 20
0.767711
 30
0.0
  0
SPLINE
  5
248
100
AcDbEntity
  8
Layer_1
 62
7
100
AcDbSpline
 70
8
 71
3
 72
8
 73
4
 74
0
 40
0
 40
0
 40
0
 40
0
 40
1
 40
1
 40
1
 40
1
 10
131.380380
 20
2.296041
 30
0.0
 10
129.259400
 20
2.296041
 30
0.0
 10
128.936860
 20
2.362341
 30
0.0
 10
128.271520
 20
2.935191
 30
0.0
  0
SPLINE
  5
249
100
AcDbEntity
  8
Layer_1
 62
7
100
AcDbSpline
 70
8
 71
3
 72
8
 73
4
 74
0
 40
0
 40
0
 40
0
 40
0
 40
1
 40
1
 40
1
 40
1
 10
128.271520
 20
2.935191
 30
0.0
 10
127.586060
 20
3.525351
 30
0.0
 10
127.529290
 20
3.719841
 30
0.0
 10
127.530830
 20
5.473071
 30
0.0
  0
SPLINE
  5
24a
100
AcDbEntity
  8
Layer_1
 62
7
100
AcDbSpline
 70
8
 71
3
 72
8
 73
4
 74
0
 40
0
 40
0
 40
0
 40
0
 40
1
 40
1
 40
1
 40
1
 10
127.530830
 20
5.473071
 30
0.0
 10
127.532830
 20
7.223451
 30
0.0
 10
127.590330
 20
7.421581
 30
0.0
 10
128.273190
 20
8.008921
 30
0.0
  0
SPLINE
  5
24b
100
AcDbEntity
  8
Layer_1
 62
7
100
AcDbSpline
 70
8
 71
3
 72
8
 73
4
 74
0
 40
0
 40
0
 40
0
 40
0
 40
1
 40
1
 40
1
 40
1
 10
128.273190
 20
8.008921
 30
0.0
 10
128.936320
 20
8.579321
 30
0.0
 10
129.261680
 20
8.646041
 30
0.0
 10
131.380380
 20
8.646041
 30
0.0
  0
LWPOLYLINE
  5
24c
100
AcDbEntity
  8
Layer_1
 62
7
100
AcDbPolyline
 90
3
 70
0
 10
133.746870
 20
1.502291
 30
0.0
 10
133.746870
 20
2.296041
 30
0.0
 10
131.380380
 20
2.296041
 30
0.0
  0
SPLINE
  5
24d
100
AcDbEntity
  8
Layer_1
 62
7
100
AcDbSpline
 70
8
 71
3
 72
8
 73
4
 74
0
 40
0
 40
0
 40
0
 40
0
 40
1
 40
1
 40
1
 40
1
 10
131.431770
 20
10.227541
 30
0.0
 10
127.273520
 20
10.217141
 30
0.0
 10
125.938190
 20
9.027221
 30
0.0
 10
125.945170
 20
5.338551
 30
0.0
  0
SPLINE
  5
24e
100
AcDbEntity
  8
Layer_1
 62
7
100
AcDbSpline
 70
8
 71
3
 72
8
 73
4
 74
0
 40
0
 40
0
 40
0
 40
0
 40
1
 40
1
 40
1
 40
1
 10
125.945170
 20
5.338551
 30
0.0
 10
125.952170
 20
1.890921
 30
0.0
 10
127.335650
 20
0.724441
 30
0.0
 10
131.431770
 20
0.714161
 30
0.0
  0
LWPOLYLINE
  5
24f
100
AcDbEntity
  8
Layer_1
 62
7
100
AcDbPolyline
 90
5
 70
0
 10
131.380380
 20
8.646041
 30
0.0
 10
133.746870
 20
8.646041
 30
0.0
 10
133.746870
 20
9.439791
 30
0.0
 10
133.746870
 20
10.233541
 30
0.0
 10
131.431770
 20
10.227541
 30
0.0
  0
SPLINE
  5
250
100
AcDbEntity
  8
Layer_1
 62
7
100
AcDbSpline
 70
8
 71
3
 72
8
 73
4
 74
0
 40
0
 40
0
 40
0
 40
0
 40
1
 40
1
 40
1
 40
1
 10
146.452120
 20
0.774681
 30
0.0
 10
144.812470
 20
1.612391
 30
0.0
 10
144.197920
 20
2.892731
 30
0.0
 10
144.197920
 20
5.471041
 30
0.0
  0
SPLINE
  5
251
100
AcDbEntity
  8
Layer_1
 62
7
100
AcDbSpline
 70
8
 71
3
 72
8
 73
4
 74
0
 40
0
 40
0
 40
0
 40
0
 40
1
 40
1
 40
1
 40
1
 10
144.197920
 20
5.471041
 30
0.0
 10
144.197920
 20
9.099751
 30
0.0
 10
145.806120
 20
10.762701
 30
0.0
 10
149.315370
 20
10.762701
 30
0.0
  0
SPLINE
  5
252
100
AcDbEntity
  8
Layer_1
 62
7
100
AcDbSpline
 70
8
 71
3
 72
8
 73
4
 74
0
 40
0
 40
0
 40
0
 40
0
 40
1
 40
1
 40
1
 40
1
 10
149.315370
 20
10.762701
 30
0.0
 10
152.867480
 20
10.762701
 30
0.0
 10
154.500130
 20
9.097941
 30
0.0
 10
154.504950
 20
5.471041
 30
0.0
  0
SPLINE
  5
253
100
AcDbEntity
  8
Layer_1
 62
7
100
AcDbSpline
 70
8
 71
3
 72
8
 73
4
 74
0
 40
0
 40
0
 40
0
 40
0
 40
1
 40
1
 40
1
 40
1
 10
154.504950
 20
5.471041
 30
0.0
 10
154.509950
 20
1.802821
 30
0.0
 10
152.930560
 20
0.179375
 30
0.0
 10
149.357290
 20
0.179375
 30
0.0
  0
SPLINE
  5
254
100
AcDbEntity
  8
Layer_1
 62
7
100
AcDbSpline
 70
8
 71
3
 72
8
 73
4
 74
0
 40
0
 40
0
 40
0
 40
0
 40
1
 40
1
 40
1
 40
1
 10
149.357290
 20
0.179375
 30
0.0
 10
148.074530
 20
0.179375
 30
0.0
 10
147.311160
 20
0.335791
 30
0.0
 10
146.452120
 20
0.774681
 30
0.0
  0
LWPOLYLINE
  5
255
100
AcDbEntity
  8
Layer_1
 62
7
100
AcDbPolyline
 90
3
 70
0
 10
131.431770
 20
0.714161
 30
0.0
 10
133.746870
 20
0.708161
 30
0.0
 10
133.746870
 20
1.502291
 30
0.0
  0
SPLINE
  5
256
100
AcDbEntity
  8
Layer_1
 62
7
100
AcDbSpline
 70
8
 71
3
 72
8
 73
4
 74
0
 40
0
 40
0
 40
0
 40
0
 40
1
 40
1
 40
1
 40
1
 10
151.548600
 20
1.071311
 30
0.0
 10
152.794420
 20
1.602151
 30
0.0
 10
153.520800
 20
2.523621
 30
0.0
 10
153.849450
 20
3.990131
 30
0.0
  0
SPLINE
  5
257
100
AcDbEntity
  8
Layer_1
 62
7
100
AcDbSpline
 70
8
 71
3
 72
8
 73
4
 74
0
 40
0
 40
0
 40
0
 40
0
 40
1
 40
1
 40
1
 40
1
 10
153.849450
 20
3.990131
 30
0.0
 10
154.654700
 20
7.583331
 30
0.0
 10
152.784130
 20
10.232121
 30
0.0
 10
149.440660
 20
10.233121
 30
0.0
  0
SPLINE
  5
258
100
AcDbEntity
  8
Layer_1
 62
7
100
AcDbSpline
 70
8
 71
3
 72
8
 73
4
 74
0
 40
0
 40
0
 40
0
 40
0
 40
1
 40
1
 40
1
 40
1
 10
149.440660
 20
10.233121
 30
0.0
 10
147.787810
 20
10.233621
 30
0.0
 10
146.815820
 20
9.896441
 30
0.0
 10
145.870410
 20
8.994631
 30
0.0
  0
SPLINE
  5
259
100
AcDbEntity
  8
Layer_1
 62
7
100
AcDbSpline
 70
8
 71
3
 72
8
 73
4
 74
0
 40
0
 40
0
 40
0
 40
0
 40
1
 40
1
 40
1
 40
1
 10
145.870410
 20
8.994631
 30
0.0
 10
144.532250
 20
7.718181
 30
0.0
 10
144.262930
 20
4.350791
 30
0.0
 10
145.347660
 20
2.458361
 30
0.0
  0
SPLINE
  5
25a
100
AcDbEntity
  8
Layer_1
 62
7
100
AcDbSpline
 70
8
 71
3
 72
8
 73
4
 74
0
 40
0
 40
0
 40
0
 40
0
 40
1
 40
1
 40
1
 40
1
 10
145.347660
 20
2.458361
 30
0.0
 10
146.217260
 20
0.941231
 30
0.0
 10
149.513110
 20
0.204005
 30
0.0
 10
151.548600
 20
1.071311
 30
0.0
  0
LWPOLYLINE
  5
25b
100
AcDbEntity
  8
Layer_1
 62
7
100
AcDbPolyline
 90
1
 70
1
 10
146.452120
 20
0.774681
 30
0.0
  0
SPLINE
  5
25c
100
AcDbEntity
  8
Layer_1
 62
7
100
AcDbSpline
 70
8
 71
3
 72
8
 73
4
 74
0
 40
0
 40
0
 40
0
 40
0
 40
1
 40
1
 40
1
 40
1
 10
147.307250
 20
2.702481
 30
0.0
 10
146.519840
 20
3.254011
 30
0.0
 10
146.072310
 20
4.873701
 30
0.0
 10
146.295710
 20
6.363431
 30
0.0
  0
SPLINE
  5
25d
100
AcDbEntity
  8
Layer_1
 62
7
100
AcDbSpline
 70
8
 71
3
 72
8
 73
4
 74
0
 40
0
 40
0
 40
0
 40
0
 40
1
 40
1
 40
1
 40
1
 10
146.295710
 20
6.363431
 30
0.0
 10
146.547570
 20
8.042981
 30
0.0
 10
147.358120
 20
8.646041
 30
0.0
 10
149.363660
 20
8.646041
 30
0.0
  0
SPLINE
  5
25e
100
AcDbEntity
  8
Layer_1
 62
7
100
AcDbSpline
 70
8
 71
3
 72
8
 73
4
 74
0
 40
0
 40
0
 40
0
 40
0
 40
1
 40
1
 40
1
 40
1
 10
149.363660
 20
8.646041
 30
0.0
 10
151.234360
 20
8.646041
 30
0.0
 10
151.931710
 20
8.156111
 30
0.0
 10
152.282320
 20
6.595521
 30
0.0
  0
SPLINE
  5
25f
100
AcDbEntity
  8
Layer_1
 62
7
100
AcDbSpline
 70
8
 71
3
 72
8
 73
4
 74
0
 40
0
 40
0
 40
0
 40
0
 40
1
 40
1
 40
1
 40
1
 10
152.282320
 20
6.595521
 30
0.0
 10
152.605090
 20
5.158881
 30
0.0
 10
152.222420
 20
3.378171
 30
0.0
 10
151.457930
 20
2.759061
 30
0.0
  0
SPLINE
  5
260
100
AcDbEntity
  8
Layer_1
 62
7
100
AcDbSpline
 70
8
 71
3
 72
8
 73
4
 74
0
 40
0
 40
0
 40
0
 40
0
 40
1
 40
1
 40
1
 40
1
 10
151.457930
 20
2.759061
 30
0.0
 10
150.717290
 20
2.159281
 30
0.0
 10
148.133070
 20
2.124051
 30
0.0
 10
147.307250
 20
2.702461
 30
0.0
  0
LWPOLYLINE
  5
261
100
AcDbEntity
  8
Layer_1
 62
7
100
AcDbPolyline
 90
1
 70
1
 10
151.548600
 20
1.071311
 30
0.0
  0
SPLINE
  5
262
100
AcDbEntity
  8
Layer_1
 62
7
100
AcDbSpline
 70
8
 71
3
 72
8
 73
4
 74
0
 40
0
 40
0
 40
0
 40
0
 40
1
 40
1
 40
1
 40
1
 10
150.953200
 20
3.094291
 30
0.0
 10
151.691010
 20
3.489151
 30
0.0
 10
152.089360
 20
5.226541
 30
0.0
 10
151.739750
 20
6.524871
 30
0.0
  0
SPLINE
  5
263
100
AcDbEntity
  8
Layer_1
 62
7
100
AcDbSpline
 70
8
 71
3
 72
8
 73
4
 74
0
 40
0
 40
0
 40
0
 40
0
 40
1
 40
1
 40
1
 40
1
 10
151.739750
 20
6.524871
 30
0.0
 10
151.404440
 20
7.770131
 30
0.0
 10
150.866900
 20
8.116871
 30
0.0
 10
149.271700
 20
8.116871
 30
0.0
  0
SPLINE
  5
264
100
AcDbEntity
  8
Layer_1
 62
7
100
AcDbSpline
 70
8
 71
3
 72
8
 73
4
 74
0
 40
0
 40
0
 40
0
 40
0
 40
1
 40
1
 40
1
 40
1
 10
149.271700
 20
8.116871
 30
0.0
 10
147.421520
 20
8.116871
 30
0.0
 10
146.852570
 20
7.494601
 30
0.0
 10
146.852570
 20
5.471041
 30
0.0
  0
SPLINE
  5
265
100
AcDbEntity
  8
Layer_1
 62
7
100
AcDbSpline
 70
8
 71
3
 72
8
 73
4
 74
0
 40
0
 40
0
 40
0
 40
0
 40
1
 40
1
 40
1
 40
1
 10
146.852570
 20
5.471041
 30
0.0
 10
146.852570
 20
4.068541
 30
0.0
 10
146.942870
 20
3.756541
 30
0.0
 10
147.472780
 20
3.327421
 30
0.0
  0
SPLINE
  5
266
100
AcDbEntity
  8
Layer_1
 62
7
100
AcDbSpline
 70
8
 71
3
 72
8
 73
4
 74
0
 40
0
 40
0
 40
0
 40
0
 40
1
 40
1
 40
1
 40
1
 10
147.472780
 20
3.327421
 30
0.0
 10
148.159110
 20
2.771671
 30
0.0
 10
150.106620
 20
2.641211
 30
0.0
 10
150.953200
 20
3.094291
 30
0.0
  0
LWPOLYLINE
  5
267
100
AcDbEntity
  8
Layer_1
 62
7
100
AcDbPolyline
 90
1
 70
1
 10
147.307250
 20
2.702461
 30
0.0
  0
LWPOLYLINE
  5
268
100
AcDbEntity
  8
Layer_1
 62
7
100
AcDbPolyline
 90
1
 70
1
 10
150.953200
 20
3.094291
 30
0.0
  0
ENDSEC
  0
SECTION
  2
OBJECTS
  0
DICTIONARY
  5
C
330
0
100
AcDbDictionary
  3
ACAD_GROUP
350
D
  3
ACAD_MLINESTYLE
350
17
  0
DICTIONARY
  5
D
330
C
100
AcDbDictionary
  0
DICTIONARY
  5
1A
330
C
100
AcDbDictionary
  0
DICTIONARY
  5
17
330
C
100
AcDbDictionary
  3
STANDARD
350
18
  0
DICTIONARY
  5
19
330
C
100
AcDbDictionary
  0
ENDSEC
  0
EOF
